<svg width="1080" height="1080" viewBox="0 0 1080 1080" fill="none" xmlns="http://www.w3.org/2000/svg">
<rect width="1080" height="1080" rx="100" fill="white"/>
<g clip-path="url(#clip0_40_18)">
<path d="M665.512 638.622C647.362 577.311 652.529 446.332 818.398 412.903C830.45 474.468 816.747 605.802 665.512 638.622Z" fill="#71BD5A"/>
<path d="M445.084 367.814C475.815 368.385 535.596 391.499 528.871 479.39C498.837 475.742 440.033 448.318 445.084 367.814Z" fill="#9BD3AE"/>
<path d="M436.403 659.599C469.697 673.381 505.219 680.471 541.256 680.471V751.997L582.573 752H623.891V554.162C623.891 528.953 628.876 505.294 638.529 482.004C648.183 458.714 662.332 437.551 680.17 419.726C698.007 401.9 719.183 387.76 742.489 378.113C765.795 368.466 790.774 363.5 816 363.5L816 281.229C779.963 281.229 744.278 288.323 710.984 302.104C677.69 315.886 647.439 336.086 621.957 361.551C596.475 387.017 576.261 417.248 562.47 450.52C548.679 483.792 541.256 518.474 541.256 554.488V554.978C541.256 659.652 541.256 598.216 541.256 598.216C516.03 598.216 491.214 593.238 467.908 583.59C444.602 573.943 423.426 559.803 405.588 541.977C387.751 524.152 373.601 502.99 363.948 479.699C354.294 456.409 349.326 431.446 349.326 406.237C349.326 381.028 354.294 356.065 363.948 332.775C373.601 309.484 387.751 288.322 405.588 270.497C423.426 252.671 444.602 238.531 467.908 228.884C491.214 219.236 516.193 214.271 541.419 214.271L541.419 132C505.381 132 469.697 139.093 436.403 152.875C403.109 166.657 372.858 186.857 347.375 212.322C321.893 237.787 301.68 268.019 287.889 301.291C274.098 334.563 267 370.224 267 406.237C267 442.25 274.098 477.911 287.889 511.183C301.68 544.455 321.893 574.687 347.375 600.152C372.857 625.617 403.109 645.817 436.403 659.599Z" fill="#007936"/>
</g>
<path d="M245.287 933.43C248.754 933.43 251.571 932.823 253.737 931.61C255.991 930.397 257.637 928.49 258.677 925.89C259.804 923.377 260.367 920.17 260.367 916.27V911.2C257.247 914.233 254.171 916.227 251.137 917.18C248.104 918.133 243.987 918.61 238.787 918.61C229.254 918.61 221.324 915.403 214.997 908.99C208.671 902.577 205.507 894.343 205.507 884.29C205.507 873.803 208.714 864.963 215.127 857.77C221.627 850.49 229.644 846.59 239.177 846.07C242.817 845.897 246.457 846.07 250.097 846.59C253.824 847.023 257.637 848.063 261.537 849.71C265.524 851.357 269.034 853.523 272.067 856.21C275.101 858.81 277.614 862.407 279.607 867C281.687 871.593 282.814 876.837 282.987 882.73L283.117 916.79C282.944 927.883 279.304 936.81 272.197 943.57C265.177 950.417 256.164 953.84 245.157 953.84C236.317 953.84 228.691 951.673 222.277 947.34C215.864 943.093 211.531 938.023 209.277 932.13L229.947 923.55C230.987 925.89 232.157 927.753 233.457 929.14C234.757 930.613 236.361 931.697 238.267 932.39C240.174 933.083 242.514 933.43 245.287 933.43ZM244.767 900.67C249.707 900.67 253.781 899.023 256.987 895.73C260.194 892.35 261.797 888.103 261.797 882.99C261.797 879.61 261.061 876.577 259.587 873.89C258.201 871.203 256.207 869.123 253.607 867.65C251.007 866.09 248.061 865.31 244.767 865.31C239.827 865.31 235.754 867 232.547 870.38C229.341 873.673 227.737 877.877 227.737 882.99C227.737 886.37 228.474 889.403 229.947 892.09C231.421 894.777 233.457 896.9 236.057 898.46C238.657 899.933 241.561 900.67 244.767 900.67ZM290.542 919L290.152 881.17C290.238 876.577 290.845 872.503 291.972 868.95C293.098 865.31 294.442 862.363 296.002 860.11C297.648 857.77 299.728 855.82 302.242 854.26C304.755 852.7 307.138 851.573 309.392 850.88C311.645 850.1 314.288 849.537 317.322 849.19C320.442 848.843 322.955 848.713 324.862 848.8C326.855 848.8 329.238 848.843 332.012 848.93C334.785 849.017 336.605 849.06 337.472 849.06V869.73C332.532 869.643 328.415 869.817 325.122 870.25C321.915 870.597 319.315 871.073 317.322 871.68C315.415 872.287 313.985 873.283 313.032 874.67C312.078 875.97 311.428 877.313 311.082 878.7C310.822 880.087 310.692 881.993 310.692 884.42V919H290.542ZM419.837 885.46V918.22H399.427V911.33C398.127 913.583 395.18 915.577 390.587 917.31C385.993 919.043 381.313 919.91 376.547 919.91C366.927 919.91 358.91 916.617 352.497 910.03C346.083 903.357 342.877 894.733 342.877 884.16C342.877 877.14 344.61 870.727 348.077 864.92C351.543 859.113 356.05 854.607 361.597 851.4C367.23 848.193 373.167 846.59 379.407 846.59C382.18 846.59 384.65 846.72 386.817 846.98C389.07 847.153 391.583 847.543 394.357 848.15C397.217 848.757 399.73 849.623 401.897 850.75C404.15 851.79 406.403 853.307 408.657 855.3C410.91 857.293 412.773 859.633 414.247 862.32C415.807 864.92 417.107 868.213 418.147 872.2C419.187 876.1 419.75 880.52 419.837 885.46ZM381.877 901.58C384.477 901.58 386.86 901.147 389.027 900.28C391.193 899.413 393.057 898.2 394.617 896.64C396.177 895.08 397.39 893.217 398.257 891.05C399.123 888.797 399.557 886.413 399.557 883.9C399.557 881.387 399.123 879.047 398.257 876.88C397.39 874.713 396.177 872.85 394.617 871.29C393.057 869.73 391.193 868.517 389.027 867.65C386.86 866.697 384.477 866.22 381.877 866.22C376.763 866.22 372.517 867.91 369.137 871.29C365.843 874.583 364.197 878.787 364.197 883.9C364.197 886.413 364.63 888.797 365.497 891.05C366.45 893.217 367.663 895.08 369.137 896.64C370.697 898.2 372.56 899.413 374.727 900.28C376.98 901.147 379.363 901.58 381.877 901.58ZM427.264 919L427.394 883.25C427.394 878.83 427.827 874.757 428.694 871.03C429.561 867.303 430.731 864.183 432.204 861.67C433.677 859.157 435.411 856.947 437.404 855.04C439.484 853.133 441.521 851.66 443.514 850.62C445.507 849.58 447.631 848.713 449.884 848.02C452.137 847.327 454.044 846.893 455.604 846.72C457.251 846.547 458.811 846.46 460.284 846.46C470.077 846.46 478.007 849.19 484.074 854.65C490.141 860.11 493.174 867.087 493.174 875.58V919H472.764V879.35C472.764 875.19 471.681 871.983 469.514 869.73C467.434 867.477 464.487 866.35 460.674 866.35C458.767 866.35 456.991 866.653 455.344 867.26C453.784 867.78 452.397 868.603 451.184 869.73C449.971 870.857 449.017 872.287 448.324 874.02C447.717 875.753 447.414 877.703 447.414 879.87V919H427.264ZM540.816 899.11C545.843 899.11 549.959 897.55 553.166 894.43C556.459 891.31 558.106 887.41 558.106 882.73C558.106 877.963 556.459 874.02 553.166 870.9C549.959 867.78 545.843 866.22 540.816 866.22C535.789 866.22 531.629 867.78 528.336 870.9C525.043 874.02 523.396 877.963 523.396 882.73C523.396 887.41 525.043 891.31 528.336 894.43C531.629 897.55 535.789 899.11 540.816 899.11ZM501.296 883.77C501.209 877.443 502.596 871.507 505.456 865.96C508.403 860.413 512.606 855.95 518.066 852.57C523.526 849.103 529.593 847.457 536.266 847.63C541.379 847.803 545.973 848.8 550.046 850.62C554.206 852.44 557.196 855.083 559.016 858.55L559.406 821.89H580.596L580.726 883.77C580.466 889.923 578.993 895.427 576.306 900.28C573.706 905.047 570.326 908.86 566.166 911.72C562.093 914.58 557.543 916.747 552.516 918.22C547.489 919.607 542.203 920.213 536.656 920.04C527.469 919.693 519.366 916.097 512.346 909.25C505.153 902.057 501.469 893.563 501.296 883.77ZM590.073 848.8H611.003V919H590.073V848.8ZM600.473 842.3C598.653 842.3 596.963 841.997 595.403 841.39C593.843 840.783 592.499 839.96 591.373 838.92C590.246 837.793 589.379 836.493 588.773 835.02C588.166 833.46 587.863 831.77 587.863 829.95C587.863 826.397 589.033 823.493 591.373 821.24C593.713 818.987 596.746 817.86 600.473 817.86C601.946 817.86 603.333 818.077 604.633 818.51C605.933 818.857 607.103 819.42 608.143 820.2C609.183 820.893 610.093 821.717 610.873 822.67C611.653 823.623 612.216 824.75 612.563 826.05C612.996 827.263 613.213 828.563 613.213 829.95C613.213 833.59 611.999 836.58 609.573 838.92C607.233 841.173 604.199 842.3 600.473 842.3ZM678.809 897.42C678.462 904.44 675.256 910.073 669.189 914.32C663.209 918.48 655.626 920.343 646.439 919.91C641.499 919.563 637.079 918.74 633.179 917.44C629.279 916.053 626.246 914.493 624.079 912.76C621.999 911.027 620.309 909.337 619.009 907.69C617.709 905.957 616.799 904.527 616.279 903.4C615.846 902.187 615.672 901.58 615.759 901.58L635.779 893.13L635.909 893.78C635.909 894.3 636.126 894.907 636.559 895.6C636.992 896.293 637.556 897.03 638.249 897.81C638.942 898.503 640.026 899.153 641.499 899.76C642.972 900.28 644.706 900.627 646.699 900.8C647.392 900.887 648.259 900.93 649.299 900.93C650.426 900.843 651.509 900.757 652.549 900.67C653.589 900.497 654.499 900.107 655.279 899.5C656.059 898.893 656.449 898.113 656.449 897.16C656.449 896.467 656.276 895.86 655.929 895.34C655.669 894.82 655.322 894.387 654.889 894.04C654.542 893.693 653.849 893.39 652.809 893.13C651.856 892.87 650.989 892.697 650.209 892.61C649.516 892.523 648.346 892.35 646.699 892.09C645.659 891.917 644.879 891.83 644.359 891.83C640.199 891.05 636.689 890.227 633.829 889.36C631.056 888.407 628.369 887.107 625.769 885.46C623.169 883.727 621.262 881.473 620.049 878.7C618.922 875.927 618.446 872.59 618.619 868.69C618.792 864.357 620.179 860.543 622.779 857.25C625.466 853.957 629.019 851.443 633.439 849.71C637.859 847.977 642.756 847.283 648.129 847.63C649.776 847.717 651.292 847.847 652.679 848.02C654.152 848.193 655.539 848.41 656.839 848.67C658.139 848.843 659.352 849.103 660.479 849.45C661.606 849.797 662.689 850.187 663.729 850.62C664.769 850.967 665.722 851.357 666.589 851.79C667.542 852.223 668.409 852.743 669.189 853.35C670.056 853.87 670.836 854.433 671.529 855.04C672.222 855.647 672.872 856.297 673.479 856.99C674.172 857.683 674.779 858.377 675.299 859.07C675.906 859.763 676.512 860.543 677.119 861.41L657.619 871.68C657.706 871.68 657.662 871.507 657.489 871.16C657.402 870.813 657.142 870.423 656.709 869.99C656.362 869.557 655.842 869.123 655.149 868.69C654.542 868.17 653.632 867.737 652.419 867.39C651.292 866.957 649.949 866.697 648.389 866.61C642.842 866.35 640.026 867.39 639.939 869.73C639.939 870.597 640.112 871.29 640.459 871.81C640.892 872.33 641.586 872.763 642.539 873.11C643.492 873.457 644.359 873.76 645.139 874.02C646.006 874.193 647.349 874.453 649.169 874.8C649.602 874.887 649.906 874.93 650.079 874.93C653.892 875.623 657.186 876.36 659.959 877.14C672.959 880.953 679.242 887.713 678.809 897.42ZM766.994 884.16C766.82 890.487 765.217 896.423 762.184 901.97C759.237 907.517 755.12 911.98 749.834 915.36C744.634 918.74 738.914 920.43 732.674 920.43C729.38 920.43 726.044 920.127 722.664 919.52C719.37 919 716.294 918.133 713.434 916.92C710.66 915.62 708.84 914.147 707.974 912.5V946.3H686.784L686.914 886.63C687.174 883.337 687.694 880.173 688.474 877.14C693.414 857.813 707.497 848.063 730.724 847.89C736.964 847.803 742.944 849.58 748.664 853.22C754.384 856.773 758.89 861.367 762.184 867C765.477 872.633 767.08 878.353 766.994 884.16ZM728.384 900.67C733.757 900.67 738.177 899.067 741.644 895.86C745.11 892.567 746.844 888.45 746.844 883.51C746.844 878.483 745.11 874.367 741.644 871.16C738.177 867.867 733.8 866.22 728.514 866.22C724.96 866.22 721.797 867 719.024 868.56C716.25 870.033 714.084 872.07 712.524 874.67C710.964 877.27 710.184 880.217 710.184 883.51C710.184 888.45 711.874 892.567 715.254 895.86C718.72 899.067 723.097 900.67 728.384 900.67ZM774.251 822.15H795.051L794.791 918.87H774.251V822.15ZM849.743 926.67C849.569 927.19 849.093 927.493 848.313 927.58C847.533 927.753 846.493 927.623 845.193 927.19C843.979 926.757 842.636 926.107 841.163 925.24C839.776 924.46 838.259 923.377 836.613 921.99C834.966 920.69 833.406 919.217 831.933 917.57L801.643 849.32H824.393L841.553 889.62L855.073 849.71L875.353 849.97L849.743 926.67ZM844.023 882.34L863.913 883.9L841.293 952.15L819.583 952.41L844.023 882.34Z" fill="#007936"/>
<defs>
<clipPath id="clip0_40_18">
<rect width="612.822" height="620" fill="white" transform="translate(267 132)"/>
</clipPath>
</defs>
</svg>
