<svg width="512" height="512" viewBox="0 0 512 512" fill="none" xmlns="http://www.w3.org/2000/svg">
<g clip-path="url(#clip0_4675_260)">
<rect width="512" height="512" rx="100" fill="#155DFC"/>
<path fill-rule="evenodd" clip-rule="evenodd" d="M149.029 450.032V256.103C144.746 247.528 141.714 228.003 163.858 218.505V115.604C158.915 111.646 149.029 101.554 149.029 92.8471V61.1853C150.018 59.5362 153.181 57.2275 157.927 61.1853V92.8471C157.927 97.1346 170.778 112.636 222.184 140.34V78.995C223.173 77.346 226.138 75.0373 230.093 78.995V146.276C264.693 167.054 273.59 183.875 275.567 279.85C277.874 278.86 282.882 273.715 284.464 261.05V70.0902C286.441 65.143 294.548 56.436 311.156 61.1853V312.501C337.817 308.053 382.333 309.532 411.002 330.311C411.662 330.789 420.701 336.945 422.865 344.163C425.83 354.057 424.842 356.036 424.842 359.004C422.865 393.634 422.865 436.18 359.596 453H217.241C213.616 450.032 207.62 440.994 217.241 436.18C242.944 423.317 253.818 362.962 220.207 336.247L196.481 312.501V381.761C194.833 384.07 190.55 387.302 186.595 381.761V299.638C178.028 294.691 160.299 283.214 157.927 276.881V450.032C156.609 451.351 152.984 453.198 149.029 450.032ZM200.435 288.754C142.703 256.301 151.995 234.995 163.858 228.399C166.824 261.05 184.618 264.019 240.967 297.659C274.096 312.894 304.082 332.592 319.001 344.946C320.553 346.231 324.976 350.127 326.909 350.882C329.875 352.041 334.001 351.838 335.806 351.872C372.321 352.551 375.367 360.04 374.425 360.983C373.634 361.774 367.504 363.292 364.539 363.951C354.653 364.941 338.836 365.93 321.041 363.951C308.19 359.993 303.005 359.217 294.35 349.11C288.419 342.184 281.169 331.96 272.601 327.342L200.435 288.754ZM318.076 381.761C265.088 371.471 263.704 353.067 269.636 345.152C275.962 343.569 282.158 349.11 284.464 352.078C293.955 364.743 314.78 370.547 324.007 371.867C324.007 371.867 333.032 372.832 338.836 372.856C345.025 372.882 354.653 371.867 354.653 371.867C445.602 363.951 388.265 320.416 336.859 329.321C313.133 328.53 316.428 323.055 321.041 320.416C346.799 317.25 360.772 319.097 364.539 320.416C451.533 340.205 408.036 379.782 371.459 381.761C371.459 381.761 355.22 383.74 344.767 383.74C334.315 383.74 318.076 381.761 318.076 381.761ZM267.658 371.867C281.169 382.091 322.623 399.769 380.356 388.687C389.253 463.884 277.94 466.852 267.658 371.867ZM240.967 184.864C240.967 163.097 190.55 146.276 172.755 128.467V166.065C186.2 184.271 220.536 205.972 236.024 214.547C244.723 220.879 237.672 223.122 233.058 223.452C202.215 208.413 180.005 187.503 172.755 178.928V199.706C209.333 241.262 219.218 228.399 255.796 258.082V218.505C253.818 190.801 204.39 184.864 183.63 161.118C179.675 151.619 186.595 154.522 190.55 157.16C208.739 170.616 231.74 181.236 240.967 184.864ZM255.796 269.955C230.093 245.219 190.55 238.293 172.755 212.568V231.367C172.755 252.739 233.058 279.85 255.796 294.691V269.955Z" fill="white"/>
<ellipse cx="191.5" cy="403" rx="5.5" ry="5" fill="white"/>
</g>
<defs>
<clipPath id="clip0_4675_260">
<rect width="512" height="512" rx="100" fill="white"/>
</clipPath>
</defs>
</svg>
