<svg width="168" height="143" viewBox="0 0 168 143" fill="none" xmlns="http://www.w3.org/2000/svg">
<path d="M6.00001 56L114 0.499995L128.9 22.83L129.27 23.87L159 75.62L104 113.5L53.55 136L38.92 113.87L38.7 112.65L6.00001 56Z" fill="#FDFDFD"/>
<path d="M78.0763 0.273112C65.908 0.844162 58.571 2.68146 52.4738 6.60434C50.4904 7.8954 46.873 11.3217 44.8654 13.8294C42.3856 16.8833 35.794 27.2118 27.416 41.0164L24.7392 45.4358L12.3962 45.4855L0.0290222 45.56L19.2871 79.1527C29.8697 97.625 38.6195 112.696 38.718 112.671C38.8166 112.621 47.5422 97.5008 58.1248 79.0782L77.3085 45.56L64.4451 45.4855L51.5816 45.4358L55.2008 39.6508C60.1826 31.7306 62.0898 28.9002 63.5528 27.336C67.3691 23.3138 71.7561 22.8669 107.893 22.8421H128.911L113.644 0L97.905 0.0496559C89.2556 0.0496559 80.333 0.173801 78.0763 0.273112Z" fill="#5B54BA"/>
<path d="M109.752 57.1551L90.4936 90.7478L103.283 90.8223C115.131 90.872 116.048 90.8968 115.899 91.294C115.676 91.8651 110.967 99.3881 107.919 104.031C104.026 109.965 102.812 111.132 99.2936 112.199C95.0293 113.515 94.1129 113.54 65.5102 113.639C50.8882 113.689 38.917 113.788 38.917 113.863C38.917 113.913 42.3373 119.102 46.5254 125.383L54.1096 136.804H67.8896C90.7911 136.78 98.9701 136.233 106.158 134.173C112.702 132.31 118.031 128.71 122.517 123.149C125.193 119.797 131.984 109.245 140.014 95.8873L143.063 90.872H155.332C165.717 90.872 167.576 90.8223 167.478 90.5243C167.229 89.9285 129.58 24.2327 129.283 23.8851C129.06 23.6616 124.723 31.0356 109.752 57.1551Z" fill="#5B54BA"/>
</svg>
