<svg width="1024" height="1024" viewBox="0 0 1024 1024" fill="none" xmlns="http://www.w3.org/2000/svg">
<rect width="1024" height="1024" rx="100" fill="url(#paint0_linear_47_4)"/>
<path d="M301 489.5C296.167 488.333 287.4 496.1 291 536.5L290.3 543.5M716.5 618C704.5 684 658.167 712.5 636.5 718.5C615.973 722.899 594.565 725.931 573.5 727.945M716.5 618C719.999 594.947 724.553 556.477 724.794 527.5M716.5 618C737.7 618 747.667 601.667 750 593.5C752.8 575.9 760.167 569.167 763.5 568C788.3 531.2 781.167 507.667 774.5 500.5C763.3 489.7 736.696 514 724.794 527.5M719 490.5C723.437 495.243 724.943 509.55 724.794 527.5M290.3 543.5L288.5 561.5C292.427 579.252 295.121 601.298 301 623.513M290.3 543.5C277.533 525 248.6 494.4 235 520C232.667 533 232.4 564.8 250 588C267.6 611.2 259.333 597.667 253 588C258.667 592.833 270.6 605.6 273 618C280.333 624.842 296.2 635.523 301 623.513M301 623.513C313.833 672.003 341.845 721.299 431 728.5C443.258 729.754 462.003 730.946 484.5 731.299M461.5 598C469 632 552.5 652 572.5 598M484.5 731.299L481.5 767L477.5 769.714M484.5 731.299C510.55 731.708 541.632 730.991 573.5 727.945M453.5 790.5V786L477.5 769.714M453.5 790.5C380 815.5 351.5 811 339.5 914.5M453.5 790.5L481.5 814.5C485.167 816.5 494.2 819.3 501 814.5C507.8 809.7 504.833 812.5 502.5 814.5C506.333 807.333 515.7 794.1 522.5 798.5M573.5 727.945C573.5 739.63 574.7 763.1 579.5 763.5C584.3 763.9 582.167 764.333 580.5 764.5M580.5 764.5L611 786M580.5 764.5C567.5 801.5 481.5 795 477.5 769.714M611 786C682 804 682 805.5 703.5 873C704.833 878.833 708.6 890.6 713 891M611 786C570.2 817.6 548.5 828.5 542 822C536 800.8 526.5 797.5 522.5 798.5M522.5 798.5C524.167 839.167 526.5 921.8 522.5 927" stroke="black" stroke-width="20"/>
<path d="M684.5 434.5V442M684.5 442H705.5C721.667 427 743.7 395.9 702.5 391.5M684.5 442C695.5 510.5 765 471 772 424C780.4 394.8 757.5 356.833 745 341.5C729.4 319.1 703.5 321.167 692.5 325M702.5 391.5C668 410.167 594.4 437 576 395M702.5 391.5C727.7 361.5 706.333 334.667 692.5 325M702.5 391.5C680.5 416.833 616.9 456.4 538.5 412M576 395C569.333 382.667 563.4 349.8 593 317C600.167 309.167 615.6 294.3 620 297.5M576 395C591.167 387.5 622 364.6 624 333M576 395C555.2 410.145 542.333 412.644 538.5 412M620 297.5C613.2 262.3 586.167 253.5 573.5 253.5C557.9 249.9 541.667 255 535.5 258M620 297.5C623.6 313.1 624.167 327.667 624 333M620 297.5C625.629 296.712 633.673 296.445 642.552 297.5M692.5 325C648.1 351 639 412.5 640 440M692.5 325C680.58 306.722 659.961 299.569 642.552 297.5M538.5 412C523.197 402.174 492.918 379.395 490.183 364.518M538.5 412C534.939 413.333 524.053 415.6 509 414M535.5 258C520.195 271.775 509.533 285.712 502.265 298.859M535.5 258C540.48 264.916 547.316 272.948 554.675 281M535.5 258C538.7 258 551.167 247.889 557 242.834M535.5 258C528 258.833 507.8 266.4 487 290M535.5 258C516.5 240.167 467.3 219.8 422.5 281M502.265 298.859C486.741 326.943 486.708 351.421 490 363C490.027 363.496 490.089 364.002 490.183 364.518M502.265 298.859C513.46 303.239 539.615 305.8 554.675 281M554.675 281C568.597 296.234 584.386 311.54 593 319.5C603.4 329.424 618 332.635 624 333M554.675 281C560.866 268.76 571.997 252.602 587.5 237.969M624 333C671.6 345.8 718.833 307 736.5 286C756.307 235.2 722.086 209.833 702.5 203.5C653.286 192.395 614.004 212.953 587.5 237.969M642.552 297.5C658.868 285.675 683.4 257.82 651 241C632.667 242.646 594.3 244.345 587.5 237.969M587.5 237.969C575.833 235.98 558.1 223.2 580.5 188C585.167 186.5 593.4 187.9 589 205.5C584.6 223.1 587.167 214.5 589 208C586.227 217.295 576.041 236.731 557 242.834M498 208C519.2 248.8 544.617 248.667 554.675 243.5C555.464 243.3 556.239 243.078 557 242.834M498 208C491.5 196.167 470.1 179.6 436.5 208C430.083 214.712 421.727 224.394 416 233.104M498 208C462.8 220.4 428.667 243.5 416 253.5C405.743 253.5 408.786 244.074 416 233.104M498 208C519.5 202.723 561.4 202.301 557 242.834M487 290C466 277.333 422.1 253.5 414.5 259.5C399.333 262 374.8 278.5 398 324.5C399.667 330.167 414.1 344 458.5 354C467.456 355.845 486.33 360.532 490.183 364.518M487 290C462.132 314.583 411.701 361.217 382.5 378.149M490.183 364.518C502.789 368.512 524.2 384 509 414M509 414C454.063 402.8 455.11 342 462.5 313C450.1 271.786 426.333 242.563 416 233.104M509 414C504.227 421.08 493.78 431.404 477.682 440M404.5 455.5C394 453.667 379.3 442.8 404.5 414M404.5 455.5C435.651 456.754 460.055 449.413 477.682 440M404.5 455.5C462.5 469.5 481.5 455.5 477.682 440M404.5 455.5C372.1 458.286 350.333 456.661 343.5 455.5M404.5 414C425.167 382.389 457.7 311.533 422.5 281M404.5 414C386.5 411.6 382.333 389.099 382.5 378.149M404.5 414C406.333 415.167 410.9 418.9 414.5 424.5M422.5 281C399.167 280 347 283.5 325 305.5C320.667 303.667 317.5 295.8 339.5 279C355.167 256.902 392.4 216.786 416 233.104M422.5 281C407.667 301.433 378.9 349.468 382.5 378.149M369.5 384C389.5 263 272 327.5 276.5 364.518C273.773 387.629 280.576 399.283 292 403.786M369.5 384C363.262 387.714 355.949 391.57 348.207 395M369.5 384C358.433 436.233 337.034 450.649 319.5 446.662M369.5 384C373.038 383.116 377.451 381.076 382.5 378.149M348.207 395C360.276 382.161 377.173 357.286 348.207 360.5C330.638 360.524 294.8 369.215 292 403.786M348.207 395C328.758 403.616 306.603 409.544 292 403.786M348.207 395C311.573 431 313.805 444.442 319.5 446.662M292 403.786C290.397 423.58 303.298 442.978 319.5 446.662M319.5 446.662C323.167 446.275 333.1 447.5 343.5 455.5M319.5 446.662C329.992 446.662 341.311 444.798 351 442.536M414.5 424.5C432.455 421.667 470.227 420.8 477.682 440M414.5 424.5C408.667 425.113 391.9 428.37 371.5 436.5C367.222 438.11 359.78 440.486 351 442.536M343.5 455.5C347.385 453.19 354.324 447.364 351 442.536M343.5 455.5C343.167 455 337.9 455.4 319.5 461M319.5 461C304.7 461 273.333 434.667 259.5 421.5C228.3 389.9 234.167 418.333 241 436.5C247.34 443.192 253.534 448.524 259.5 452.727M319.5 461C332.5 465.167 351.1 478.6 321.5 499C300 508.435 257.5 512.389 259.5 452.727M319.5 461C310.3 467.317 287.41 472.389 259.5 452.727" stroke="black" stroke-width="20"/>
<path d="M347.026 561.728C346.319 561.728 344.405 561.527 341.436 560.39C339.413 559.615 338.918 558.385 338.209 557.651C337.66 557.081 337.247 555.403 336.689 552.927C335.639 548.26 336.886 546.727 337.166 545.814C337.475 544.807 338.103 543.634 338.383 543.025C338.672 542.396 339.116 541.709 339.725 540.922C340.286 540.197 341.141 539.428 342.106 538.565C342.412 538.292 342.817 538.158 343.749 537.754C345.653 536.929 348.08 536.788 350.003 536.888C352.616 537.025 353.663 538.002 354.349 538.383C355.198 538.856 355.691 539.522 356.629 540.889C356.919 541.312 357.162 542.355 357.542 545.053C357.8 546.884 357.671 549.708 357.646 551.231C357.614 553.214 357.319 554.118 356.938 554.882C356.448 555.865 355.898 557.315 355.014 558.656C354.518 559.408 353.672 560 352.303 561.04C351.471 561.672 350.63 561.928 349.565 562.158C348.909 562.184 348.346 562.234 347.716 562.31C347.286 562.336 346.634 562.336 345.658 562.032" stroke="black" stroke-width="2" stroke-linecap="round"/>
<path d="M674.157 555.083C672.992 555.083 670.827 554.897 669.819 554.545C667.777 553.831 667.256 553.44 666.435 552.972C665.407 552.385 664.579 551.282 663.548 550.064C661.969 548.2 662.229 547.244 662.065 546.211C661.908 545.232 661.9 542.614 662.017 540.692C662.075 539.726 662.274 538.979 662.463 538.226C662.731 537.152 663.072 536.116 663.425 535.36C663.687 534.798 663.965 534.234 664.457 533.786C665.108 533.194 666.028 532.732 666.828 532.353C667.63 531.974 668.516 531.602 669.806 531.437C672.723 531.064 673.588 531.647 674.412 531.881C675.751 532.262 676.643 532.96 677.723 533.969C678.321 534.528 678.711 535.073 679.227 535.614C679.676 536.084 680.072 536.716 680.519 537.352C681.026 538.071 681.388 538.737 681.671 539.488C682.034 540.453 682.281 541.084 682.446 541.859C682.628 542.713 682.611 545.618 682.471 547.355C682.413 548.074 681.954 548.599 681.743 549.163C681.496 549.824 681.016 550.431 680.64 551.018C680.138 551.802 679.373 552.544 678.903 553.108C678.306 553.824 677.542 554.283 676.977 554.659C676.413 555.035 675.99 555.317 675.477 555.458C675.103 555.506 674.498 555.506 673.735 555.365" stroke="black" stroke-width="2" stroke-linecap="round"/>
<path d="M543.626 856.11C542.498 856.11 540.219 855.828 539.365 855.154C538.288 854.302 538.228 853.13 537.517 852.064C536.855 851.071 536.877 849.932 536.91 847.592C536.923 846.614 537.866 845.882 538.716 845.137C540.047 843.971 543.246 844.172 545.504 844.667C547.25 845.049 547.39 847.578 547.64 849.172C548.229 852.936 547.109 853.974 546.542 854.863C545.546 855.824 544.274 856.391 543.097 856.713C542.777 856.749 542.355 856.749 541.92 856.536" stroke="black" stroke-width="2" stroke-linecap="round"/>
<path d="M543.839 894.481C543.698 894.481 543.415 894.481 542.989 894.411C541.978 894.243 541.426 892.852 540.856 891.926C540.339 891.084 540.074 890.222 539.825 889.368C539.583 888.542 539.575 887.664 539.823 886.456C540.107 885.066 541.703 883.826 543.898 882.901C545.726 882.131 547.247 882.897 547.673 883.216C548.579 883.895 548.882 884.884 549.167 885.773C549.764 887.638 549.241 890.426 548.461 891.881C547.617 893.459 546.401 893.91 545.547 894.444C544.694 894.764 543.984 894.978 543.452 895.049C543.201 895.05 542.99 894.98 542.773 894.481" stroke="black" stroke-width="2" stroke-linecap="round"/>
<path d="M338.655 556.562C338.655 556.526 338.655 555.845 338.627 554.642C338.593 553.162 338.451 552.724 338.414 552.232C338.386 551.869 338.321 551.573 338.257 551.149C338.017 549.572 337.895 549.291 337.866 549.04C337.824 548.66 337.857 548.178 337.903 547.816C337.948 547.469 338.208 546.827 338.495 546.104C338.758 545.441 339.19 544.73 339.765 543.785C340.479 542.608 340.936 541.739 341.056 541.545C341.391 541.005 341.53 540.645 341.734 540.275C342.027 539.741 342.271 539.495 342.494 539.263C342.719 539.028 343.234 538.735 344.199 538.409C344.541 538.294 344.813 538.306 345.34 538.26C346.173 538.187 346.78 538.232 347.176 538.205C348.139 538.137 348.858 538.213 349.107 538.241C349.893 538.329 350.119 538.306 350.481 538.399C351.226 538.589 352.457 538.992 352.772 539.233C353.015 539.418 353.236 539.604 353.45 539.762C353.662 539.918 353.848 540.105 354.237 540.475C354.629 540.847 354.795 541.125 355.027 541.459C355.323 541.886 355.37 542.182 355.519 542.581C355.659 542.958 355.723 543.332 355.751 543.648C355.776 543.93 355.834 544.186 355.826 545.804C355.822 546.561 355.686 546.988 355.677 547.21C355.642 548.06 355.594 549.214 355.566 549.677C355.536 550.161 355.446 550.937 355.399 551.366C355.384 551.498 355.352 552.067 355.325 553.003C355.291 554.162 355.037 554.52 354.816 555.193C354.653 555.69 354.301 556.472 354.058 556.98C353.707 557.711 353.13 558.284 352.5 558.896C352.032 559.349 351.662 559.567 351.161 559.91C350.876 560.106 350.586 560.198 350.326 560.291C350.02 560.401 349.567 560.403 348.78 560.449C347.578 560.52 346.634 560.44 346.375 560.412C346.022 560.374 345.651 560.347 345.196 560.255C344.873 560.189 344.06 559.978 343.443 559.8C343.259 559.748 342.814 559.588 342.065 559.218C341.18 558.782 340.696 558.326 340.512 558.159C339.993 557.692 339.602 557.379 339.444 557.129C339.268 556.851 339.175 556.379 339.063 555.933C338.995 555.66 338.989 555.064 338.943 554.109C338.881 552.832 338.951 551.906 338.979 551.666C339.02 551.318 339.117 550.3 339.312 549.029C339.397 548.478 339.525 547.609 339.766 546.385C339.922 545.592 340.211 544.714 340.407 543.995C340.63 543.179 341.01 542.539 341.26 542.13C341.613 541.553 342.103 540.685 342.429 540.164C342.909 539.394 343.254 539.069 343.607 538.762C343.992 538.427 344.718 538.289 346.015 538.287C347.118 538.286 347.429 538.585 348.28 538.797C348.912 538.955 349.301 539.159 349.674 539.298C349.819 539.353 350.669 539.694 351.866 540.223C352.508 540.507 352.735 540.754 352.958 540.94C353.231 541.167 353.459 541.459 353.811 541.839C354.051 542.099 354.312 542.608 354.498 543.054C354.775 543.716 354.906 544.129 355.11 544.52C355.176 544.646 355.259 544.836 355.508 545.912C355.725 546.851 355.959 548.623 356.11 549.559C356.261 550.495 356.28 550.55 356.289 551.102C356.299 551.654 356.299 552.701 356.289 553.295C356.275 554.225 356.206 554.594 356.141 554.882C356.085 555.131 355.873 555.429 355.613 555.634C355.213 555.949 354.411 556.355 353.703 556.765C353.438 556.919 353.183 557.025 352.694 557.311C352.32 557.53 351.673 557.873 351.204 558.153C350.443 558.609 350.048 558.918 349.807 559.066C349.592 559.198 349.233 559.418 348.613 559.668C348.275 559.805 347.865 559.9 348.842 559.02C349.818 558.14 352.188 556.266 353.436 555.274C354.744 554.233 354.851 554.151 354.898 554.123C355.196 553.945 353.89 554.501 352.893 555.036C352.194 555.412 351.089 555.976 350.347 556.379C349.242 556.98 348.841 557.285 348.794 557.314C348.77 557.328 348.876 557.177 349.639 556.404C350.403 555.631 351.854 554.198 351.315 554.736C350.777 555.275 348.206 557.828 347.781 558.105C347.356 558.383 349.156 556.307 349.202 556.092C349.248 555.877 347.484 557.585 346.539 558.511C345.594 559.437 345.521 559.529 345.501 559.549C345.482 559.568 345.519 559.513 347.071 557.979C348.624 556.444 351.691 553.432 353.629 551.632C355.568 549.833 356.284 549.337 356.727 549.045C357.169 548.752 357.316 548.679 357.419 548.632C357.522 548.585 357.578 548.566 357.422 548.869C357.267 549.172 356.9 549.796 356.563 550.293C356.227 550.789 355.933 551.138 355.516 551.556C354.593 552.481 353.943 553.036 353.786 553.221C353.621 553.416 353.442 553.63 353.129 554.072C352.531 554.917 351.885 555.54 351.524 555.8C351.181 555.986 350.919 556.061 350.743 556.071C350.659 556.08 350.586 556.098 350.51 556.117" stroke="black" stroke-width="2" stroke-linecap="round"/>
<path d="M347.449 559.234C347.375 559.234 346.493 559.234 344.9 559.142C344.148 559.099 343.528 558.867 342.986 558.662C342.444 558.457 342.003 558.237 341.492 557.893C340.98 557.55 340.41 557.091 339.998 556.735C339.017 555.89 338.952 555.672 338.952 555.589C338.951 555.543 339.098 555.56 339.742 555.818C340.387 556.075 341.562 556.589 343.316 557.543C345.07 558.496 347.365 559.874 348.622 560.611C350.011 561.427 350.286 561.515 350.38 561.599C350.404 561.621 350.216 561.627 349.672 561.471C349.128 561.315 348.191 561.003 346.772 560.282C345.353 559.561 343.479 558.44 342.23 557.633C340.98 556.827 340.41 556.368 339.998 555.984C339.309 555.344 339.063 554.949 339.035 554.865C339.013 554.799 339.321 554.892 340.453 555.426C341.429 555.885 343.183 556.804 343.614 556.799C344.045 556.794 343.09 555.858 342.304 555.026C341.518 554.195 340.93 553.497 340.655 553.146C340.38 552.796 340.435 552.814 340.546 552.879C340.657 552.943 340.822 553.054 342.23 554.341C343.637 555.628 346.282 558.09 347.599 559.339C348.915 560.589 348.824 560.552 347.527 559.486C346.231 558.42 343.733 556.326 342.52 555.312C341.306 554.298 341.453 554.426 341.759 554.832C342.557 555.893 343.088 556.82 343.145 557.089C343.16 557.164 342.944 557.083 341.885 555.98C340.827 554.877 338.88 552.746 337.941 551.676C337.002 550.606 337.131 550.661 338.226 551.379C339.321 552.096 341.378 553.473 342.41 554.091C343.442 554.709 343.387 554.525 343.083 553.843C342.779 553.16 342.228 551.985 342.964 552.72C343.699 553.455 345.738 556.137 346.733 557.473C347.728 558.808 347.618 558.716 346.037 557.071C344.456 555.426 341.407 552.23 339.753 550.51C338.1 548.79 337.935 548.643 338.952 549.569C339.968 550.494 342.172 552.496 343.326 553.555C344.48 554.614 344.517 554.669 344.508 554.642C344.5 554.615 344.444 554.505 343.718 553.328C342.992 552.151 341.596 549.91 340.831 548.645C340.066 547.381 339.974 547.161 341.479 548.774C342.983 550.386 346.087 553.84 347.732 555.683C349.377 557.526 349.469 557.654 347.781 555.673C346.093 553.691 342.621 549.595 342.431 549.212C342.24 548.828 345.436 552.281 345.806 552.141C346.176 552 343.623 548.161 343.952 548.259C344.28 548.357 347.568 552.508 349.179 554.591C350.79 556.675 350.625 556.565 348.455 554.331C346.285 552.098 342.116 547.745 341.437 547.238C340.759 546.731 343.698 550.203 344.587 551.238C345.476 552.273 344.227 550.767 343.253 549.477C342.279 548.187 341.618 547.158 341.323 546.628C341.029 546.099 341.121 546.099 341.893 546.695C342.666 547.292 344.117 548.486 345.241 549.505C346.365 550.525 347.118 551.333 347.589 551.859C348.243 552.591 348.487 552.925 348.599 553.064C348.635 553.11 347.827 552.616 346.696 551.809C346.064 551.358 345.651 551.22 345.107 551.127C343.536 550.86 342.962 550.794 342.562 550.414C342.336 550.2 342.255 549.719 342.116 549.127C342.042 548.813 341.995 548.462 341.958 547.612C341.92 546.761 341.902 545.421 341.92 544.51C341.947 543.156 342.087 542.612 342.28 542.234C342.68 541.453 343.125 540.813 343.347 540.516C343.721 540.018 344.274 539.495 344.988 539.17C345.915 538.748 347.039 539.067 347.29 539.095C347.58 539.127 348.095 539.215 348.662 539.4C349.405 539.643 349.748 540.086 350.1 540.383C350.565 540.773 350.824 541.033 351.084 541.32C351.246 541.499 351.51 541.792 351.981 542.484C352.306 542.961 352.728 543.745 353.01 544.308C353.644 545.573 353.627 545.875 353.83 546.698C354.04 547.547 353.998 548.118 354.007 548.971C354.014 549.517 353.739 550.029 353.397 550.549C353.113 550.98 352.591 551.402 351.834 552.049C351.343 552.468 350.599 553.026 350.147 553.347C349.307 553.943 348.474 554.149 347.785 554.317C347.674 554.344 347.617 554.336 347.653 554.318C347.807 554.239 348.262 554.17 348.937 554.003C349.729 553.809 350.304 553.41 350.665 553.105C351.025 552.8 351.325 552.39 351.594 551.937C351.857 551.491 351.975 550.944 352.096 550.241C352.264 549.258 352.125 548.383 351.986 547.847C351.918 547.581 351.792 547.346 351.469 546.792C351.146 546.237 350.614 545.374 350.201 544.635C349.473 543.331 349.157 542.593 349.018 542.362C348.678 541.797 348.304 541.184 348.053 540.932C347.832 540.711 347.488 540.7 347.006 540.653C345.731 540.531 345.095 540.866 344.705 541.079C344.169 541.372 344.092 541.922 343.758 542.774C343.559 543.284 343.608 543.888 343.618 544.416C343.625 544.816 343.738 545.187 343.913 545.604C344.104 546.057 344.607 546.688 345.53 547.695C346.093 548.309 346.968 549.015 347.734 549.586C348.5 550.158 349.161 550.543 349.584 550.779C350.165 551.102 350.655 551.219 351.275 551.302C352.281 551.437 352.734 551.165 353.171 550.877C353.39 550.733 353.533 550.497 353.672 550.256C353.824 549.995 353.886 549.185 353.914 548C353.927 547.457 353.851 547.035 353.593 546.211C353.335 545.387 352.876 544.175 352.529 543.358C352.009 542.133 351.606 541.629 351.356 541.397C351.143 541.199 350.864 541.071 350.439 540.896C349.143 540.36 348.415 540.551 347.752 540.809C347.221 541.014 346.354 541.507 345.725 541.872C344.723 542.454 344.259 542.906 344.009 543.22C343.747 543.55 343.536 544.22 343.332 545.044C343.18 545.655 343.237 546.207 343.375 546.909C343.578 547.942 344.126 548.749 344.533 549.276C344.977 549.852 345.572 550.345 346.192 550.798C346.824 551.261 347.63 551.515 348.417 551.746C349.139 551.959 349.894 551.998 350.68 551.971C351.489 551.942 352.195 551.666 352.76 551.287C353.336 550.9 353.754 550.202 354.181 549.462C354.616 548.706 354.647 547.791 354.629 546.94C354.62 546.51 354.501 546.089 354.334 545.641C354.167 545.194 353.929 544.735 353.64 544.287C353.352 543.839 353.021 543.417 352.686 543.034C352.35 542.651 352.02 542.32 351.565 541.939C350.567 541.102 349.715 540.626 349.234 540.506C348.763 540.388 348.268 540.477 347.786 540.624C347.28 540.78 346.802 541.162 346.293 541.559C345.767 541.97 345.373 542.515 345.03 543.052C344.685 543.592 344.537 544.277 344.407 545.008C344.269 545.787 344.331 546.651 344.488 547.539C344.568 547.991 344.737 548.427 344.941 548.856C345.351 549.716 345.925 550.4 346.452 550.928C346.93 551.406 347.576 551.589 348.14 551.747C348.641 551.886 349.135 551.795 349.616 551.546C350.159 551.264 350.49 550.592 350.749 549.834C350.887 549.432 350.935 548.965 350.982 548.462C351.029 547.959 351.048 547.427 351.002 546.895C350.956 546.363 350.846 545.849 350.688 545.401C350.393 544.559 349.863 543.949 349.327 543.458C348.796 542.973 348.157 542.705 347.445 542.51C346.519 542.257 345.707 542.369 345.245 542.526C344.777 542.684 344.427 543.146 344.084 543.618C343.731 544.104 343.591 544.815 343.479 545.601C343.366 546.399 343.552 547.189 343.847 547.921C344.162 548.698 344.83 549.213 345.376 549.593C345.856 549.927 346.518 549.976 347.221 549.985C347.934 549.995 348.614 549.497 349.271 548.859C349.621 548.519 349.91 548.056 350.2 547.553C350.489 547.05 350.746 546.499 350.943 545.94C351.14 545.381 351.268 544.83 351.353 544.325C351.51 543.386 351.457 542.595 351.3 541.984C351.161 541.443 350.698 541.146 350.245 540.952C349.728 540.73 349.066 540.737 348.428 540.737C347.84 540.736 347.266 540.995 346.702 541.291C346.144 541.583 345.744 542.181 345.364 542.847C344.965 543.548 344.852 544.369 344.824 545.174C344.809 545.593 344.888 546.034 345.017 546.5C345.146 546.966 345.348 547.443 345.627 547.919C345.905 548.394 346.254 548.854 346.655 549.283C347.055 549.712 347.496 550.098 347.971 550.416C348.446 550.734 348.942 550.973 349.418 551.142C350.316 551.461 351.211 551.442 352.016 551.258C352.783 551.082 353.346 550.406 353.837 549.722C354.087 549.372 354.199 548.927 354.293 548.452C354.387 547.978 354.424 547.463 354.369 546.904C354.315 546.346 354.168 545.758 353.918 545.17C353.668 544.583 353.319 544.014 352.918 543.5C352.518 542.986 352.077 542.545 351.602 542.208C351.127 541.871 350.631 541.65 350.146 541.509C349.661 541.368 349.202 541.313 348.626 541.404C348.049 541.495 347.37 541.734 346.891 542.004C346.413 542.274 346.155 542.568 345.894 542.939C345.633 543.311 345.376 543.752 345.198 544.209C345.019 544.665 344.928 545.125 344.862 545.6C344.731 546.549 344.74 547.43 344.805 548.171C344.863 548.846 345.129 549.399 345.406 549.815C345.642 550.17 346.111 550.272 346.592 550.328C347.145 550.393 347.724 549.997 348.261 549.47C348.549 549.188 348.761 548.778 348.967 548.313C349.173 547.848 349.338 547.315 349.441 546.738C349.545 546.16 349.582 545.554 349.564 545.022C349.531 544.044 349.232 543.3 348.862 542.772C348.519 542.283 347.879 542.166 347.296 542.147C346.724 542.128 346.208 542.479 345.755 542.858C345.281 543.254 345.038 543.906 344.825 544.563C344.602 545.25 344.758 546.021 345.007 546.761C345.272 547.549 345.943 548.192 346.637 548.757C347.309 549.304 348.187 549.456 348.992 549.53C349.779 549.603 350.544 549.125 351.238 548.524C351.597 548.214 351.84 547.758 352.074 547.265C352.308 546.772 352.492 546.221 352.623 545.625C352.754 545.029 352.828 544.404 352.856 543.844C352.909 542.807 352.682 541.983 352.294 541.363C351.909 540.747 351.145 540.478 350.386 540.348C349.6 540.213 348.77 540.679 347.983 541.151C347.582 541.391 347.252 541.751 346.944 542.114C346.336 542.829 345.985 543.701 345.771 544.607C345.554 545.533 345.704 546.484 345.963 547.344C346.222 548.208 346.963 548.823 347.712 549.305C348.474 549.794 349.467 549.79 350.364 549.763C351.221 549.737 351.917 549.181 352.454 548.497C352.729 548.147 352.881 547.703 353.003 547.228C353.125 546.753 353.181 546.239 353.163 545.735C353.129 544.748 352.702 543.894 352.11 543.237C351.814 542.908 351.372 542.745 350.916 542.613C350.459 542.481 349.964 542.426 349.433 542.453C348.902 542.48 348.351 542.59 347.819 542.775C347.287 542.961 346.791 543.218 346.37 543.497C345.583 544.02 345.058 544.759 344.65 545.554C344.242 546.353 344.165 547.153 344.193 547.801C344.219 548.417 344.497 548.953 344.84 549.379C345.14 549.753 345.592 549.864 346.026 549.865C346.262 549.865 346.516 549.719 346.869 549.304C347.222 548.889 347.663 548.172 347.945 547.601C348.41 546.659 348.469 545.824 348.469 545.102C348.47 544.765 348.396 544.49 348.276 544.284C348.156 544.078 347.972 543.949 347.74 543.874C347.248 543.714 346.654 543.889 346.062 544.24C345.376 544.647 344.947 545.519 344.557 546.416C344.357 546.879 344.279 547.405 344.231 547.955C344.183 548.505 344.202 549.074 344.303 549.615C344.404 550.157 344.588 550.653 344.848 551.092C345.357 551.952 346.11 552.479 346.776 552.803C347.097 552.96 347.442 552.962 347.787 552.889C348.511 552.736 349.079 552.003 349.505 551.023C349.733 550.499 349.821 549.859 349.924 549.161C350.027 548.462 350.1 547.709 350.12 547.046C350.156 545.832 349.955 544.951 349.705 544.387C349.588 544.123 349.4 543.95 349.223 543.828C349.046 543.706 348.863 543.651 348.649 543.659C348.189 543.677 347.748 543.982 347.359 544.352C346.949 544.742 346.726 545.335 346.532 545.918C346.182 546.966 346.409 547.655 346.585 547.943C346.743 548.2 347.095 548.25 347.419 548.26C347.815 548.272 348.208 547.771 348.569 547.188C348.934 546.6 349.007 545.953 349.09 545.462C349.163 545.032 349.1 544.69 349.036 544.467C349.007 544.367 348.916 544.319 348.796 544.327C348.499 544.347 348.137 544.705 347.758 545.186C347.36 545.69 347.19 546.374 347.042 547.04C346.759 548.312 347.059 549.102 347.197 549.399C347.263 549.54 347.391 549.622 347.512 549.66C347.633 549.698 347.762 549.68 347.901 549.578C348.229 549.341 348.486 548.682 348.746 547.849C348.989 547.068 349.007 546.251 348.98 545.611C348.97 545.374 348.897 545.32 348.795 545.366C348.508 545.493 348.267 545.948 348.026 546.447C347.822 546.984 347.69 547.506 347.635 547.987C347.616 548.23 347.616 548.468 347.616 548.715" stroke="black" stroke-width="2" stroke-linecap="round"/>
<path d="M663.174 543.74C663.174 543.681 663.174 542.206 663.248 539.766C663.313 537.621 663.859 537.308 664.23 536.757C664.764 535.966 665.258 535.163 665.822 534.643C666.715 533.819 667.194 533.465 667.626 533.122C667.967 532.851 668.473 532.779 669.233 532.66C669.878 532.558 670.409 532.421 671.792 532.421C672.634 532.42 673.091 532.718 673.776 532.986C674.33 533.203 674.759 533.344 675.162 533.552C675.687 533.823 676.189 534.355 676.681 534.728C677.221 535.137 677.56 535.517 677.858 535.89C678.235 536.36 678.543 536.768 678.871 537.2C679.145 537.561 679.377 538.019 679.616 538.451C679.835 538.848 680.003 539.27 680.152 539.732C680.327 540.269 680.391 540.7 680.643 541.592C680.992 542.821 681.463 544.75 681.567 545.672C681.692 546.771 681.316 547.37 680.944 548.027C680.603 548.627 680.214 548.921 679.516 549.798C678.477 551.103 678.01 551.364 677.741 551.766C677.38 552.305 676.582 553.12 676.133 553.48C675.81 553.739 675.418 553.867 675.046 554.016C674.284 554.322 672.859 553.988 672.172 553.675C671.421 553.333 670.33 552.741 669.61 552.216C669.068 551.821 668.479 551.575 667.868 551.277C667.372 551.036 666.691 550.919 666.155 550.8C666.034 550.773 665.946 550.741 666.166 550.991C667.887 552.95 669.339 553.808 669.399 553.853C669.562 553.975 668.158 552.981 666.728 551.894C665.839 551.219 665.499 550.653 665.201 550.161C664.83 549.549 664.545 549.104 664.203 548.523C663.976 548.137 663.771 547.586 663.547 547.122C663.294 546.597 663.115 545.799 663.07 545.127C663.055 544.9 662.995 543.898 663.069 542.174C663.169 539.831 663.739 539.099 663.992 538.47C664.369 537.536 665.047 536.655 665.585 536.131C666.378 535.358 666.806 535.074 667.268 534.805C667.778 534.508 668.945 533.765 669.859 533.39C670.811 532.998 672.375 533.403 672.972 533.567C673.543 533.724 674.4 534.236 675.16 534.831C676.431 535.825 676.696 536.589 677.024 537.17C677.289 537.639 677.738 537.989 678.348 538.629C678.902 539.21 679.257 539.687 679.482 540.193C679.76 540.823 679.944 541.265 680.063 541.832C680.211 542.535 680.094 543.619 679.975 544.304C679.89 544.789 679.736 545.375 679.617 545.838C679.469 546.413 679.438 546.895 679.275 547.417C679.097 547.986 679.022 548.533 678.873 549.011C678.705 549.548 678.337 549.904 677.935 550.396C677.519 550.905 676.228 551.511 674.648 551.99C673.84 552.235 673.158 552.14 672.559 552.214C672.112 552.27 671.784 552.348 671.649 552.349C671.426 552.35 672.817 551.55 674.687 550.052C675.785 549.173 677.088 547.935 677.875 547.179C679.331 545.781 679.735 545.172 680.062 544.976C680.14 544.93 680.24 545.079 680.257 545.272C680.341 546.285 679.767 547.102 678.683 549.406C678.354 550.105 677.951 550.676 677.638 551.14C677.484 551.367 677.947 550.089 678.421 548.918C678.713 548.198 679.014 547.186 679.108 546.743C679.17 546.449 677.929 547.986 676.395 550.204C675.438 551.588 675.268 551.961 675.208 552.021C675.189 552.041 675.267 551.845 675.725 551.003C676.183 550.16 677.038 548.626 677.449 547.91C677.86 547.194 677.801 547.341 677.166 548.405C676.531 549.469 675.322 551.445 674.699 552.404C674.076 553.363 674.076 553.245 675.02 551.444C675.964 549.643 677.851 546.164 678.779 544.4C679.707 542.637 679.619 542.696 678.29 543.951C676.962 545.205 674.396 547.652 672.942 549.061C671.487 550.469 671.222 550.764 671.115 550.872C671.008 550.979 671.067 550.891 672.321 549.474C673.575 548.057 676.023 545.315 677.372 543.828C678.721 542.342 678.898 542.194 678.945 542.192C678.992 542.19 678.904 542.337 677.914 543.607C676.925 544.878 675.038 547.266 673.992 548.571C672.946 549.875 672.798 550.022 672.796 549.995C672.794 549.968 672.941 549.761 673.784 548.815C674.627 547.868 676.16 546.187 676.817 545.557C677.475 544.927 677.209 545.399 676.439 546.467C675.668 547.536 674.4 549.188 673.673 550.112C672.946 551.037 672.798 551.184 672.767 551.142C672.735 551.1 672.823 550.864 673.547 549.681C674.271 548.498 675.628 546.374 676.017 545.664C676.131 545.456 674.264 547.366 672.865 548.706C672.354 549.195 672.232 549.279 672.171 549.265C672.11 549.252 672.11 549.134 673.083 547.422C674.057 545.71 676.003 542.407 677.3 540.322C678.598 538.237 679.188 537.47 679.551 537.016C679.913 536.563 680.031 536.445 678.19 538.772C676.349 541.1 672.545 545.878 670.526 548.383C668.507 550.888 668.389 550.977 669.243 550.005C670.096 549.033 671.924 546.998 673.353 545.552C674.781 544.106 675.754 543.309 676.418 542.796C677.082 542.283 677.406 542.076 677.499 542.132C677.593 542.188 677.445 542.512 676.455 543.874C675.465 545.235 673.637 547.624 672.945 548.427C672.254 549.23 672.755 548.374 673.884 546.799C675.012 545.223 676.752 542.952 677.619 541.871C678.485 540.789 678.426 540.966 677.408 542.606C676.39 544.245 674.414 547.341 673.293 549.054C672.172 550.768 671.966 551.003 672.759 549.827C673.552 548.651 675.351 546.056 676.675 544.277C678 542.498 678.796 541.613 677.88 542.735C676.963 543.857 674.309 547.013 672.809 548.756C671.079 550.767 670.652 551.126 670.503 551.158C670.014 551.262 671.328 548.966 671.708 547.781C671.823 547.425 669.876 549.457 670.164 548.434C670.451 547.411 672.545 543.754 672.444 543.257C672.343 542.759 669.983 545.531 670.582 544.615C671.18 543.698 674.807 539.009 676.809 536.461C678.81 533.913 679.075 533.648 677.059 536.224C675.043 538.8 670.738 544.226 668.8 546.579C666.862 548.932 667.422 548.047 668.728 546.412C670.034 544.777 672.069 542.418 673.412 540.937C675.287 538.871 676.071 538.319 676.205 538.363C676.304 538.395 676.133 538.73 675.896 539.236C675.659 539.741 675.276 540.478 674.002 542.333C672.728 544.187 670.575 547.136 670.719 547.254C670.864 547.373 673.37 544.571 673.128 544.971C672.886 545.371 669.819 549.057 668.239 550.868C666.659 552.678 666.659 552.501 667.485 550.803C668.311 549.105 669.962 545.89 671.019 543.954C672.076 542.018 672.489 541.458 671.655 542.452C670.821 543.446 668.727 546.012 667.589 547.392C666.452 548.773 666.334 548.891 667.453 547.197C668.572 545.503 670.931 541.994 672.382 539.936C673.833 537.877 674.305 537.376 674.489 537.265C674.673 537.154 674.555 537.449 672.696 540.152C670.836 542.855 667.238 547.956 665.459 550.422C663.679 552.888 663.826 552.564 664.758 551.114C665.689 549.664 667.399 547.098 668.56 545.467C669.722 543.836 670.282 543.216 670.851 542.676C671.936 541.646 672.705 541.208 672.913 541.296C673.804 541.672 671.789 543.495 670.418 544.689C669.156 545.788 667.737 545.854 666.974 545.663C666.648 545.581 666.63 545.023 666.629 544.518C666.628 543.246 668.143 542.137 669.306 541.478C670.072 541.044 670.501 541.357 670.664 541.46C670.754 541.517 670.798 541.653 670.755 541.861C670.645 542.388 670.147 543.022 669.435 543.838C668.465 544.951 667.437 545.615 666.842 545.927C666.28 546.223 665.679 546.272 665.174 546.302C664.727 546.328 664.338 546.124 664.025 545.842C663.704 545.552 663.681 545.053 663.636 544.637C663.592 544.223 663.709 543.831 663.947 543.489C664.216 543.101 664.75 542.937 665.211 542.803C665.627 542.682 666.002 542.816 666.285 543.009C667.017 543.508 666.749 544.807 666.556 545.837C666.41 546.618 665.826 546.837 665.589 546.927C665.473 546.97 665.351 546.957 665.246 546.869C664.62 546.341 664.724 544.82 664.945 543.521C665.049 542.908 665.763 542.61 666.298 542.372C666.799 542.149 667.312 542.309 667.699 542.517C668.071 542.717 668.237 543.142 668.341 543.573C668.451 544.026 668.387 544.424 668.239 544.706C668.087 544.996 667.733 545.14 667.392 545.229C667.229 545.271 667.079 545.259 666.9 545.2C665.977 544.896 665.678 543.211 665.616 541.913C665.591 541.385 665.913 541.031 666.21 540.837C666.351 540.746 666.507 540.732 666.672 540.805C667.058 540.978 667.313 541.68 667.522 542.601C667.74 543.568 667.732 544.599 667.687 545.565C667.647 546.451 667.257 547.251 666.856 547.832C666.698 548.06 666.484 548.029 666.349 547.941C666.058 547.751 665.886 546.756 665.678 545.477C665.538 544.621 665.794 544.011 666.076 543.535C666.339 543.092 666.895 542.966 667.341 542.892C667.549 542.857 667.728 542.905 667.893 542.98C668.058 543.054 668.205 543.172 668.311 543.365C668.828 544.314 668.359 545.729 667.719 546.834C667.419 547.353 666.9 547.582 666.469 547.716C666.027 547.853 665.5 547.643 664.995 547.317C664.43 546.953 664.218 546.156 664.024 545.414C663.821 544.632 664.036 543.833 664.407 543.135C664.804 542.387 665.613 541.925 666.371 541.568C667.064 541.241 667.788 541.297 668.368 541.49C668.89 541.663 669.071 542.367 669.205 543.035C669.343 543.721 668.897 544.805 668.228 545.996C667.775 546.801 667.168 547.046 666.752 547.194C666.546 547.268 666.336 547.284 666.156 547.24C665.976 547.197 665.828 547.079 665.708 546.841C665.425 546.281 665.497 544.823 665.749 542.964C665.931 541.617 666.686 540.765 667.31 540.052C668.406 538.797 669.457 538.825 669.829 538.884C670.002 538.912 670.112 539.061 670.188 539.24C670.561 540.123 669.998 541.44 669.239 542.441C668.893 542.899 668.241 542.995 667.647 543.04C667.045 543.086 666.454 542.581 665.889 541.987C665.287 541.355 665.022 540.409 664.843 539.473C664.673 538.58 664.901 537.727 665.212 537.013C665.513 536.324 666.534 535.967 667.546 535.729C667.961 535.631 668.203 535.726 668.413 535.904C668.88 536.299 669.071 537.152 669.19 538.118C669.312 539.105 669.014 540.101 668.673 541.037C668.025 542.813 666.872 543.588 666.14 543.874C665.986 543.934 665.828 543.86 665.708 543.741C665.433 543.47 665.379 542.732 665.393 541.722C665.409 540.583 665.883 539.427 666.343 538.371C667.155 536.508 668.65 535.76 669.397 535.578C669.546 535.542 669.665 535.696 669.756 535.889C669.972 536.351 669.966 537.034 669.892 537.762C669.727 539.39 668.184 540.4 667.214 540.924C667.005 541.037 666.783 541.029 666.617 540.985C666.452 540.941 666.334 540.823 666.244 540.615C666.035 540.134 666.063 539.425 666.196 538.652C666.336 537.842 666.984 537.19 667.667 536.64C668.951 535.606 670.171 535.906 670.692 536.024C670.928 536.078 671.065 536.26 671.185 536.469C671.443 536.918 671.426 537.6 671.204 538.432C670.935 539.438 670.059 540.399 669.153 541.365C668.276 542.3 667.024 543.051 665.834 543.647C665.362 543.883 665.115 543.888 664.935 543.845C664.754 543.801 664.636 543.683 664.546 543.46C664.333 542.934 664.365 542.077 664.513 541.008C664.682 539.789 665.434 538.593 666.236 537.478C666.992 536.427 668.025 535.76 668.946 535.254C669.755 534.81 670.499 534.804 670.99 534.848C671.411 534.886 671.692 535.249 671.886 535.65C672.103 536.1 671.903 536.766 671.606 537.494C671.28 538.294 670.595 539 669.867 539.684C669.151 540.356 668.331 540.789 667.588 541.087C666.932 541.35 666.334 541.239 665.918 540.987C665.491 540.729 665.439 540.049 665.408 539.381C665.37 538.554 665.971 537.727 666.654 536.999C667.387 536.217 668.501 535.878 669.482 535.595C671.122 535.122 672.078 535.637 672.48 535.919C672.848 536.177 672.825 536.738 672.796 537.228C672.733 538.269 671.905 538.941 671.323 539.256C671.198 539.324 671.07 539.331 670.965 539.302C670.86 539.273 670.772 539.184 670.726 539.036C670.621 538.693 670.739 538.202 670.932 537.653C671.154 537.019 671.809 536.504 672.478 536.043C673.107 535.609 674.012 535.579 674.786 535.578C675.089 535.578 675.206 535.696 675.281 535.815C675.357 535.934 675.386 536.082 675.343 536.276C675.241 536.724 674.676 537.302 673.844 537.986C672.966 538.708 671.464 539.239 669.946 539.745C669.098 540.028 668.686 539.957 668.522 539.824C667.893 539.314 669.603 537.73 670.736 536.669C671.17 536.262 671.662 536.234 671.989 536.248C672.139 536.255 672.257 536.293 672.332 536.396C672.509 536.638 672.438 537.125 672.32 537.674C672.038 538.98 670.271 539.774 668.853 540.209C668.297 540.38 667.823 540.167 667.54 539.915C667.225 539.634 667.433 538.918 667.64 538.19C668.18 536.295 670.053 535.609 670.366 535.504C670.495 535.461 670.589 535.547 670.561 535.696C670.482 536.111 669.437 537.178 668.143 538.548C667.65 539.068 667.467 539.209 667.332 539.3C667.196 539.391 667.108 539.42 667.077 539.273C666.98 538.812 667.312 538.114 667.787 537.401C668.302 536.629 669.127 536.028 669.915 535.508C671.048 534.759 671.692 534.864 671.886 534.863C671.966 534.863 671.991 534.981 671.962 535.085C671.894 535.328 671.576 535.547 671.219 535.756C670.886 535.951 670.533 535.966 670.265 535.892C670.129 535.854 670.057 535.671 670.041 535.521C670.009 535.223 670.262 534.954 670.515 534.731C671.03 534.276 671.839 534.357 672.451 534.475C672.738 534.531 672.914 534.803 673.077 535.026C673.168 535.149 673.211 535.336 673.212 535.531C673.213 535.725 673.154 535.932 672.504 537.026C671.855 538.12 670.616 540.096 669.536 541.674C668.455 543.252 667.571 544.373 666.997 545.053C665.759 546.522 664.876 547.844 664.59 548.549C664.422 548.963 664.336 549.545 664.247 549.994C664.168 550.392 664.068 550.916 664.112 551.335C664.133 551.526 663.978 551.722 663.949 551.856C663.879 552.175 663.503 551.248 663.339 550.89C663.156 550.492 662.847 550.176 662.654 549.818C662.466 549.472 662.37 548.927 662.281 548.463C662.238 548.237 662.191 547.588 662.191 546.961C662.191 545.978 662.725 548.891 663.069 549.428C663.328 549.832 663.649 550.172 663.962 550.53C664.24 550.848 664.305 551.245 664.351 551.677C664.392 552.071 664.663 552.406 664.989 552.72C665.471 553.181 665.853 553.271 666.285 553.465C666.682 553.643 667.163 553.808 667.64 553.927C668.118 554.046 668.534 554.165 669.01 554.225C669.657 554.306 670.289 554.582 670.946 554.716C671.475 554.825 672.135 554.821 672.645 554.91C673.017 554.975 673.389 555.089 673.746 555.045C674.282 554.978 674.462 554.169 675.101 551.795C675.348 550.877 675.59 549.692 675.963 548.376C676.335 547.061 676.807 545.645 677.109 544.665C677.786 542.469 677.71 541.481 677.755 540.63C677.794 539.897 677.947 538.95 678.097 538.157C678.127 538.022 678.157 537.933 678.172 537.519C678.187 537.105 678.187 536.368 678.187 535.608" stroke="black" stroke-width="2" stroke-linecap="round"/>
<path d="M505.04 815.952C504.063 816.931 501.691 818.907 500.901 819.304C500.714 819.398 500.507 819.436 500.504 819.372C500.461 818.446 502.207 817.668 503.392 816.384C503.662 816.091 503.852 815.826 504.018 815.562C504.184 815.298 504.314 815.037 503.86 815.098C503.407 815.16 502.365 815.55 501.292 815.952" stroke="black" stroke-width="2" stroke-linecap="round"/>
<path d="M495.967 816.741C496.622 816.611 498.061 816.086 500.561 815.1C500.883 814.973 500.704 815.29 499.139 816.66C497.574 818.031 494.645 820.505 493.201 821.649C491.758 822.793 491.888 822.532 493.126 820.478C494.365 818.424 496.708 814.583 497.785 812.638C498.862 810.692 498.602 810.757 498.338 810.921C497.764 811.276 497.024 812.004 496.365 812.563C495.066 813.665 501.282 810.039 502.924 809.447C503.579 809.212 503.915 809.246 503.042 810.157C502.168 811.069 500.085 812.891 499.696 813.309C498.905 814.157 502.276 811.418 502.475 811.285C503.561 810.555 500.702 813.254 500.276 813.779C500.055 814.051 499.785 814.303 500.269 814.177C500.754 814.051 501.99 813.53 502.627 813.392C503.265 813.254 503.265 813.514 503.004 814.104C502.744 814.694 502.223 815.605 502.053 816.14C501.882 816.674 502.077 816.804 502.308 816.871C503.539 817.229 504.906 816.544 505.235 816.739C506.277 817.357 504.712 818.514 504.645 818.745C504.404 819.576 505.894 817.927 506.09 817.566C506.456 816.892 502.547 819.96 501.69 820.487C500.71 821.089 499.521 821.605 498.306 821.836C496.975 822.089 495.908 822.197 494.755 822.46C494.132 822.591 493.602 822.724 492.85 822.822C492.294 822.856 491.383 822.856 490.05 822.658" stroke="black" stroke-width="2" stroke-linecap="round"/>
<path d="M543.972 854.955C543.491 854.955 542.519 854.881 541.978 854.602C541.272 854.237 540.616 853.502 540.205 852.998C539.561 852.208 539.235 851.711 538.954 851.169C538.704 850.686 538.525 850.143 538.376 849.509C538.186 848.705 538.485 847.495 538.84 846.952C539.111 846.54 539.79 846.485 540.369 846.206C540.999 845.902 541.619 845.516 542.476 845.254C543.585 844.914 544.156 845.549 544.735 845.979C545.29 846.391 546.095 847.669 546.416 848.479C546.644 849.053 546.547 850.356 546.454 851.24C546.405 851.708 546.101 852.228 545.17 853.16C544.619 853.712 544.086 853.909 543.638 854.263C543.166 854.635 542.557 854.917 541.904 855.048C541.449 855.139 541.026 855.03 540.747 854.955C540.15 854.796 539.683 853.988 539.402 853.408C539.15 852.887 539.047 852.27 538.861 850.931C538.614 849.152 539.083 848.614 539.289 848.128C539.515 847.594 540.2 847.047 540.91 846.598C541.151 846.445 541.433 846.41 541.768 846.354C542.172 846.287 542.59 846.446 542.944 846.725C543.664 847.293 543.672 848.086 544.027 849.408C544.208 850.084 544.196 850.699 544.289 851.553C544.345 852.07 544.308 852.996 544.234 853.49C544.16 853.984 544.013 854.021 543.863 854.04C543.196 854.125 542.298 853.799 541.419 853.148C540.498 852.465 540.28 850.452 540.203 848.282C540.188 847.866 540.314 847.609 540.407 847.457C540.501 847.306 540.612 847.269 540.743 847.287C541.033 847.326 541.248 847.565 541.396 847.844C541.593 848.212 541.621 848.61 541.566 848.908C541.537 849.065 541.4 849.205 541.287 849.281C541.175 849.358 541.064 849.358 541.007 849.302C540.95 849.247 540.95 849.136 540.987 849.19C541.589 850.066 541.546 851.371 541.602 851.392C542.881 851.852 541.919 848.427 542.031 847.962C542.115 847.615 542.291 848.932 542.645 851.226C542.771 852.044 542.815 852.154 543.019 851.491C543.222 850.827 543.592 849.387 543.819 848.737C544.046 848.087 544.12 848.272 544.195 848.939C544.398 850.747 544.457 852.154 544.531 852.545C544.72 853.534 545.092 848.613 545.11 848.407C545.123 848.27 545.425 850.533 545.761 853.461C545.885 854.541 545.875 854.8 545.894 854.989C545.923 855.292 545.987 853.26 545.987 850.549C545.987 849.981 545.987 851.052 545.913 851.53C545.839 852.008 545.692 851.861 545.542 851.637C545.208 851.139 544.833 849.557 544.441 848.337C544.399 848.206 544.308 849.74 544.308 850.02C544.308 850.299 544.308 849.449 544.271 849.141C544.17 848.298 543.639 851.887 543.395 852.621C543.207 853.184 542.781 853.683 542.239 854.634C541.951 855.139 541.81 855.624 541.455 855.943C541.08 856.28 541.955 854.55 542.552 853.393C543.304 851.934 543.448 851.375 543.617 850.722C543.82 849.941 543.934 849.024 544.065 848.576C544.202 848.107 544.27 847.569 544.401 847.102C544.42 846.971 544.42 846.823 544.439 846.692C544.457 846.56 544.494 846.449 544.532 846.335" stroke="black" stroke-width="2" stroke-linecap="round"/>
<path d="M544.176 893.742C544.121 893.742 543.954 893.742 543.674 893.603C542.85 893.194 542.972 892.426 542.747 892.047C542.51 891.647 542.354 891.249 542.172 890.883C542.007 890.551 541.905 890.21 541.808 889.72C541.638 888.867 541.597 888.36 541.596 886.682C541.596 885.941 542.267 885.584 542.731 885.205C543.105 884.899 543.726 884.769 544.245 884.671C544.702 884.584 545.6 884.573 546.278 884.656C546.987 884.744 547.568 885.804 547.709 886.253C547.856 886.721 547.878 887.179 547.948 887.793C548.148 889.551 547.878 889.955 547.78 890.375C547.592 891.187 547.486 891.637 547.095 892.435C546.731 893.176 546.142 893.375 545.692 893.573C545.174 893.802 544.404 893.547 543.94 893.238C543.534 892.969 543.392 892.315 543.308 891.739C543.173 890.827 543.111 890.155 543.111 888.184C543.11 887.144 543.362 886.539 543.503 885.948C543.62 885.457 544.007 884.855 544.385 884.281C544.66 883.864 544.933 883.536 545.101 883.34C545.243 883.174 545.576 883.142 545.954 883.184C546.489 883.243 546.587 883.982 546.756 884.319C546.921 884.649 546.924 885.353 546.98 886.279C547.086 888.015 547.065 890.039 547.023 890.39C546.972 890.813 546.673 891.188 546.365 891.609C546.236 891.786 546 891.863 545.777 891.947C545.668 891.988 545.553 891.975 545.482 891.92C545.329 891.801 545.271 891.361 545.145 890.496C544.772 887.938 545.27 887.35 545.521 886.65C545.585 886.472 545.689 886.369 545.774 886.34C545.858 886.311 545.941 886.366 545.998 886.478C546.367 887.204 546.559 888.493 546.588 889.714C546.609 890.573 546.029 891.048 545.748 891.399C545.569 891.623 545.355 891.779 545.187 891.877C545.03 891.968 544.823 891.948 544.627 891.864C544.445 891.786 544.373 891.389 544.289 890.525C544.028 887.839 544.4 887.434 544.513 887.07C544.625 886.592 544.737 886.201 544.933 885.766C544.989 885.667 545.045 885.584 545.102 885.498" stroke="black" stroke-width="2" stroke-linecap="round"/>
<defs>
<linearGradient id="paint0_linear_47_4" x1="512" y1="0" x2="512" y2="1024" gradientUnits="userSpaceOnUse">
<stop stop-color="#FDF98D"/>
<stop offset="1" stop-color="#FF6060"/>
</linearGradient>
</defs>
</svg>
