<svg width="378" height="378" viewBox="0 0 378 378" fill="none" xmlns="http://www.w3.org/2000/svg">
<path d="M377.165 188.581C377.165 214.037 372.178 238.736 362.343 261.987C352.843 284.444 339.247 304.612 321.932 321.932C304.612 339.247 284.448 352.843 261.991 362.344C238.736 372.179 214.041 377.166 188.585 377.166C163.129 377.166 138.43 372.179 115.178 362.344C92.7213 352.843 72.5532 339.247 55.2339 321.932C37.9184 304.612 24.3226 284.444 14.8218 261.987C4.98668 238.735 0 214.037 0 188.581C0 163.124 4.98668 138.43 14.8218 115.174C24.3222 92.7174 37.9184 72.5493 55.2339 55.2339C72.5532 37.9188 92.7217 24.3183 115.178 14.8217C138.43 4.98663 163.128 0 188.585 0C214.041 0 238.736 4.98663 261.991 14.8217C284.448 24.3183 304.612 37.9184 321.932 55.2339C339.247 72.5489 352.843 92.7174 362.343 115.174C372.178 138.43 377.165 163.124 377.165 188.581Z" fill="#0606FF"/>
<path d="M295.986 115.346C291.664 110.823 285.569 108.008 278.817 108.008H98.3483C91.5964 108.008 85.5052 110.823 81.1797 115.346C77.0968 119.613 74.5906 125.398 74.5906 131.765V245.396C74.5906 251.763 77.0964 257.548 81.1836 261.816C85.5052 266.342 91.5964 269.157 98.3483 269.157H278.817C285.569 269.157 291.66 266.342 295.986 261.82C300.069 257.552 302.575 251.767 302.575 245.395V131.765C302.575 125.398 300.073 119.613 295.986 115.346Z" fill="#EFEFEF"/>
<path d="M295.986 115.346L212.359 188.581L198.274 200.918C192.727 205.775 184.439 205.775 178.892 200.918L164.807 188.581L81.1797 115.346C85.5052 110.823 91.5965 108.008 98.3484 108.008H278.817C285.569 108.008 291.664 110.824 295.986 115.346Z" fill="white"/>
<path d="M295.986 261.82C291.66 266.342 285.569 269.158 278.817 269.158H98.3484C91.5965 269.158 85.5052 266.342 81.1836 261.816L164.806 188.581L178.892 200.918C184.439 205.775 192.726 205.775 198.273 200.918L212.359 188.581L295.986 261.82Z" fill="#DCDEE2"/>
</svg>
