<svg width="315" height="333" viewBox="0 0 315 333" fill="none" xmlns="http://www.w3.org/2000/svg">
<path d="M278.842 159.514L138.436 257.997C127.55 265.63 113.14 255.256 116.928 242.512L130.954 195.314H99.5885C95.8576 195.314 92.8324 192.289 92.8324 188.557C92.8324 186.694 93.5891 185.003 94.8109 183.782C96.0345 182.56 97.723 181.803 99.5885 181.803H150.378C154.109 181.803 157.135 178.778 157.135 175.047C157.135 171.316 154.11 168.293 150.378 168.293H84.0754C80.3445 168.293 77.3213 165.268 77.3213 161.537C77.3213 159.671 78.0761 157.983 79.2998 156.759C80.5214 155.537 82.21 154.781 84.0754 154.781H113.85C117.581 154.781 120.606 151.757 120.606 148.027C120.606 144.296 117.581 141.27 113.85 141.27H84.0754C80.3445 141.27 77.3213 138.245 77.3213 134.514C77.3213 132.649 78.0761 130.96 79.2998 129.739C80.5214 128.515 82.21 127.76 84.0754 127.76H131.447C135.178 127.76 138.203 124.735 138.203 121.004C138.203 117.273 135.178 114.248 131.447 114.248H99.5885C95.8576 114.248 92.8324 111.225 92.8324 107.494C92.8324 105.628 93.5891 103.94 94.8109 102.716C96.0345 101.494 97.723 100.738 99.5885 100.738H130.954L116.928 53.5393C113.14 40.7952 127.55 30.4211 138.437 38.0563L278.842 136.538C286.806 142.125 286.806 153.926 278.842 159.514Z" fill="#00B1FF"/>
<path d="M76.4868 114.248H69.7309C66.0001 114.248 62.9758 111.224 62.9758 107.493C62.9758 103.762 66.0002 100.738 69.7309 100.738H76.4868C80.2177 100.738 83.2419 103.763 83.2419 107.493C83.2421 111.224 80.2177 114.248 76.4868 114.248Z" fill="#00B1FF"/>
<path d="M61.6978 168.293H54.9409C51.2097 168.293 48.1848 165.268 48.1848 161.537C48.1848 157.806 51.2097 154.781 54.9409 154.781H61.6978C65.4291 154.781 68.4539 157.806 68.4539 161.537C68.4539 165.268 65.4292 168.293 61.6978 168.293Z" fill="#00B1FF"/>
<path d="M175.824 297.545C227.479 297.545 269.353 294.58 269.353 290.922C269.353 287.265 227.479 284.299 175.824 284.299C124.169 284.299 82.2942 287.265 82.2942 290.922C82.2942 294.58 124.169 297.545 175.824 297.545Z" fill="#CAD8DD"/>
</svg>
