<svg width="730" height="64" viewBox="0 0 730 64" fill="none" xmlns="http://www.w3.org/2000/svg">
<g clip-path="url(#clip0_53_3)">
<path d="M727.06 36.9509C721.377 33.9915 716.728 29.6139 683.065 24.028C671.548 22.1694 660.058 20.1573 648.537 18.3755C562.507 7.0808 555.021 7.50064 491.55 2.7288C457.552 0.711522 423.467 0.563042 389.423 -0.000158073C365.417 -0.0564781 341.406 0.798562 317.406 1.27984C188.163 6.93744 233.137 3.932 143.086 11.8526C104.285 17.0597 65.5764 23.045 26.8061 28.5131C21.0248 29.747 15.156 30.6482 9.45187 32.2098C3.14031 33.9608 2.90349 33.8891 2.00258 34.7083C-2.11075 37.6677 0.468444 45.02 6.49172 43.6683C23.9901 38.8197 23.1098 39.2805 98.1587 28.4824C100.352 30.7762 101.912 30.213 107.642 30.0747C114.432 29.9109 121.222 29.8034 128.007 29.5013C155.555 27.5506 183.03 24.5758 210.562 22.3589C220.04 21.6933 229.507 20.7614 238.985 19.9525C250.934 19.3586 262.888 18.78 274.841 18.2117C336.763 17.1058 318.837 16.6091 395.641 17.4334C407.698 17.9403 396.45 17.3413 460.363 20.9662C510.099 25.5128 563.799 35.2715 612.448 44.5797C633.489 48.6296 672.511 56.4581 692.918 63.411C694.88 63.9486 697.181 63.2728 698.329 61.5781C699.961 59.6734 699.698 56.6117 697.927 54.8555C696.254 53.2581 693.737 53.0942 691.657 52.2546C682.447 49.2594 668.908 46.0645 658.879 43.7758L672.346 45.4552C684.197 47.0578 696.172 47.4622 708.043 48.9112C713.603 49.4027 721.135 49.8379 725.722 46.6635C726.885 45.875 728.224 45.2555 728.919 43.9653C730.34 41.6152 729.501 38.3026 727.071 36.9611L727.06 36.9509ZM476.405 12.1701C495.782 12.8869 555.68 17.7253 577.637 19.8194C601.292 22.6405 624.943 25.4667 648.557 28.6206C661.041 31.0629 686.72 34.3602 700.924 37.9083C694.813 37.3195 688.686 36.8997 682.571 36.3416C613.864 28.2008 545.219 19.4354 476.405 12.1701Z" fill="url(#paint0_linear_53_3)"/>
</g>
<defs>
<linearGradient id="paint0_linear_53_3" x1="-0.000244141" y1="31.7945" x2="729.611" y2="31.7945" gradientUnits="userSpaceOnUse">
<stop stop-color="#4A0EFF"/>
<stop offset="1" stop-color="#CC00FF"/>
</linearGradient>
<clipPath id="clip0_53_3">
<rect width="730" height="64" fill="white"/>
</clipPath>
</defs>
</svg>
