<svg width="100" height="100" viewBox="0 0 100 100" fill="none" xmlns="http://www.w3.org/2000/svg">
<g clip-path="url(#clip0_57_74)">
<path d="M0 0V84C0 88.2435 1.68571 92.3131 4.68629 95.3137C7.68687 98.3143 11.7565 100 16 100H84C88.2435 100 92.3131 98.3143 95.3137 95.3137C98.3143 92.3131 100 88.2435 100 84V16C100 11.7565 98.3143 7.68687 95.3137 4.68629C92.3131 1.68571 88.2435 0 84 0L0 0ZM59.4 54.5C65.9 54.5 68.9 59 69 65.5H62.3C62.4 64.3 62.1 63 61.7 62C61.3 61.2 60.5 60.9 59.4 60.9C57.5 60.9 56.5 62 56.5 64.4C56.4 66.8 57.7 68.1 59.7 68.9C62.7 70.1 66.4 72 67.7 74.3C68.9 76.1 69.5 78.4 69.5 81.2C69.5 87.9 65.7 92 59.1 92C52.2 92 49.1 87.7 49 80.8H56C56 84.1 57.1 85.7 59.3 85.7C60.4 85.7 61.2 85.4 61.6 84.7C62.4 83.4 62.6 79.8 61.4 78.4C60.1 76.7 57.6 75.9 55.9 75C53.6 73.9 51.9 72.6 50.8 71.1C49.8 69.6 49.3 67.4 49.3 64.7C49.3 58.7 53.2 54.4 59.4 54.5ZM81.9 54.5C88.5 54.5 91.5 59 91.6 65.5H84.9C84.9 64.3 84.7 63 84.2 62C83.8 61.2 83.1 60.9 82 60.9C80 60.9 79 62 79 64.4C79 66.8 80.2 68.1 82.3 68.9C85.2 70.1 89 72 90.3 74.3C91.4 76.1 92 78.4 92 81.2C92.1 87.9 88.3 92 81.7 92C74.7 92 71.6 87.6 71.5 80.8H78.5C78.5 83.9 79.6 85.7 81.8 85.7C82.9 85.7 83.7 85.4 84.1 84.7C85 83.4 85.2 79.8 83.9 78.4C82.7 76.7 80.2 75.9 78.4 75C76.1 73.9 74.4 72.6 73.4 71.1C72.4 69.6 71.9 67.4 71.9 64.7C71.8 58.7 75.7 54.4 81.9 54.5ZM35.9375 54.575C38.9 54.55 41.85 55.4 43.6 57.2C45.4 59 46.4 61.9 46.3 65.5H38.9C39 63.6 38.5 62.2 37.1 61.5C35.8 60.9 33.9 61.3 33.4 62.5C32.9 63.6 32.6 64.9 32.7 66.1V80.7C32.7 83.8 33.8 85.4 35.9 85.4C36.3442 85.4195 36.7864 85.3294 37.1875 85.1376C37.5887 84.9457 37.9364 84.6581 38.2 84.3C38.9 83.3 39 82 38.9 80.8H46.3C46.7 87.6 42.2 92.1 35.6 92C29.2 92 25.2 88.4 25.3 81.7V64.9C25.3 61.5 26.3 58.9 28.2 57.2C30 55.5 32.975 54.6 35.9375 54.575Z" fill="#662F9A"/>
</g>
<defs>
<clipPath id="clip0_57_74">
<rect width="100" height="100" fill="white"/>
</clipPath>
</defs>
</svg>
