<svg width="100" height="100" viewBox="0 0 100 100" fill="none" xmlns="http://www.w3.org/2000/svg">
<path d="M0 83.6833C0.179167 85.8917 0.958333 88.1125 2.99167 91.0917C5.40833 94.6292 9.55833 96.5708 12.5875 93.4542C14.6292 91.35 36.7292 52.7208 47.3792 38.0792C47.6714 37.6606 48.0604 37.3187 48.513 37.0826C48.9657 36.8466 49.4686 36.7233 49.9792 36.7233C50.4897 36.7233 50.9926 36.8466 51.4453 37.0826C51.898 37.3187 52.2869 37.6606 52.5792 38.0792C63.2292 52.7208 85.3292 91.35 87.3708 93.4542C90.4 96.5708 94.55 94.6292 96.9667 91.0917C99.3417 87.6125 100 85.175 100 82.5667C100 80.7917 65.5833 16.7417 62.1167 11.4083C58.7833 6.28334 57.7667 5.16667 52.1292 4.98334H47.8292C42.1917 5.16667 41.175 6.27917 37.8375 11.4083C34.4458 16.6292 1.375 78.1583 0 82.375V83.6833Z" fill="black"/>
</svg>
