<svg width="200" height="200" viewBox="0 0 200 200" fill="none" xmlns="http://www.w3.org/2000/svg">
<path d="M31.5833 84.75C31.2853 84.6543 30.9647 84.6543 30.6667 84.75L29 87H58.3333C58.4986 86.9765 58.6575 86.9202 58.8006 86.8343C58.9437 86.7484 59.0682 86.6347 59.1667 86.5L60.5833 84.3333V83.9166L31.5833 84.75ZM19.3333 92.1667C19.1885 92.1048 19.0325 92.0729 18.875 92.0729C18.7175 92.0729 18.5615 92.1048 18.4167 92.1667L16.75 94.3333V94.75H55.0833C55.2456 94.7592 55.4066 94.7154 55.5418 94.6252C55.6771 94.535 55.7794 94.4034 55.8333 94.25L56.5 92.3333V91.8333L19.3333 92.1667ZM38.3333 100C38.1651 100.013 38.0021 100.064 37.8575 100.151C37.7128 100.238 37.5904 100.358 37.5 100.5L36.4167 102.5V103H54.3333C54.4819 102.982 54.6203 102.915 54.7261 102.809C54.8319 102.704 54.899 102.565 54.9167 102.417V100.5C54.9167 100.5 54.9167 99.9166 54.4167 99.9166L38.3333 100ZM171.583 74.4167C168.198 72.2049 164.403 70.6963 160.423 69.9805C156.443 69.2648 152.36 69.3564 148.417 70.25C143.925 70.8912 139.606 72.4231 135.713 74.7556C131.821 77.0881 128.434 80.1743 125.75 83.8333C123.275 86.9704 121.383 90.5269 120.167 94.3333H94C93.5697 94.3217 93.1464 94.4437 92.7883 94.6825C92.4302 94.9212 92.1548 95.265 92 95.6666C90.8333 97.75 88.9167 102 87.8333 104.5C86.75 107 87.8333 106.917 89.3333 106.917H105C104.358 107.972 103.634 108.976 102.833 109.917C101.199 111.923 99.0753 113.476 96.6672 114.424C94.2591 115.373 91.6474 115.686 89.0833 115.333C86.0134 114.908 83.2035 113.379 81.179 111.033C79.1545 108.686 78.054 105.682 78.0833 102.583C77.9685 99.5035 78.6809 96.4491 80.1464 93.7379C81.6119 91.0267 83.7771 88.7576 86.4167 87.1667C88.5249 85.6273 91.0155 84.6966 93.6166 84.4761C96.2177 84.2557 98.8294 84.754 101.167 85.9167C102.625 86.6615 103.904 87.7134 104.917 89C106 90.25 106.083 90.1666 107.333 89.8333L120.917 86.25C121.917 86.25 122.25 85.5833 121.75 84.9166C119.85 80.2173 116.566 76.2067 112.333 73.4167C109.197 71.3514 105.677 69.94 101.983 69.2671C98.2883 68.5941 94.4962 68.6733 90.8333 69.5C81.7275 71.0061 73.551 75.9597 68 83.3333C65.3312 86.6342 63.3514 90.4368 62.1777 94.5162C61.004 98.5955 60.6602 102.869 61.1667 107.083C61.5011 110.627 62.5885 114.059 64.3562 117.149C66.1239 120.239 68.5311 122.915 71.4167 125C74.5072 127.32 78.0326 128.995 81.7833 129.925C85.534 130.856 89.4335 131.023 93.25 130.417C97.8912 129.866 102.368 128.361 106.398 125.994C110.429 123.628 113.925 120.452 116.667 116.667C117.981 114.86 119.125 112.935 120.083 110.917C121.436 115.991 124.351 120.51 128.417 123.833C133.973 128.492 141 131.031 148.25 131C150.333 131 152.5 131 154.75 130.25C162.118 128.796 168.88 125.167 174.167 119.833C177.794 116.361 180.524 112.058 182.121 107.297C183.718 102.536 184.134 97.4578 183.333 92.5C182.849 88.7999 181.542 85.2553 179.508 82.1262C177.475 78.9971 174.767 76.3628 171.583 74.4167ZM156.75 113.833C154.725 114.92 152.479 115.531 150.183 115.617C147.887 115.704 145.601 115.265 143.5 114.333C140.665 113.045 138.366 110.811 136.997 108.013C135.629 105.216 135.276 102.029 136 99C136.653 95.5199 138.338 92.3164 140.834 89.8051C143.33 87.2939 146.524 85.5907 150 84.9166C151.805 84.4116 153.697 84.2953 155.55 84.5755C157.404 84.8556 159.177 85.5259 160.752 86.5419C162.327 87.5579 163.669 88.8966 164.688 90.4696C165.708 92.0425 166.382 93.8139 166.667 95.6666C166.716 96.5549 166.716 97.4451 166.667 98.3333C166.607 101.581 165.648 104.748 163.898 107.484C162.147 110.22 159.673 112.418 156.75 113.833Z" fill="#1EAED8"/>
</svg>
