<svg width="100" height="100" viewBox="0 0 100 100" fill="none" xmlns="http://www.w3.org/2000/svg">
<path d="M20.4277 43.6768C17.5105 45.0489 9.79063 51.2253 8.30376 53.0553C6.75965 54.8852 6.30207 52.026 7.90308 47.2795C9.161 43.4478 12.364 38.2438 17.7394 33.7835C20.8842 31.2101 27.8041 27.493 32.0357 25.3199C32.8937 24.862 43.9879 20.1731 53.8812 17.8283C54.7391 17.5994 52.8519 19.258 52.5657 20.1731C51.0788 24.5192 21.399 43.162 21.399 43.162L20.4277 43.6768ZM62.2304 96.1165C62.7448 99.2048 62.2876 99.4334 59.0856 99.8337C55.8829 100.234 53.5381 99.033 52.6805 98.2327C51.8223 97.4314 51.6512 95.6593 52.5088 94.058C53.024 93.0287 53.5384 92.6856 53.8246 91.4273C54.1102 90.2266 54.3391 89.9405 54.5677 89.4832C54.7963 89.0825 54.8539 88.6819 54.9108 85.8802C54.9681 83.0782 54.9108 77.8169 55.197 75.5869C55.4832 73.2994 65.3762 76.6159 65.3762 76.6159C65.3762 76.6159 63.0314 82.4489 62.4024 83.8785C61.7735 85.3085 61.8307 88.0532 61.8307 88.625C61.8307 89.197 61.6017 90.3404 61.43 90.3977C61.2586 90.4549 62.0024 91.9418 61.659 92.7997C61.43 93.6004 62.1735 95.6593 62.2304 96.1165ZM66.0048 8.67849C65.6613 6.50542 66.0048 2.21586 66.4623 1.53034C67.892 -0.414441 75.4405 -0.64306 77.0418 1.64448C77.728 2.67377 77.6708 5.07546 77.5566 6.61957C77.4421 8.16367 77.0418 11.4805 76.9846 12.5674C76.9277 13.3681 68.6354 14.6256 66.8054 12.4529C66.2906 11.8812 66.0048 8.67849 66.0048 8.67849ZM82.8176 90.5691C86.3061 93.0859 88.9937 93.5431 90.7664 94.458C92.5391 95.3734 92.0819 97.1462 89.1081 97.6607C86.7061 98.1182 82.932 97.2031 80.4159 97.2031C77.8997 97.2031 72.2953 97.4893 70.8085 96.46C69.093 95.259 69.8361 93.0287 69.8361 93.0287C70.294 91.7708 71.4371 88.9681 71.094 86.6808C70.7509 84.3936 70.2933 83.1354 69.4357 81.0196C68.5778 78.9037 67.9492 73.6997 68.7499 73.4135C69.5506 73.1273 69.3216 73.4135 70.3509 73.6425C71.3802 73.8707 72.524 74.2142 74.7543 74.2142C76.9846 74.2142 79.4435 73.8707 80.3014 73.6994C81.1593 73.528 81.8455 73.3559 81.5593 75.129C81.2735 76.9017 80.4159 80.2186 80.3586 82.7923C80.3014 85.3657 80.3014 88.3394 80.4731 88.8539C80.6445 89.3687 81.9028 89.9404 82.8176 90.5694V90.5691Z" fill="black"/>
<path d="M70.5796 14.397C64.2894 19.83 52.1082 21.3162 34.0375 28.2933C29.4055 30.066 17.0533 35.3842 14.0796 40.9316C24.087 35.1559 27.8042 43.1047 28.6048 51.2822C29.3479 58.9451 33.1796 62.9485 43.0156 62.7192C53.1378 62.4909 56.2257 68.3808 59.0277 75.3007C64.4604 48.8229 73.153 43.6764 78.757 39.1589C90.652 29.4939 76.0123 12.4525 70.5796 14.397Z" fill="#88CE02"/>
<path d="M70.5798 14.397C55.4825 19.6579 40.5569 20.9731 23.0007 31.7812C18.8263 34.3546 10.0195 40.1875 8.30371 51.3391C14.7084 44.2478 29.5195 35.3269 47.6478 29.6657C56.7977 26.8061 63.4886 24.9192 71.6091 21.7734C71.0374 18.1135 71.0374 16.6838 70.5798 14.3963V14.397Z" fill="#88CE02"/>
<path d="M89.8513 45.735C89.8513 45.735 88.7648 49.4522 86.5917 50.6535C86.5917 50.6535 84.9907 51.2252 81.7883 49.4525C80.8732 48.938 80.187 47.1653 80.2439 46.5929C80.3011 45.2205 81.159 44.5916 81.159 44.5916C81.159 44.5916 82.0742 43.0475 83.1604 43.1047C84.2473 43.1619 86.0772 43.3333 86.6493 42.8185C87.1634 42.2468 89.9658 43.8478 89.8513 45.735ZM66.5193 9.76497C66.5193 9.76497 66.2907 12.6815 65.8904 14.5114C65.8331 14.8549 64.1176 15.0259 62.8594 15.5407C65.2611 22.403 79.7294 22.3458 81.617 18.9717C80.7018 18.3431 78.8718 17.3707 78.0143 17.0276C77.156 16.6842 77.2133 16.7414 77.156 15.1404C77.0988 13.539 76.9843 10.5656 76.8698 9.76497C76.7553 8.96396 67.8917 8.96396 66.5193 9.76497Z" fill="black"/>
<path d="M67.0911 9.76498C67.0911 9.76498 67.0911 11.4232 66.9194 13.0242C66.8629 13.768 66.8056 14.2253 66.6911 14.797C66.6339 15.1404 68.6356 16.5125 69.2073 19.5434C71.9524 25.6623 78.3002 22.6317 80.9305 19.7152C80.0157 19.0859 78.5289 18.2283 76.8134 17.5421C75.9555 17.1987 76.3555 16.4556 76.2986 14.8545C76.2413 13.2532 76.0124 10.9084 75.8982 10.0505C75.7837 9.19293 68.4639 8.96397 67.0911 9.76498Z" fill="#EFEFEF"/>
<path d="M66.5196 9.76497C66.5196 9.76497 66.4624 10.7943 66.291 11.9953C67.0341 12.7384 68.0065 13.768 68.7503 14.397C69.2648 14.8549 70.5227 14.7976 71.6668 14.7976C72.6961 14.7976 73.6109 14.9118 74.0112 14.6832C74.9267 14.2252 76.2415 13.0818 76.985 12.2239C76.9281 11.1946 76.8708 10.2225 76.8139 9.76497C76.756 8.96396 67.892 8.96396 66.5196 9.76497Z" fill="black"/>
<path d="M71.7235 14.1111C71.0369 14.1111 70.2363 14.0539 69.6073 13.9394C69.3211 13.8821 69.0356 13.7108 68.8066 13.5963C68.4063 13.3101 68.006 12.9673 67.549 12.6239C66.6336 11.9377 66.5767 11.5374 66.5767 11.3663C66.977 7.76329 66.4622 4.73265 66.4622 4.73265C66.4622 4.73265 66.0615 3.1882 68.2349 2.78787C70.408 2.38753 71.7231 2.33063 71.7231 2.33063C71.7231 2.33063 73.0959 2.33063 75.2113 2.78787C77.3847 3.18854 76.9844 4.73265 76.9844 4.73265C76.9844 4.73265 76.4696 7.76329 76.8699 11.3663C76.8699 11.5374 76.813 11.9377 75.8979 12.6239C75.0972 13.1959 74.4682 13.8249 73.8393 13.9394C73.21 14.0539 72.4093 14.1111 71.7235 14.1111Z" fill="black"/>
<path d="M71.7234 0.843781C67.949 0.843781 67.2055 1.87307 66.119 3.01684C65.8904 3.3027 66.0618 5.01819 66.4624 8.67846H66.9769C66.9769 8.67846 66.6335 7.64883 66.6907 6.44782C66.748 5.24715 66.9769 5.30439 66.8052 5.01819C66.5762 4.67476 66.119 4.10304 67.1486 3.53132C68.1776 2.95961 69.7789 3.9889 71.7234 4.04614C73.6675 3.9889 75.3261 2.95961 76.3554 3.53132C77.3847 4.10304 76.9271 4.67509 76.6988 5.01819C76.4698 5.36163 76.7557 5.24715 76.8129 6.44782C76.8702 7.64883 76.5267 8.67846 76.5267 8.67846H77.0416C77.3847 5.01853 77.6133 3.41718 77.4419 3.13099C76.4695 1.87307 75.4975 0.900683 71.7234 0.843781ZM89.8513 45.9067C89.8513 45.9067 88.7648 49.395 86.6493 50.596C86.1914 50.367 86.2486 50.0243 85.848 49.5094C85.7335 49.3381 85.3335 49.2232 85.1621 49.0519C84.9904 48.8801 85.0476 48.5943 84.7614 48.3657C84.5328 48.1367 84.3614 48.3084 84.1325 48.1367C83.9042 47.9084 83.8463 47.6222 83.6752 47.4512C83.5608 47.3367 83.1032 47.2795 82.989 47.165C82.7028 46.8788 80.187 46.3643 80.3015 45.7923C80.5298 44.9344 80.9877 44.3054 80.9877 44.3054C80.9877 44.3054 82.0742 42.7044 83.1604 42.7613C84.247 42.8185 85.2762 43.0475 85.8483 42.5327C86.4776 41.9606 90.0234 44.0768 89.8513 45.9064V45.9067Z" fill="black"/>
<path d="M82.4177 20.6303C82.4177 20.6303 86.0204 19.7724 88.4793 22.1172C90.9386 24.5192 90.7665 27.4926 90.0234 29.3225C90.6524 30.066 91.7962 32.1246 90.9386 34.5838C94.713 37.7858 93.0544 42.7044 89.6804 45.964C89.6804 45.964 88.8797 42.9902 85.6773 42.8185C85.7918 41.6751 82.7036 40.7599 84.1332 37.7862C81.9601 37.2714 82.0174 35.7845 81.6743 33.9545C81.3881 32.1246 82.4177 20.6303 82.4177 20.6303Z" fill="black"/>
<path d="M81.1022 22.2316C81.1022 22.2316 85.2766 20.1158 87.7359 22.5178C90.1948 24.9195 89.5083 27.5498 88.7652 29.3798C89.3941 30.1229 90.881 32.2394 89.9658 34.7552C89.7941 35.3273 88.5362 35.3273 87.621 36.8141C89.9083 35.4983 91.3382 35.8417 91.853 37.5C92.6537 40.0734 90.8806 43.1613 89.3369 44.8771C89.3369 44.8199 89.2796 44.7626 89.2796 44.7054C89.0507 45.5636 88.7648 47.2215 87.0493 49.0515C86.1914 49.9667 85.5052 49.8525 84.5332 49.6236C83.3894 49.3374 82.9891 48.8226 81.3881 47.9653C80.4729 47.4505 80.9874 46.8212 80.9874 46.3067C80.9874 46.1923 81.1019 46.0205 81.2736 45.7923C81.3881 45.5061 81.7312 45.0488 82.2456 44.534C82.2456 44.534 82.9891 43.5047 84.0759 43.5616C85.1625 43.6189 86.3059 43.3906 86.5921 43.1044C86.5921 41.103 84.3049 41.0454 85.1052 37.6145C85.1625 37.4428 85.4487 37.1566 86.3631 37.0424C84.9907 36.7562 84.3618 36.699 83.3894 35.7845C82.7032 35.1555 82.1887 34.3549 82.017 33.3256C81.6739 31.5529 81.1022 22.2316 81.1022 22.2316Z" fill="#EFEFEF"/>
<path d="M69.0359 18.6289C68.6925 18.171 66.9201 15.8838 63.546 14.969C62.5736 14.6828 61.9447 15.4835 60.973 16.0555C60.6868 15.8838 59.4285 15.3121 58.7423 15.7121C58.0561 16.1121 57.5989 16.5128 56.9123 16.7986C56.5689 16.6269 55.6544 16.6269 54.911 16.9131C54.1676 17.1417 53.0238 17.6562 51.9373 19.1431C51.2511 21.6023 64.0605 19.772 64.0605 19.772L69.0359 18.6289Z" fill="black"/>
<path d="M69.1499 18.6289C67.3196 17.9997 67.6058 15.8838 63.5456 15.5407C62.7449 15.4835 62.2301 16.1124 61.6583 16.5128C61.9445 16.799 62.2301 17.2562 62.4018 17.7135C61.887 17.1421 60.9721 16.3983 60.0567 16.2266C59.1991 16.0555 58.627 16.6845 57.7122 17.1421C57.8836 17.3131 58.0553 17.5993 58.2839 17.9428C57.4829 17.4279 56.9115 17.2566 55.825 17.6566C55.0816 17.8852 53.6519 18.5145 52.5654 20.0586C51.8792 22.5175 64.1169 19.7724 64.1169 19.7724L69.1499 18.6289Z" fill="#88CE02"/>
<path d="M79.9013 19.5438C79.9013 19.5438 79.9013 18.9148 79.844 18.3431C79.844 18.2286 79.3864 17.9424 79.3864 17.8283L79.272 17.7138C79.272 17.7138 80.1871 17.1993 80.8733 17.4852C81.6164 17.7141 82.0168 18.6862 82.0168 18.6862C83.3322 18.229 83.4464 18.7434 84.0757 19.4296C85.4484 19.1434 85.6194 19.6582 86.4777 20.9165C86.4777 20.9165 85.4484 20.7448 83.4467 21.0879C81.5023 21.3734 79.9013 19.4865 79.9013 19.5438Z" fill="black"/>
<path d="M79.6725 19.2579C79.6725 19.2579 80.0156 18.9717 79.9011 18.9145C80.5301 18.571 81.388 18.1714 81.7883 19.2579C83.1035 18.8 83.2752 19.4296 83.9042 20.1158C85.5052 19.3724 85.6193 20.2869 85.7341 20.6875C85.2193 20.6875 84.4762 20.7448 83.4466 20.8589C81.5025 21.1451 79.6153 19.2003 79.6725 19.2579Z" fill="#88CE02"/>
<path d="M60.2288 17.8283C60.2288 17.8283 63.4884 18.9717 66.2335 18.8C68.9786 18.5717 73.6678 18.3428 76.1836 19.8296C76.1836 19.8296 78.757 18.9145 81.1591 19.5434C83.5611 20.1724 87.9644 24.2899 86.6493 28.636C86.5348 28.9222 85.7914 29.3795 84.9335 29.6657C84.9335 29.6657 85.3914 31.6101 84.5904 33.2111C83.7897 34.7552 82.017 37.729 81.9597 41.8465C81.9025 42.5327 81.7884 43.9623 81.6739 44.6481C77.2133 44.4771 70.351 42.8182 63.6032 42.933C63.6601 42.1896 63.7173 41.732 63.7749 40.9885H63.9459C63.6025 39.1013 63.4884 38.129 63.1453 36.6997C60.9722 35.3273 58.6843 33.7259 56.7405 30.6949C54.8533 27.664 60.2288 17.8283 60.2288 17.8283ZM82.3028 48.7087C82.3028 48.7087 85.8483 61.4044 81.6739 66.7229C81.6739 66.7229 82.3028 69.1818 80.8732 71.8125C80.6442 72.9559 80.3581 73.9855 80.187 75.129C79.4436 79.8754 78.1853 81.8768 77.8422 89.4825L74.4109 89.4256C74.4109 89.4256 74.0102 83.9357 72.8096 81.0192C72.1237 79.3609 69.4355 77.1303 69.5503 74.9003C69.6648 73.1848 70.0075 71.7552 72.9244 69.4673C73.153 66.1508 69.8362 63.0054 70.351 50.6532L82.3028 48.7087Z" fill="black"/>
<path d="M81.2737 48.1939C82.1889 54.0269 84.3047 62.662 80.4731 66.8939C80.6444 67.6946 80.7589 68.8384 80.5303 70.1532C80.4158 70.8394 80.1869 71.5828 79.9013 72.3835C79.3293 73.7559 79.1003 75.7572 78.9289 76.9582C78.1855 81.7047 78.1855 81.934 77.8424 89.5397L74.4111 89.4825C74.4111 89.4825 74.0104 83.9926 72.8097 81.0761C72.1239 79.4178 70.6939 77.9882 70.5798 75.7579C70.4653 74.0424 71.6663 70.6114 74.5259 70.7256C74.3542 63.8061 71.1515 65.1785 70.2939 50.7673L81.2737 48.1939ZM60.2289 17.8283C60.2289 17.8283 61.4872 18.2286 62.8596 18.3428C64.232 18.4572 65.7192 18.3428 67.034 18.2855C69.7791 18.0569 73.6677 17.771 76.2411 19.2579C76.2411 19.2579 77.6707 18.8 79.2151 18.9145C79.9013 18.9717 80.5875 19.5434 81.3882 19.7724C83.9044 20.4013 86.306 24.5758 85.2192 28.3505C85.1047 28.6367 84.3044 28.3505 83.3892 28.6367C83.5606 29.437 83.6754 31.267 82.7603 33.2114C81.7882 35.1559 80.5299 37.6721 80.7586 42.4758C74.7542 42.1896 72.0663 41.7896 66.1188 41.5037C65.604 39.3875 65.2609 37.2714 65.2037 36.1852C66.0047 35.7845 66.4616 35.4421 67.0912 34.7556C65.3757 35.0417 64.6892 34.9273 63.6596 34.3549C62.6303 33.7832 60.8003 31.9532 59.8852 30.7525C59.771 30.638 59.1424 32.5249 57.7128 32.5825C57.1976 31.8391 59.3707 29.7229 58.9704 28.9226C57.5411 26.0057 60.2289 17.8283 60.2289 17.8283Z" fill="#EFEFEF"/>
<path d="M81.7305 43.4478C81.7305 43.4478 81.845 45.5064 81.845 46.0209C81.845 46.5929 82.3029 48.3081 82.3598 49.1091C81.7308 50.1956 78.986 52.6546 74.0106 53.5697C69.0924 54.599 62.5732 46.8788 62.5732 46.8788C62.745 46.1354 63.3167 43.9623 63.717 42.8185C63.7743 42.704 63.8887 42.4182 63.8887 42.304C64.4035 41.5606 81.7305 43.4478 81.7305 43.4478Z" fill="black"/>
<path d="M80.4733 43.6195C80.4733 45.0488 80.7019 46.0785 80.874 46.9933C81.1595 48.6519 81.6167 49.7384 81.6167 50.8249C81.6167 54.1414 77.2706 53.5697 73.6103 53.6842C68.6925 54.7138 64.5181 46.9936 64.5181 46.9936C64.8608 45.6781 65.0898 44.1916 65.6043 42.933C65.6615 42.2471 65.776 41.3892 65.8332 40.9889C72.8097 40.9889 77.7278 41.3896 80.5874 41.6748C80.7019 42.304 80.5874 43.3906 80.4733 43.6192V43.6195Z" fill="#EFEFEF"/>
<path d="M74.9832 50.9963C74.9832 50.9963 71.9522 44.2482 62.8593 46.2502C60.6866 52.3687 57.7697 59.403 59.6573 67.0088C57.7697 69.5822 55.5967 71.0121 55.5967 75.7583C55.5967 80.5047 55.8256 81.3054 55.8256 81.3054L62.5162 81.6488C62.5162 81.6488 64.6893 78.8468 65.5468 75.8158C65.7758 74.9576 66.0048 73.4138 65.833 71.6411C66.0617 71.298 67.0337 70.4977 67.1485 68.9536C67.1485 68.9536 70.4078 67.2381 72.2953 63.0633C74.0684 59.2882 73.6105 56.0286 74.9829 50.996L74.9832 50.9963Z" fill="black"/>
<path d="M74.9833 50.9963C74.8116 50.3673 72.524 44.1913 64.0607 46.0209C59.0853 59.2882 60.9153 64.7785 61.6587 67.1798C58.2843 71.4687 56.7405 72.3838 57.4271 81.0761H61.8877C63.9463 77.8168 64.4038 76.6155 64.518 72.3266C64.518 72.1549 63.8894 72.67 63.4315 73.2418C63.7749 71.469 64.7469 71.1259 65.4904 70.0394C65.8335 69.5815 66.1193 68.8956 66.1193 67.9805C70.1224 65.2929 71.6092 61.9189 72.4668 58.4303C73.1533 56.0286 73.9537 52.0828 74.983 50.996L74.9833 50.9963Z" fill="#EFEFEF"/>
<path d="M60.8577 41.7892C60.8577 41.7892 62.4018 41.8465 63.7746 42.304C65.09 42.7613 65.09 43.0471 65.6045 43.6192C66.1193 44.1916 67.3772 45.0488 67.1486 45.9067C67.0342 46.3643 66.7483 46.4784 66.348 46.8788C66.1762 47.0505 64.918 48.4229 64.6325 48.5943C64.4607 48.7087 64.2318 48.8805 64.0604 48.9949L63.2028 49.5667C62.6308 49.8529 62.2304 50.0242 61.6015 49.967C61.6015 49.967 60.1719 49.9098 59.2567 48.9377C59.2567 48.9377 59.1422 48.4798 59.3712 48.2515C59.3712 48.2515 58.1702 47.2219 57.8271 46.5357C57.4836 45.8498 57.4836 44.8778 57.7126 44.363C57.8271 43.8478 60.057 42.4182 60.8577 41.7892ZM62.2877 97.4316L62.116 98.8616C62.116 98.8616 61.6015 99.4906 57.7702 99.4333C53.8813 99.3761 52.852 98.1754 52.5089 97.5461L52.2803 96.0592C52.2803 96.0592 53.0237 94.9727 53.1954 94.9727C54.4533 95.0872 58.7426 96.8027 61.7163 97.2603C62.0015 97.2603 62.0587 97.3741 62.2877 97.4316ZM70.5796 94.5151C70.5796 95.1441 70.5224 95.1441 70.5224 95.7734C71.2086 96.2879 72.9244 96.5741 76.1836 96.5165C80.9301 96.402 85.3335 97.9465 90.7089 97.031L90.7661 96.0017L90.2517 95.9448L71.2086 94.4007L70.5796 94.5151Z" fill="black"/>
<path d="M74.7542 96.5168H76.1838C79.2723 96.4024 82.1888 97.0886 85.3336 97.2603C86.9922 97.203 89.0508 96.8024 88.8794 95.6017L72.6387 94.229C71.6663 95.3155 72.4097 96.2306 74.7542 96.5168ZM56.1114 72.4411C56.6262 72.7845 60.1148 74.8431 65.776 74.5569C65.6616 75.6434 65.7188 77.7596 63.2026 81.4764C61.9444 83.3064 60.8575 86.5091 60.6292 90.5694C60.6865 91.4845 61.201 92.2849 60.5148 93.4859C60.7437 94.229 61.6585 95.7162 62.1161 96.631C62.5733 97.5461 62.8023 98.5754 59.771 98.6327C56.6831 98.6899 51.7077 98.3465 52.3942 95.9451C52.7377 94.6869 53.7097 93.3717 53.8242 92.8569C53.9387 92.3421 53.9387 90.7983 54.9104 89.7687C55.7683 86.9094 55.4824 84.1647 55.3111 81.5913C55.0249 78.903 54.9676 74.6145 56.1114 72.4414V72.4411ZM61.4299 25.8343C65.4902 20.4014 62.0589 16.0556 55.54 17.3704C52.909 17.8852 50.2787 19.7155 50.107 23.032C49.2491 23.1465 47.305 23.2606 46.3326 26.8064C45.5895 29.5512 45.1892 30.0657 43.8737 31.4381C43.0158 32.4104 43.9309 34.4118 44.5599 35.8421C46.6757 40.7599 53.1949 41.2172 57.5983 44.9344C59.0851 44.534 60.6292 42.8758 61.0865 41.7896C57.3693 37.3855 58.17 35.6704 56.6831 33.3828C58.2845 32.8104 61.9444 30.5811 61.4299 25.8343Z" fill="black"/>
<path d="M60.6295 25.4912C60.8577 25.1478 61.2584 24.4047 61.4301 24.1185C61.4874 24.0613 62.1163 25.1478 62.1736 25.0909C63.7173 22.5744 64.1177 18.9145 62.345 18.5714C61.9443 18.5141 61.2012 18.3428 60.5722 18.1135C59.4285 17.7135 58.3992 17.7135 56.5689 18.0566C54.053 18.5141 51.5369 20.3441 51.5369 22.9747C51.5369 23.1465 53.3093 23.6609 53.8241 25.7771C52.9662 24.5758 51.4793 23.2606 49.7062 24.4044C47.8194 25.605 48.7914 28.3502 46.2753 31.2091C45.4173 32.1815 45.5318 33.3252 46.447 35.6128C47.9335 39.2155 54.9675 41.1599 58.7992 44.5909C59.714 44.1906 60.3429 43.2758 60.8005 42.5896C58.2271 39.9017 57.1978 37.3855 56.4544 35.5555C55.5396 33.4397 54.5099 32.239 52.5083 30.637C53.5379 31.0377 54.3389 31.4377 54.7958 31.7808C55.3103 32.1242 56.0537 32.1815 56.7402 31.9525C59.1998 31.0953 60.515 27.664 60.6291 25.4912H60.6295Z" fill="#EFEFEF"/>
<path d="M85.5053 26.4061C85.3336 28.5791 83.7326 27.4926 82.875 27.0923C81.1592 26.3488 79.4433 25.8344 77.442 25.8344C75.4403 25.8344 72.8669 26.0061 70.6369 26.5778C67.5491 27.4354 66.6336 27.3785 65.2612 26.6919C63.8891 25.9485 61.4874 24.1185 61.4874 24.1185C61.4874 24.1185 61.4302 24.6906 62.0019 25.434C62.745 26.3488 64.4039 27.4926 66.6339 28.2357C67.7204 28.5791 68.5783 28.3502 69.5507 28.1216C74.6403 26.8636 80.0154 26.6347 84.5332 29.3795C84.7622 29.494 85.5629 29.1505 85.906 28.636C86.3629 27.8929 85.5053 26.4061 85.5053 26.4061Z" fill="black"/>
<path d="M59.4854 48.1939C59.9429 48.4801 60.5146 48.6519 61.1436 49.1663C61.1436 49.1663 60.6291 49.1663 60.4005 48.9377C60.1143 48.766 59.5426 48.2515 59.4854 48.1939Z" fill="#001423"/>
<path d="M76.0127 2.84513C75.841 2.33065 74.5827 1.4155 71.6666 1.4155C68.5211 1.4155 67.6059 2.38755 67.5494 2.90237C67.5494 3.07408 67.3204 4.90405 67.2632 5.64715C67.2632 5.64715 67.2632 6.5623 67.3204 7.93469C67.3777 8.8495 67.6063 9.36432 67.7204 10.5653C67.8349 11.8229 68.1783 12.6239 68.807 13.6532C69.0932 13.8246 69.3218 13.9966 69.6076 14.0539C70.7514 14.2822 72.7531 14.3394 73.8396 14.0539C74.4686 13.8822 75.2692 12.7956 75.4406 11.8232C75.6696 10.6226 75.8982 9.76465 75.9554 9.02122C76.0699 8.27812 76.1272 6.61954 76.1841 6.16196C76.3558 4.90405 76.0696 2.9596 76.0123 2.84546L76.0127 2.84513Z" fill="#EFEFEF"/>
<path d="M70.0078 73.528C70.0078 73.528 73.0391 74.8431 80.5303 73.6993C80.5303 73.6993 78.4145 84.336 79.3869 89.6542C79.3869 89.6542 80.359 91.0269 87.5643 93.6572C87.5643 93.6572 90.7667 94.4579 90.6526 96.0593C90.6526 96.0593 90.767 96.4027 86.8782 96.2879C82.9899 96.1734 79.3293 95.4872 76.7563 95.4872C74.1829 95.4872 71.4377 95.6017 70.9805 94.8583C70.4657 94.1721 71.095 92.399 71.8381 91.3697C72.6394 90.2835 72.4101 89.4825 72.3532 87.5384C72.1808 82.4488 68.2923 77.1879 70.0078 73.528Z" fill="black"/>
<path d="M69.3786 74.5C68.9779 75.072 69.4355 77.2448 70.0076 79.3609C70.5793 81.4764 71.8375 82.7347 72.1234 86.2229C72.4096 89.6539 72.4668 90.1118 71.4944 92.1131C70.5221 94.1141 70.2362 95.9448 73.6099 96.002C76.9837 96.0593 78.8143 95.9448 82.2453 96.4596C85.6766 96.9741 86.8776 97.1455 88.7648 96.8599C90.652 96.5737 91.052 95.9444 90.2517 95.3731C89.451 94.801 86.1338 94.172 84.7045 93.0279C83.3318 91.9986 79.4433 90.2832 79.3864 89.8259C79.2146 88.2815 79.1574 82.6774 79.4436 80.8475C79.7295 79.0172 80.1295 76.3869 80.2439 75.7007C80.3584 75.0145 80.9301 74.3279 79.9577 74.5569C78.986 74.7852 75.3261 75.3003 72.581 75.1286C69.8362 74.9572 69.5507 74.3283 69.3786 74.5Z" fill="#88CE02"/>
<path opacity="0.3" d="M71.3231 92.1707C72.2951 92.628 73.7251 92.9714 74.8113 92.9714C74.8113 92.9714 74.4106 94.8586 75.0402 96.002C75.6689 97.1458 70.4652 96.4599 70.4652 96.4599L70.2365 92.3993L71.3231 92.1704V92.1707ZM86.4776 97.0886C87.3924 96.8024 88.0217 95.7734 87.2783 94.8014C86.4776 93.829 85.7914 93.6576 86.8204 93.6004C87.85 93.5431 91.6244 95.8307 91.6244 95.8307L89.6796 97.6034L86.4776 97.0886ZM69.2069 76.73C70.5224 77.1879 72.5238 77.302 74.2396 77.2448C75.9551 77.1876 78.5285 76.9586 80.1871 76.3869C81.8453 75.8152 81.1591 77.0158 81.1591 77.0158L80.244 77.8738C80.244 77.8738 78.0712 78.7317 74.5258 78.6748C70.351 78.6175 69.0928 78.1599 69.0928 78.1599L69.2073 76.73H69.2069ZM69.3214 79.5896C70.6369 80.0475 72.6379 80.1616 74.3537 80.1044C76.0692 80.0472 78.3571 80.0472 80.0153 79.4182C80.7015 79.1892 80.3015 80.1616 80.3015 80.1616L80.0153 80.6761C80.0153 80.6761 77.785 81.4768 74.2965 81.4192C70.1221 81.3623 69.3786 81.0189 69.3786 81.0189L69.3214 79.5896Z" fill="black"/>
<path d="M65.5474 39.502C65.5474 39.9027 70.008 42.1323 72.4669 42.5899C74.9261 43.0475 80.0729 42.5899 80.8733 42.4185L80.7588 43.2192C80.7588 43.2192 74.64 44.1343 69.9507 42.8761C65.2615 41.6182 65.7763 41.332 65.7763 41.332L65.5474 39.502Z" fill="black"/>
<path d="M55.9968 88.2818C56.683 88.6253 59.1423 89.2539 60.7433 88.9108C60.9719 88.8535 60.7433 84.9646 61.3726 83.1923C62.2874 80.733 63.7742 78.7317 64.4601 74.3855C62.0584 74.1566 59.3136 73.5276 57.8837 73.07C56.054 78.6744 56.6833 83.4781 55.9968 88.2818ZM59.8288 91.8845C60.2291 91.999 60.5146 92.4562 60.6295 92.1707C60.8577 91.6556 60.2288 90.6838 60.1715 89.9976V89.9404C59.6571 89.4832 56.1689 89.4259 56.3975 89.6542C55.9971 90.3976 55.3682 90.2835 55.1396 91.7704C55.0254 92.5135 55.9406 91.8849 56.7978 91.8276C55.254 92.8566 53.4813 94.1724 53.1951 95.3158C52.852 96.9168 53.4241 97.3748 55.1396 98.2327C56.6268 98.5758 58.3992 98.633 59.7715 98.5758C61.3157 98.2896 61.6018 97.5465 61.1443 96.5168C60.4574 94.9727 60.0002 92.9714 59.8288 91.8845Z" fill="#EFEFEF"/>
<path d="M60.4581 17.5993C62.3449 18.6859 64.9759 18.4 65.9476 18.3428C66.1766 18.3428 68.4641 17.9424 68.5783 17.9993C68.8072 18.0566 68.8072 18.2283 68.8072 18.2283C68.8072 18.2283 67.9493 18.6855 66.0049 18.8C64.1749 18.9141 62.0018 18.8 60.8012 18.2283C59.3712 17.5993 60.4581 17.5993 60.4581 17.5993ZM79.9015 18.6859C80.2443 18.9145 82.4749 19.7724 83.447 20.8017C84.3049 21.7168 83.8476 21.6596 83.6756 21.431C83.447 21.1448 81.6739 19.9438 80.988 19.6583C80.3018 19.3721 79.4436 18.8576 79.4436 18.7431C79.4436 18.6286 79.9015 18.6859 79.9015 18.6859Z" fill="black"/>
<path d="M60.1716 42.4182C61.8298 42.3037 63.5453 42.7044 64.6322 43.8478C65.2039 44.4199 66.119 45.0485 66.0046 45.6205C66.0046 45.7923 65.6611 46.2498 65.376 46.5929C65.2042 46.8212 64.6898 47.336 64.5177 47.5078C64.2894 47.6795 63.4884 48.3084 63.317 48.4229C63.1453 48.5374 62.9164 48.8236 62.745 48.8805C62.1736 49.1667 61.5443 48.9377 60.9726 48.6519C60.4009 48.3657 61.0871 48.3084 60.4578 47.8512C58.914 46.7647 58.0557 46.0209 58.685 43.9051C58.7423 43.5047 59.3709 43.0471 60.1716 42.4182Z" fill="#EFEFEF"/>
<path opacity="0.4" d="M45.589 29.3229C40.4422 31.3815 27.3466 37.901 23.6294 39.9027C26.7173 41.8468 28.1469 46.5357 28.6048 51.2825C28.6617 51.7404 28.719 52.1404 28.7762 52.5977C28.8334 52.9983 28.8907 53.2839 28.9476 53.4559C28.9476 53.5131 28.9476 53.6276 29.0048 53.6842C32.3789 44.4775 44.4449 34.7556 44.9025 34.0121C45.1314 33.669 44.6163 32.1822 45.4173 30.7529C46.4469 28.9226 48.4486 28.1216 45.589 29.3229ZM57.827 72.4987C60.4573 67.2377 60.5146 62.2051 60.4573 56.3148C60.4573 53.8556 62.2301 50.3674 61.3153 51.3394C57.8843 55.1707 49.2489 62.3764 43.0156 62.7768C51.7651 62.4906 55.1964 66.8943 57.827 72.4987Z" fill="black"/>
<path d="M18.5972 44.763C21.8568 42.4185 38.7268 33.4404 42.7874 32.1822C46.8473 30.8667 45.5891 29.3226 45.5891 29.3226C45.5891 29.3226 29.1194 36.4135 19.2834 42.5327" fill="black"/>
<path opacity="0.4" d="M66.6337 28.2364C65.3185 27.7216 64.2892 29.2657 64.6323 30.7525C64.9758 32.2394 68.0633 33.8977 67.8916 39.3306C67.7775 43.7913 66.8054 45.6209 66.8054 45.6209L64.6323 42.8764C64.6323 42.8764 64.2889 36.7 63.5458 35.7849C62.8024 34.87 60.4576 33.2115 59.5424 32.3539C58.6276 31.496 60.5717 30.3522 60.4576 28.7512C60.3431 27.2071 61.43 24.1189 61.43 24.1189L66.6337 28.2364ZM74.5825 52.5977C74.4684 56.8862 75.4411 63.234 75.8408 66.2653C76.2414 69.296 76.7559 69.5249 75.8408 70.8977C74.9259 72.2128 73.7249 74.3859 73.7249 74.3859L69.7788 74.0424C69.7788 74.0424 72.9243 70.0394 73.0953 69.296C73.267 68.5529 71.4943 62.8916 71.4943 62.8916L74.5828 52.5977H74.5825ZM66.9771 12.5673C67.7778 14.3397 68.7498 15.1404 70.2936 15.6552C71.2088 15.9987 74.8115 16.4559 76.2411 14.8546C76.87 14.1111 76.47 12.1094 76.47 12.1094L73.2101 14.7401L68.8067 13.9394L68.2923 12.6243L66.9771 12.5673Z" fill="black"/>
<path d="M67.32 16.5131C68.8069 17.4852 72.5241 18.4003 73.5534 18.5717C74.5827 18.8003 76.2412 17.4852 77.0416 17.1421C77.8998 16.7417 79.3867 16.5131 81.1022 18.0572C81.2739 18.2289 80.7015 18.972 80.7015 18.972C80.6443 18.9148 80.3015 18.9148 79.8436 18.6859C79.3864 18.4576 78.986 18.2855 78.2998 18.3431C75.4402 18.6859 74.983 19.6582 72.4668 19.0862C69.9507 18.5138 69.3217 18.0569 66.8628 18.171" fill="#88CE02"/>
<path d="M67.32 16.5131C68.8069 17.4852 72.5241 18.4003 73.5534 18.5717C74.5827 18.8003 76.2412 17.4852 77.0416 17.1421C77.8998 16.7417 79.3867 16.5131 81.1022 18.0572C81.2739 18.2289 80.7015 18.972 80.7015 18.972C80.6443 18.9148 80.3015 18.9148 79.8436 18.6859C79.3864 18.4576 78.986 18.2855 78.2998 18.3431C75.4402 18.6859 74.983 19.6582 72.4668 19.0862C69.9507 18.5138 69.3217 18.0569 66.8628 18.171" stroke="black" stroke-width="1.06801" stroke-linejoin="round"/>
<path d="M66.8052 16.6845C68.6924 17.4852 72.3523 18.3431 73.3816 18.5717C74.4106 18.8007 76.0692 17.771 76.8699 17.2566C78.2998 16.3414 80.1295 17.0848 80.9877 18.0572C81.5591 18.6859 81.7884 19.0865 81.7884 19.2579C81.7884 19.4865 81.1022 19.2579 81.1022 19.2579C80.7015 19.0862 80.2439 19.0293 79.9012 18.8C79.4436 18.5717 78.986 18.2286 78.3002 18.2855C75.4406 18.629 74.8688 19.601 72.4099 19.029C69.951 18.4572 69.3217 17.9424 66.6914 18.1138" fill="#88CE02"/>
<path d="M57.9416 70.0966C57.8271 69.9822 58.0561 69.8677 57.9416 69.8677C57.1985 69.8677 56.1689 69.296 55.5968 68.4953C53.1379 64.9498 49.5348 62.6054 43.0157 62.7768C33.2369 63.0057 29.348 59.0027 28.6049 51.3397C28.2042 47.1653 27.0608 43.1047 24.716 40.8172L23.3433 41.6751C25.9739 43.9626 26.8318 47.6798 27.4039 52.7694C28.3187 60.4323 34.4948 63.9781 41.7002 64.0923C49.1917 64.2067 51.8796 65.7508 54.6817 69.5253C55.5965 70.7259 56.6261 71.1263 57.4264 71.298L57.9416 70.0966Z" fill="black"/>
<path opacity="0.4" d="M84.4761 33.3259C84.6478 34.1835 85.105 35.8421 86.0198 36.6424C86.4205 37.0428 86.4778 37.1569 86.1343 37.1569C85.7909 37.1569 83.2751 37.0428 83.2751 37.0428L82.5889 35.8421L84.4761 33.3259Z" fill="black"/>
</svg>
