<svg width="100" height="100" viewBox="0 0 100 100" fill="none" xmlns="http://www.w3.org/2000/svg">
<path d="M85.3336 19.6028L78.8957 91.7247L49.9566 99.7474L21.0973 91.7357L14.666 19.6028H85.3336Z" fill="#E44D26"/>
<path d="M50 93.615L73.3842 87.1321L78.8856 25.5005H50V93.615Z" fill="#F16529"/>
<path d="M37.4848 43.1945H50.0001V34.3476H27.8164L28.028 36.721L30.2026 61.1005H50.0001V52.2537H38.2934L37.4848 43.1945ZM39.4787 65.5241H30.5978L31.8372 79.415L49.9593 84.4454L50.0001 84.4344V75.2299L49.9613 75.2402L40.1087 72.5798L39.4787 65.5241Z" fill="#EBEBEB"/>
<path d="M21.2412 0H25.7371V4.44183H29.8498V0H34.3459V13.451H29.8501V8.94681H25.7373V13.451H21.2415L21.2412 0ZM40.2578 4.46067H36.3005V0H48.7143V4.46067H44.7545V13.451H40.2587V4.46067H40.2578ZM50.6844 0H55.3722L58.2559 4.72632L61.1368 0H65.8265V13.451H61.349V6.78393L58.2559 11.5665H58.1783L55.0833 6.78393V13.451H50.6844V0ZM68.0639 0H72.5612V9.00499H78.8836V13.451H68.0636V0H68.0639Z" fill="black"/>
<path d="M49.9695 61.1005H60.8634L59.8363 72.5742L49.9692 75.2374V84.4413L68.1058 79.415L68.2388 77.9202L70.318 54.6294L70.5338 52.2537H49.9695V61.1005ZM49.9695 43.1728V43.1945H71.3388L71.5161 41.2061L71.9194 36.721L72.1307 34.3476H49.9695V43.1728Z" fill="white"/>
</svg>
