<svg width="100" height="100" viewBox="0 0 100 100" fill="none" xmlns="http://www.w3.org/2000/svg">
<path d="M36.8653 77.3043C36.8653 77.3043 33.0509 79.5225 39.58 80.2731C47.4902 81.1754 51.5326 81.0462 60.2497 79.3962C60.2497 79.3962 62.5416 80.8332 65.7419 82.078C46.2011 90.4529 21.5167 81.5928 36.8653 77.3043ZM34.4774 66.3754C34.4774 66.3754 30.1991 69.5425 36.7332 70.2182C45.1829 71.0899 51.8558 71.1613 63.4026 68.9379C63.4026 68.9379 64.9997 70.5569 67.511 71.4425C43.8847 78.3512 17.5693 71.9873 34.4774 66.3754Z" fill="#5382A1"/>
<path d="M54.6077 47.8367C59.4228 53.3801 53.3427 58.3685 53.3427 58.3685C53.3427 58.3685 65.5684 52.0572 59.9537 44.1538C54.7098 36.7838 50.6881 33.1214 72.4589 20.4954C72.4589 20.4954 38.2861 29.0303 54.6077 47.8367Z" fill="#E76F00"/>
<path d="M80.4522 85.3879C80.4522 85.3879 83.275 87.7136 77.3432 89.513C66.064 92.9301 30.3975 93.9619 20.4894 89.6491C16.9279 88.1 23.6071 85.9497 25.7079 85.4983C27.899 85.0231 29.1513 85.1119 29.1513 85.1119C25.1903 82.3214 3.54926 90.5908 18.1588 92.9587C58.0007 99.4199 90.7865 90.0494 80.4522 85.3879ZM38.6996 55.052C38.6996 55.052 20.5576 59.3613 32.2753 60.9257C37.2227 61.5882 47.0854 61.4384 56.2724 60.6685C63.7805 60.0356 71.3195 58.6887 71.3195 58.6887C71.3195 58.6887 68.6721 59.8226 66.7568 61.1304C48.3337 65.9757 12.7435 63.7217 22.9894 58.7653C31.6545 54.5769 38.6996 55.052 38.6996 55.052ZM71.2446 73.2434C89.973 63.5116 81.3137 54.1595 75.2698 55.4197C73.7883 55.7278 73.1279 55.9948 73.1279 55.9948C73.1279 55.9948 73.6779 55.1335 74.7282 54.7607C86.6848 50.5569 95.8805 67.1587 70.8683 73.7338C70.8683 73.7341 71.1582 73.4752 71.2446 73.2434Z" fill="#5382A1"/>
<path d="M59.9534 0.107223C59.9534 0.107223 70.3254 10.4829 50.1162 26.437C33.9107 39.2353 46.4208 46.5324 50.1095 54.8697C40.65 46.335 33.7078 38.8217 38.3653 31.8292C45.2008 21.5642 64.1381 16.5879 59.9534 0.107223Z" fill="#E76F00"/>
<path d="M40.5397 99.6142C58.5163 100.765 86.1212 98.9757 86.7749 90.4697C86.7749 90.4697 85.5183 93.6945 71.9183 96.2552C56.5749 99.1425 37.6512 98.8055 26.4272 96.9549C26.4275 96.9549 28.7246 98.8566 40.5397 99.6142Z" fill="#5382A1"/>
</svg>
