<svg width="100" height="100" viewBox="0 0 100 100" fill="none" xmlns="http://www.w3.org/2000/svg">
<path d="M6.25 6.25H93.75V93.75H6.25V6.25Z" fill="#F5DE19"/>
<path d="M65.0282 74.6094C65.7737 76.1237 66.932 77.3966 68.3696 78.2812C69.8071 79.1659 71.4654 79.6263 73.1532 79.6094C76.5595 79.6094 78.7376 77.9062 78.7376 75.5469C78.7376 72.7344 76.5001 71.7281 72.7501 70.0875L70.6938 69.2063C64.7563 66.6781 60.8188 63.5125 60.8188 56.8188C60.8188 50.6531 65.5064 45.9563 72.8595 45.9563C75.2398 45.7844 77.6181 46.3171 79.6976 47.488C81.7771 48.6589 83.4659 50.4162 84.5532 52.5406L78.1251 56.65C77.7064 55.5966 76.9774 54.6954 76.0348 54.0659C75.0921 53.4363 73.9804 53.1082 72.847 53.125C72.3525 53.0755 71.8531 53.1295 71.3806 53.2837C70.9082 53.4379 70.473 53.6887 70.1029 54.0204C69.7327 54.352 69.4357 54.7571 69.2308 55.2098C69.0259 55.6626 68.9175 56.1531 68.9126 56.65C68.9126 59.1156 70.4407 60.1156 73.9688 61.65L76.0251 62.5313C83.0126 65.5281 86.9626 68.5813 86.9626 75.4469C86.9626 82.85 81.147 86.9062 73.3376 86.9062C70.2948 87.1001 67.2609 86.4093 64.602 84.9171C61.9432 83.4249 59.7729 81.1951 58.3532 78.4969L65.0282 74.6094ZM35.9813 75.3219C37.272 77.6125 38.447 79.55 41.272 79.55C43.972 79.55 45.6782 78.4937 45.6782 74.3844V46.425H53.9001V74.4937C53.9001 83.0062 48.9001 86.8813 41.622 86.8813C39.0493 87.0219 36.4943 86.3807 34.2929 85.0421C32.0914 83.7035 30.3465 81.7301 29.2876 79.3813L35.9813 75.3219Z" fill="black"/>
</svg>
