<svg width="100" height="100" viewBox="0 0 100 100" fill="none" xmlns="http://www.w3.org/2000/svg">
<path fill-rule="evenodd" clip-rule="evenodd" d="M68.7797 33.4469C70.0336 37.0742 70.9368 40.7773 71.2336 44.6156C71.6024 49.3773 71.4336 54.1055 70.4297 58.7891C70.4024 58.918 70.3446 59.0391 70.3016 59.1641C69.9868 59.1648 69.6657 59.1258 69.3579 59.1734C66.7571 59.582 64.1586 60.0055 61.5602 60.4266C58.8743 60.8617 56.1844 61.2797 53.5032 61.7445C52.5532 61.9086 51.3774 61.7125 50.9938 63.0266C50.9829 63.0625 50.8735 63.0687 50.8102 63.0891L50.9399 55.2367L50.8079 36.2898L52.0594 36.075C54.1063 35.7398 56.1532 35.4 58.2016 35.0742C60.6461 34.6859 63.093 34.3086 65.5391 33.9297C66.618 33.7617 67.6985 33.6078 68.7797 33.4469Z" fill="#439934"/>
<path fill-rule="evenodd" clip-rule="evenodd" d="M48.2257 85.9797C46.9054 84.8445 45.5389 83.7594 44.2733 82.5656C37.4632 76.1422 32.4819 68.582 30.0288 59.4672C29.353 56.9586 28.9022 54.4094 28.7577 51.8172C28.6561 50.0031 28.5093 48.1727 28.6374 46.368C28.9788 41.568 29.6725 36.8141 31.0804 32.1906L31.1577 32.0828C31.2944 32.2649 31.4913 32.4258 31.5608 32.6313C32.935 36.6781 34.2991 40.7281 35.6561 44.7805C39.9202 57.5149 44.1788 70.2524 48.4499 82.9836C48.5335 83.232 48.7499 83.4359 48.9054 83.6602L48.2257 85.9797Z" fill="#45A538"/>
<path fill-rule="evenodd" clip-rule="evenodd" d="M68.7797 33.4469C67.6984 33.6078 66.6172 33.7617 65.5383 33.9281C63.0922 34.307 60.6453 34.6844 58.2008 35.0726C56.1523 35.3984 54.1054 35.7383 52.0586 36.0734L50.807 36.2883L50.7976 35.4719C50.7562 34.8008 50.6851 34.1305 50.6773 33.4594C50.6234 29.1797 50.5898 24.9 50.5367 20.6203C50.5039 17.9414 50.4547 15.2633 50.4 12.5851C50.3664 10.9211 50.3304 9.25624 50.2554 7.59452C50.2148 6.70155 50.0711 5.81327 50.0125 4.9203C49.9797 4.40702 50.025 3.88983 50.0351 3.37421C50.6734 4.61093 51.2976 5.85702 51.9539 7.08436C52.9906 9.02499 54.6422 10.4547 56.1289 12.0148C62.0062 18.1805 66.1789 25.3492 68.7797 33.4469Z" fill="#46A037"/>
<path fill-rule="evenodd" clip-rule="evenodd" d="M50.8094 63.0883C50.8727 63.068 50.9828 63.0617 50.993 63.0258C51.3766 61.7117 52.5523 61.9078 53.5023 61.7438C56.1836 61.2797 58.8734 60.861 61.5594 60.4258C64.1578 60.0047 66.7562 59.5813 69.357 59.1727C69.6648 59.1242 69.9859 59.1641 70.3008 59.1633C69.8148 60.8977 69.432 62.6695 68.8156 64.3563C68.1156 66.2695 67.2688 68.1367 66.3695 69.9672C65.0233 72.6974 63.3572 75.2579 61.4062 77.5945C59.907 79.3977 58.2359 81.0641 56.5609 82.7102C55.6352 83.6203 54.5437 84.3617 53.5281 85.1797L53.2648 85L52.3164 84.1891L51.3352 82.0383C50.6649 79.5293 50.2993 76.9488 50.2461 74.3524L50.2641 73.9141L50.3977 72.0188C50.4422 71.3719 50.5016 70.7258 50.5289 70.0774C50.6297 67.7477 50.7172 65.418 50.8094 63.0883Z" fill="#409433"/>
<path fill-rule="evenodd" clip-rule="evenodd" d="M50.8094 63.0883C50.7172 65.418 50.6297 67.7476 50.5305 70.0781C50.5032 70.7265 50.4438 71.3726 50.3993 72.0195L49.8016 72.2453C48.4743 68.3375 47.1461 64.4711 45.8469 60.5945C43.6985 54.1812 41.5758 47.7578 39.4305 41.343C37.6978 36.1652 35.953 30.9915 34.1961 25.8219C34.1141 25.5797 33.8782 25.3906 33.7141 25.1766L37.5391 18.1437C37.6704 18.3719 37.8438 18.5851 37.9266 18.8305C39.6981 24.0665 41.4606 29.3056 43.2141 34.5476C45.4922 41.368 47.7563 48.1937 50.0329 55.0148C50.1235 55.2875 50.2735 55.5391 50.4165 55.8445L50.9399 55.2351L50.8094 63.0883Z" fill="#4FAA41"/>
<path fill-rule="evenodd" clip-rule="evenodd" d="M33.7149 25.1773C33.879 25.3914 34.1142 25.5805 34.197 25.8227C35.9538 30.9923 37.6986 36.166 39.4313 41.3437C41.5767 47.7586 43.6993 54.182 45.8478 60.5953C47.1462 64.4711 48.4743 68.3383 49.8024 72.2461L50.4001 72.0203L50.2665 73.9156L50.1454 74.3523C49.9376 76.4273 49.7626 78.507 49.5095 80.5773C49.3821 81.6148 49.1118 82.6336 48.9063 83.6609C48.7517 83.4367 48.5345 83.2328 48.4509 82.9844C44.1798 70.2523 39.9212 57.5156 35.6571 44.7812C34.3006 40.7286 32.9355 36.6789 31.5618 32.632C31.4923 32.4266 31.2962 32.2656 31.1587 32.0836L33.7149 25.1773Z" fill="#4AA73C"/>
<path fill-rule="evenodd" clip-rule="evenodd" d="M50.9391 55.2359L50.4157 55.8453C50.2727 55.5398 50.1227 55.2875 50.0321 55.0156C47.7563 48.1945 45.4915 41.3687 43.2133 34.5484C41.4598 29.3063 39.6973 24.0673 37.9258 18.8312C37.8438 18.5859 37.6704 18.3719 37.5383 18.1445L42.2688 11.9219C42.418 12.1211 42.6305 12.2984 42.7079 12.5227C44.0211 16.3672 45.3227 20.2164 46.6165 24.068C47.825 27.6648 49.0157 31.2672 50.2383 34.8594C50.3204 35.1 50.6055 35.2703 50.7961 35.4734L50.8055 36.2898C50.8508 42.6039 50.8954 48.9203 50.9391 55.2359Z" fill="#57AE47"/>
<path fill-rule="evenodd" clip-rule="evenodd" d="M50.7976 35.4719C50.607 35.2687 50.3218 35.0984 50.2398 34.8578C49.0171 31.2656 47.8265 27.6633 46.6179 24.0664C45.3242 20.2148 44.0226 16.3664 42.7093 12.5211C42.632 12.2969 42.4195 12.1195 42.2703 11.9203C43.8085 10.4141 45.2992 8.8539 46.8992 7.41718C48.3218 6.14062 49.4656 4.77187 49.5179 2.75468C49.5203 2.67109 49.564 2.58749 49.6312 2.35312L50.0367 3.37343C50.0265 3.88984 49.9804 4.40624 50.014 4.91953C50.0726 5.81249 50.2164 6.70078 50.257 7.59374C50.332 9.25546 50.3679 10.9203 50.4015 12.5844C50.4554 15.2625 50.5046 17.9406 50.5382 20.6195C50.5906 24.8992 50.625 29.1789 50.6789 33.4586C50.6851 34.1312 50.7554 34.8008 50.7976 35.4719Z" fill="#60B24F"/>
<path fill-rule="evenodd" clip-rule="evenodd" d="M48.9048 83.6602C49.1103 82.6328 49.3806 81.6133 49.5079 80.5766C49.7618 78.507 49.936 76.4266 50.1438 74.3516L50.1954 74.3438L50.247 74.3523C50.3001 76.9487 50.6658 79.5293 51.336 82.0383C51.1985 82.2195 51.004 82.3812 50.9313 82.5859C50.3634 84.1875 49.8282 85.8016 49.2571 87.4031C49.179 87.6219 48.9618 87.7922 48.8087 87.9844L48.2251 85.9797L48.9048 83.6602Z" fill="#A9AA88"/>
<path fill-rule="evenodd" clip-rule="evenodd" d="M48.8093 87.9852C48.9625 87.793 49.1804 87.6227 49.2578 87.4039C49.8289 85.8023 50.3648 84.1891 50.932 82.5867C51.0046 82.382 51.1984 82.2203 51.3367 82.0391L52.3171 84.1906C52.1234 84.4656 51.8562 84.7133 51.7484 85.0195L49.8703 90.5344C49.7929 90.7555 49.5289 90.9117 49.3523 91.0984L48.8093 87.9852Z" fill="#B6B598"/>
<path fill-rule="evenodd" clip-rule="evenodd" d="M49.3523 91.0977C49.5296 90.9117 49.7929 90.7547 49.8703 90.5336L51.7484 85.0188C51.8554 84.7133 52.1234 84.4648 52.3171 84.1898L53.2664 85C52.8078 85.4531 52.5531 85.9766 52.7062 86.6383L52.4179 87.582C52.2867 87.7438 52.0968 87.8844 52.032 88.0695C51.3765 89.9469 50.7507 91.8344 50.0906 93.7117C50.007 93.95 49.7749 94.1367 49.6109 94.3461C49.5257 93.2625 49.439 92.1813 49.3523 91.0977Z" fill="#C2C1A7"/>
<path fill-rule="evenodd" clip-rule="evenodd" d="M49.6117 94.3461C49.7749 94.1359 50.007 93.9492 50.0914 93.7117C50.7515 91.8352 51.3773 89.9477 52.0328 88.0695C52.0976 87.8852 52.2867 87.7438 52.4187 87.582L52.021 91.9141C51.9148 92.0367 51.7609 92.1437 51.7101 92.2867C51.2609 93.5477 50.8375 94.818 50.3867 96.0789C50.2937 96.3391 50.1156 96.5687 49.9765 96.8117C49.8531 96.65 49.632 96.4937 49.6218 96.325C49.582 95.668 49.6093 95.0062 49.6117 94.3461Z" fill="#CECDB7"/>
<path fill-rule="evenodd" clip-rule="evenodd" d="M49.9758 96.8117C50.1149 96.568 50.293 96.3383 50.386 96.0789C50.8376 94.8188 51.2602 93.5484 51.7094 92.2867C51.7602 92.1437 51.9149 92.0375 52.0204 91.9141L52.0297 94.7578L51.0782 97.1984L49.9758 96.8117Z" fill="#DBDAC7"/>
<path fill-rule="evenodd" clip-rule="evenodd" d="M51.0781 97.1992L52.0297 94.7586L52.2258 97.6461L51.0781 97.1992Z" fill="#EBE9DC"/>
<path fill-rule="evenodd" clip-rule="evenodd" d="M52.7063 86.6391C52.5531 85.9774 52.8071 85.4531 53.2664 85.0008L53.5297 85.1805L52.7063 86.6391Z" fill="#CECDB7"/>
<path fill-rule="evenodd" clip-rule="evenodd" d="M50.2469 74.3531L50.1954 74.3445L50.1438 74.3523L50.2649 73.9156L50.2469 74.3531Z" fill="#4FAA41"/>
</svg>
