<svg width="100" height="100" viewBox="0 0 100 100" fill="none" xmlns="http://www.w3.org/2000/svg">
<g clip-path="url(#clip0_55_27)">
<path d="M58.8813 0.195312C58.1583 0.195312 57.4868 0.350391 56.8669 0.557031C58.1841 1.43477 58.9071 2.59688 59.2685 3.91406C59.2946 4.09492 59.3462 4.22422 59.372 4.40469C59.3978 4.55977 59.4235 4.71484 59.4235 4.86953C59.527 7.14219 58.8298 7.42617 58.3388 8.76914C57.5899 10.4996 57.7966 12.359 58.7005 13.8566C58.7778 14.0375 58.8813 14.2441 59.0102 14.425C58.029 7.89102 63.4782 6.90977 64.4853 4.86953C64.5626 3.08789 63.0907 1.89961 61.9286 1.07344C60.8181 0.401562 59.811 0.195312 58.8813 0.195312ZM67.0935 1.66719C66.9903 2.26133 67.0677 2.10625 67.0419 2.41641C67.0161 2.62305 67.0161 2.88125 66.9903 3.08789C66.9388 3.29414 66.8872 3.50078 66.8095 3.70742C66.7579 3.91445 66.6806 4.1207 66.6032 4.32734C66.4997 4.53398 66.4224 4.71484 66.3188 4.92109C66.2415 5.02461 66.1899 5.12813 66.1122 5.23125L65.9575 5.46367C65.8286 5.64453 65.6993 5.82539 65.57 5.98008C65.4149 6.13516 65.286 6.31602 65.1052 6.44492V6.4707C64.9501 6.6 64.7954 6.75508 64.6145 6.88398C64.0724 7.29727 63.4524 7.60703 62.8841 7.99453C62.7036 8.12344 62.5227 8.22695 62.3677 8.38203C62.1868 8.51094 62.0317 8.63984 61.877 8.79531C61.6962 8.95 61.5673 9.10508 61.4122 9.28594C61.2833 9.44062 61.1282 9.62187 61.0247 9.80234C60.8958 9.9832 60.7669 10.1637 60.6634 10.3445C60.5599 10.5516 60.4825 10.732 60.379 10.9383C60.3017 11.1453 60.2243 11.3262 60.1728 11.5324C60.095 11.7648 60.0435 11.9715 59.9919 12.1781C59.9661 12.2816 59.9661 12.4105 59.9403 12.5141C59.9142 12.6172 59.9142 12.7207 59.8888 12.8238C59.8888 13.0305 59.8626 13.2629 59.8626 13.4695C59.8626 13.6246 59.8626 13.7793 59.8888 13.9344C59.8888 14.141 59.9145 14.3477 59.9661 14.5801C59.9919 14.7867 60.0435 14.993 60.095 15.1996C60.1728 15.4066 60.2243 15.6129 60.302 15.8195C60.3532 15.9484 60.431 16.0777 60.4825 16.1812L54.5431 13.8828C53.5509 13.6003 52.552 13.3419 51.5474 13.1078L49.9204 12.7207C48.3708 12.4105 46.7954 12.1781 45.2204 12.0234C45.1688 12.0234 45.1427 11.9973 45.0915 11.9973C43.5553 11.8425 42.0124 11.765 40.4685 11.7648C39.3321 11.7648 38.1958 11.8164 37.0856 11.8937C35.5099 11.9973 33.9349 12.2039 32.3591 12.4621C31.972 12.5141 31.5845 12.5914 31.1974 12.6691C30.3966 12.8238 29.622 13.0047 28.8731 13.1855L27.7106 13.4953C27.3235 13.6504 26.9618 13.8313 26.6005 13.9859L25.7481 14.3734C25.6966 14.3992 25.6446 14.3992 25.6192 14.425C25.3606 14.5539 25.1282 14.6574 24.8958 14.7863C24.8336 14.8075 24.7731 14.8335 24.7149 14.8641C24.431 14.993 24.147 15.148 23.9146 15.2773C23.7337 15.3547 23.5528 15.4578 23.3981 15.5352C23.3232 15.5826 23.2456 15.6258 23.1657 15.6645C22.9333 15.7934 22.7009 15.9227 22.4938 16.052C22.2802 16.1693 22.0734 16.2987 21.8743 16.4395C21.6935 16.5684 21.513 16.6719 21.3579 16.8008C21.3321 16.8266 21.3063 16.8266 21.2802 16.8523C21.1255 16.9559 20.9446 17.0848 20.7896 17.2141L20.738 17.2656L20.3509 17.5754C20.2989 17.6016 20.2474 17.6531 20.1958 17.6789C20.0669 17.782 19.9376 17.9113 19.8083 18.0148C19.7825 18.066 19.731 18.0922 19.7052 18.118C19.5501 18.273 19.395 18.402 19.2403 18.557C19.2142 18.557 19.2142 18.5828 19.1888 18.6086C19.0337 18.7375 18.8786 18.8926 18.7239 19.0477C18.6978 19.0734 18.6978 19.0992 18.672 19.0992C18.5431 19.2281 18.4142 19.3574 18.2849 19.5125C18.2333 19.5641 18.156 19.6156 18.104 19.6672C17.9751 19.8223 17.82 19.9773 17.6649 20.132C17.6392 20.184 17.5876 20.2098 17.5614 20.2613C17.3552 20.468 17.1743 20.6746 16.9677 20.8813L16.8903 20.9586C16.4771 21.3977 16.038 21.8367 15.5731 22.2242C15.1152 22.6329 14.6321 23.0124 14.1267 23.3605C13.6259 23.7117 13.1089 24.0392 12.5774 24.3418C12.0504 24.6309 11.5072 24.8895 10.9505 25.1164C10.4011 25.3499 9.84084 25.5567 9.27158 25.7363C8.18721 25.9688 7.07627 26.4078 6.12119 26.4852C5.91416 26.4852 5.68213 26.5367 5.47549 26.5625C5.2596 26.6114 5.04435 26.6631 4.82979 26.7176L4.20986 26.95C4.00322 27.0273 3.79697 27.1309 3.59033 27.234C3.40947 27.3629 3.20283 27.4664 3.02197 27.5957C2.84111 27.7246 2.66064 27.8797 2.50557 28.0348C2.32471 28.1637 2.14385 28.3445 1.98916 28.4996C1.83408 28.6805 1.679 28.8355 1.5501 29.016C1.42119 29.2227 1.26611 29.4035 1.1626 29.6098C1.03369 29.791 0.904395 29.9973 0.800879 30.2039C0.697754 30.4363 0.594629 30.643 0.516894 30.8758C0.435435 31.0981 0.357949 31.3218 0.284473 31.5469C0.23291 31.7535 0.181348 31.9602 0.155566 32.1668C0.155566 32.1926 0.129395 32.2184 0.129395 32.2441C0.077832 32.4766 0.077832 32.7867 0.0520508 32.9414C0.0262695 33.1223 0.000488281 33.2773 0.000488281 33.4578C0.000488281 33.5613 0.000488281 33.6902 0.0262695 33.7938C0.0520508 33.9746 0.077832 34.1297 0.129785 34.2844C0.181348 34.4395 0.23291 34.5941 0.310645 34.7492V34.775C0.387988 34.9301 0.491113 35.0852 0.594629 35.2398C0.697754 35.3949 0.80127 35.55 0.930566 35.7047C1.05947 35.8336 1.21416 35.9891 1.36924 36.118C1.52432 36.273 1.67939 36.402 1.85986 36.5312C2.47979 37.0734 2.63486 37.2543 3.43525 37.6676C3.56416 37.7449 3.69346 37.7965 3.84854 37.8742C3.87432 37.8742 3.9001 37.9 3.92588 37.9C3.92588 37.9516 3.92588 37.9773 3.95205 38.0289C3.97783 38.2359 4.02939 38.4422 4.08096 38.6488C4.13252 38.8813 4.20986 39.0879 4.2876 39.2687C4.36494 39.4238 4.4165 39.5785 4.49424 39.7336C4.52002 39.7852 4.5458 39.8371 4.57158 39.8625C4.6751 40.0695 4.77861 40.25 4.88174 40.4309L5.26885 40.973C5.39775 41.1281 5.55283 41.309 5.70791 41.4641C5.86299 41.6188 6.01807 41.748 6.19854 41.9027C6.19854 41.9027 6.22471 41.9289 6.2501 41.9289C6.40518 42.0578 6.56025 42.1867 6.71494 42.2902C6.8958 42.4191 7.07666 42.5227 7.2833 42.6262C7.46416 42.7293 7.6708 42.8328 7.87705 42.9102C8.03213 42.9875 8.21299 43.0391 8.39385 43.091C8.41963 43.1168 8.44541 43.1168 8.49697 43.1426C8.60049 43.1684 8.72939 43.1941 8.83291 43.2199C8.75518 44.6145 8.72939 45.9316 8.93604 46.3965C9.16846 46.9129 10.3048 45.3379 11.4411 43.5301C11.2864 45.3117 11.1833 47.4035 11.4411 48.0234C11.7251 48.6691 13.2747 46.6547 14.6177 44.4336C32.9278 40.1984 49.6364 52.8527 51.3927 70.7238C51.0567 67.9348 47.6224 66.3852 46.047 66.7727C45.272 68.6836 43.9552 71.1371 41.8376 72.6605C42.0181 70.9563 41.9407 69.2 41.579 67.4957C41.011 69.8715 39.9005 72.0926 38.3767 74.0035C35.9235 74.1844 33.4704 72.9965 32.1786 71.2145C32.0755 71.1371 32.0497 70.982 31.9724 70.8785C31.8946 70.698 31.8173 70.5172 31.7653 70.3363C31.6901 70.1632 31.6381 69.9809 31.6106 69.7941C31.5849 69.6133 31.5849 69.4324 31.5849 69.2258V68.8387C31.6106 68.6578 31.6622 68.477 31.7138 68.2961C31.7653 68.1156 31.8173 67.9348 31.8946 67.7539C31.9981 67.573 32.0755 67.3922 32.2044 67.2117C32.6435 65.9719 32.6435 64.9648 31.8431 64.3707C31.688 64.2695 31.5237 64.1832 31.3524 64.1129C31.2489 64.0867 31.12 64.0348 31.0165 64.0094C30.9392 63.9832 30.8876 63.9574 30.8099 63.9316C30.6294 63.8801 30.4485 63.8285 30.2677 63.8027C30.0915 63.7517 29.909 63.7255 29.7255 63.725C29.5446 63.6992 29.338 63.6734 29.1571 63.6734C29.0282 63.6734 28.8993 63.6992 28.7696 63.6992C28.5634 63.6992 28.3825 63.7254 28.2017 63.777C28.0208 63.8027 27.8399 63.8285 27.6595 63.8801C27.4786 63.9316 27.2978 63.9836 27.1169 64.0609C26.9364 64.1383 26.781 64.216 26.6005 64.2934C26.4454 64.3707 26.2907 64.4742 26.1099 64.5516C20.0927 68.4773 23.6821 77.6707 27.7884 80.3309C26.2388 80.6148 24.6634 80.9508 24.2247 81.2863L24.1731 81.3379C25.2833 82.0098 26.4454 82.5777 27.6595 83.0684C29.3122 83.6105 31.0685 84.1012 31.8431 84.3078V84.3336C33.9827 84.7723 36.1706 84.9286 38.3509 84.7984C49.7915 83.9977 59.1661 75.2949 60.8704 63.8285C60.922 64.0609 60.9739 64.2676 61.0255 64.5C61.1028 64.9648 61.2063 65.4555 61.2579 65.9461V65.9723C61.3095 66.2047 61.3353 66.4371 61.3614 66.6438V66.7469C61.3872 66.9793 61.413 67.2117 61.413 67.4184C61.4388 67.7023 61.4645 67.9863 61.4645 68.2707V68.6836C61.4645 68.8129 61.4903 68.968 61.4903 69.0969C61.4903 69.252 61.4645 69.407 61.4645 69.5617V69.9234C61.4645 70.1043 61.4388 70.2594 61.4388 70.4398C61.4388 70.5434 61.4388 70.6465 61.4126 70.7758C61.4126 70.9563 61.3868 71.1371 61.3868 71.3437C61.361 71.4211 61.361 71.4988 61.361 71.5762C61.3353 71.7828 61.3095 71.9637 61.2833 72.1699C61.2833 72.2477 61.2833 72.325 61.2575 72.4027C61.2317 72.6605 61.1802 72.8934 61.1544 73.1516V73.2031C61.1028 73.4355 61.0509 73.6941 60.9993 73.9266V74.0039L60.8442 74.7012C60.8442 74.727 60.8185 74.7785 60.8185 74.8043C60.7669 75.0367 60.7153 75.2691 60.6376 75.502V75.5793C60.5602 75.8375 60.4829 76.0699 60.4313 76.3023C60.4052 76.3281 60.4052 76.3539 60.4052 76.3539L60.1728 77.1285C60.0696 77.3871 59.9923 77.6195 59.8888 77.8777C59.7856 78.1355 59.7079 78.3941 59.6048 78.6266C59.5013 78.8848 59.3978 79.1172 59.295 79.3754H59.2688C59.1657 79.6078 59.0622 79.866 58.9329 80.0984C58.9119 80.1607 58.886 80.2211 58.8556 80.2793C58.8298 80.3055 58.8298 80.3309 58.804 80.357C57.1255 83.7398 54.6462 86.7098 51.5474 89.034C51.3403 89.1629 51.1341 89.3184 50.9274 89.473C50.8759 89.5246 50.7985 89.5508 50.7466 89.602C50.5657 89.7312 50.3853 89.8605 50.1786 89.9895L50.256 90.1445H50.2817L51.3665 89.9895H51.3923C52.0642 89.8863 52.7352 89.757 53.4067 89.6281C53.5876 89.6023 53.7942 89.5508 53.9747 89.4992C54.104 89.473 54.2071 89.4473 54.3364 89.4215C54.5173 89.3957 54.6981 89.3441 54.8786 89.318C55.0337 89.2664 55.1888 89.2406 55.3435 89.1891C57.9263 88.5691 60.4313 87.7168 62.8329 86.7098C58.7267 92.3137 53.2259 96.8332 46.7954 99.8031C49.7653 99.5965 52.7353 99.1059 55.602 98.2797C66.0095 95.2062 74.7642 88.2078 80.0067 78.7816C78.9425 84.761 76.5702 90.4313 73.0595 95.3871C75.5623 93.7361 77.8748 91.8134 79.9548 89.6539C85.7399 83.6109 89.536 75.9406 90.8274 67.7023C91.7084 71.7895 91.9609 75.9871 91.5763 80.1504C110.222 54.1441 93.1259 27.1828 85.9724 20.0809C85.9462 20.0293 85.9208 20.0035 85.9208 19.952C85.8946 19.9777 85.8946 19.9777 85.8946 20.0035C85.8946 19.9773 85.8946 19.9773 85.8688 19.952C85.8688 20.2617 85.8431 20.5715 85.8173 20.8816C85.7399 21.4754 85.6622 22.0438 85.5591 22.6121C85.4302 23.1801 85.2751 23.748 85.12 24.3164C84.9361 24.8754 84.7293 25.4267 84.5001 25.9688C84.2628 26.504 84.0044 27.0297 83.7255 27.5445C83.4415 28.0352 83.1317 28.5516 82.7958 29.0164C82.4637 29.4967 82.1105 29.962 81.7372 30.4109C81.3493 30.8758 80.9364 31.2891 80.5231 31.7023C80.28 31.9248 80.0303 32.14 79.7743 32.3477C79.5673 32.5285 79.3868 32.6836 79.1802 32.8645C78.7153 33.2258 78.2505 33.5617 77.7341 33.8715C77.2435 34.1812 76.7267 34.4914 76.2106 34.7496C75.6677 35.0078 75.1255 35.2402 74.5833 35.4727C74.0329 35.6804 73.4727 35.8614 72.9048 36.0148C72.3337 36.1685 71.7564 36.2978 71.1743 36.4023C70.5806 36.5059 69.9868 36.5574 69.4185 36.609C69.0052 36.6348 68.5919 36.6605 68.1786 36.6605C67.5849 36.6605 66.9907 36.609 66.4228 36.5574C65.8286 36.5055 65.2345 36.4281 64.6665 36.2988C64.0728 36.1957 63.5044 36.041 62.936 35.8602H62.9103C63.4786 35.8082 64.047 35.7566 64.6149 35.6531C65.1976 35.5515 65.775 35.4223 66.3454 35.266C66.9132 35.1125 67.4733 34.9316 68.0235 34.7238C68.5919 34.5168 69.1341 34.259 69.6509 34.0004C70.1931 33.7426 70.6837 33.4582 71.2001 33.1484C71.6907 32.8125 72.1817 32.4766 72.6466 32.1152C73.1092 31.7556 73.549 31.3674 73.9634 30.9531C74.4024 30.5656 74.7899 30.127 75.1774 29.6875C75.5549 29.2353 75.9166 28.7702 76.2618 28.293C76.3134 28.2156 76.3653 28.1125 76.4169 28.0352C76.6751 27.6219 76.9333 27.2086 77.1657 26.7953C77.4498 26.2833 77.7085 25.7575 77.9407 25.2199C78.174 24.6795 78.3807 24.1281 78.5603 23.5676C78.7411 23.0246 78.8704 22.4566 78.9993 21.8887C79.1028 21.2949 79.2063 20.7266 79.2575 20.1582C79.3091 19.5645 79.361 18.9707 79.361 18.4023C79.361 17.9891 79.3353 17.5758 79.3095 17.1625C79.2579 16.5688 79.1806 16.0004 79.1024 15.432C79.0009 14.8496 78.8719 14.2722 78.7157 13.702C78.5345 13.1598 78.354 12.5914 78.1474 12.0492C77.9403 11.507 77.6825 10.9645 77.4243 10.448C77.1399 9.93164 76.856 9.41484 76.5462 8.92461C76.2165 8.44054 75.8719 7.96675 75.513 7.50391C75.1242 7.05845 74.7282 6.61933 74.3251 6.18672C74.1075 5.96521 73.8836 5.75001 73.6536 5.54141C72.4966 4.64281 71.2987 3.79816 70.0638 3.01016C69.897 2.91396 69.7245 2.82786 69.5474 2.75234C68.6954 2.20977 67.895 1.92578 67.0942 1.66758L67.0935 1.66719Z" fill="#E0234E"/>
</g>
<defs>
<clipPath id="clip0_55_27">
<rect width="100" height="100" fill="white"/>
</clipPath>
</defs>
</svg>
