<svg width="100" height="100" viewBox="0 0 100 100" fill="none" xmlns="http://www.w3.org/2000/svg">
<path d="M73.2883 71.9625C73.9016 66.8586 73.718 66.1094 77.5195 66.9367L78.4844 67.0211C81.4078 67.1539 85.232 66.5508 87.4789 65.507C92.3156 63.2625 95.1828 59.5164 90.4148 60.5C79.5367 62.7445 78.7891 59.0609 78.7891 59.0609C90.2758 42.018 95.0773 20.3828 90.932 15.0867C79.6273 0.642184 60.0594 7.47265 59.732 7.64921L59.6273 7.66875C57.4781 7.22265 55.0726 6.95625 52.3703 6.9125C47.4476 6.83125 43.7125 8.20312 40.8789 10.3516C40.8789 10.3516 5.9703 -4.03047 7.59452 28.4383C7.93983 35.3453 17.4945 80.7023 28.8914 67.0023C33.057 61.993 37.082 57.757 37.082 57.757C39.0805 59.0844 41.4742 59.7625 43.9836 59.5187L44.1781 59.3531C44.1172 59.975 44.1437 60.5836 44.2555 61.3039C41.3203 64.5844 42.1828 65.1602 36.3133 66.368C30.3742 67.5914 33.8633 69.7703 36.1406 70.3398C38.9023 71.0305 45.2906 72.0086 49.6078 65.9664L49.4359 66.6555C50.5875 67.5773 50.5101 73.2781 50.6726 77.3508C50.8359 81.4242 51.1086 85.225 51.9391 87.4664C52.7695 89.707 53.7492 95.4789 61.4633 93.8258C67.9101 92.4477 72.8391 90.4594 73.2883 71.9625Z" fill="black"/>
<path d="M58.9516 97.8563C55.5398 97.8563 53.318 96.5367 51.9687 95.2625C49.932 93.3406 49.1242 90.8649 48.6414 89.3859L48.4328 88.7688C47.4609 86.1453 47.1312 82.368 46.9359 77.5039C46.9062 76.7734 46.8859 76.0211 46.8633 75.2234C46.8469 74.6399 46.8266 73.9078 46.7969 73.1422C45.5677 73.7283 44.263 74.1405 42.9203 74.3672C40.5148 74.7781 37.9289 74.6453 35.2328 73.9711C33.3305 73.4953 31.3539 72.5094 30.2273 70.9867C26.9437 73.8625 23.8117 73.4727 22.1055 72.9031C19.0953 71.8992 16.4016 69.0781 13.8695 64.2805C12.0656 60.8625 10.3211 56.4094 8.68359 51.0438C5.83203 41.7 4.02031 31.8586 3.85937 28.6274C3.35312 18.5141 6.07578 11.2813 11.95 7.13204C21.2164 0.586725 35.2562 4.43594 40.375 6.1836C43.8141 4.11094 47.8602 3.10235 52.432 3.17501C54.8875 3.21485 57.2258 3.43048 59.3977 3.81798C61.6633 3.10548 66.1383 2.08282 71.2609 2.14688C80.6992 2.25938 88.5203 5.93751 93.8773 12.7836C97.7008 17.668 95.8102 27.925 94.3438 33.6047C92.2797 41.5938 88.6633 50.0906 84.2211 57.4875C85.4273 57.4961 87.175 57.3516 89.6594 56.8383C94.5609 55.8266 95.9945 58.4547 96.3836 59.6313C97.9422 64.3516 91.1672 67.9188 89.0539 68.9C86.3461 70.157 81.9313 70.9227 78.3156 70.757L78.1578 70.7469L77.2078 70.6633L77.1141 71.4555L77.0234 72.2297C76.7805 81.6039 75.4414 87.5406 72.6859 91.4633C69.7977 95.5758 65.7836 96.7281 62.2477 97.4859C61.0414 97.7438 59.9453 97.8563 58.9516 97.8563ZM51.7719 63.7383C53.9742 65.5008 54.1672 68.8172 54.3398 75.0149C54.3617 75.7883 54.382 76.5203 54.4094 77.2039C54.4922 79.2742 54.6867 84.1219 55.4461 86.1703C55.5531 86.4602 55.6492 86.7539 55.7508 87.0656C56.5969 89.6563 57.0211 90.9555 60.6797 90.1734C63.7508 89.5149 65.3297 88.9242 66.5656 87.1649C68.3617 84.607 69.3664 79.4617 69.5508 71.8719L73.2875 71.9625L69.5766 71.5172L69.6859 70.5906C70.0414 67.5359 70.2977 65.3297 72.3391 63.8703C73.9773 62.7 75.8438 62.8133 77.3305 63.0813C75.6969 61.8469 75.2453 60.3992 75.125 59.8055L74.8133 58.2703L75.6891 56.9711C80.7336 49.4867 84.893 40.2883 87.1023 31.7336C89.3727 22.9438 88.6805 18.2758 87.9883 17.393C78.825 5.68438 62.9352 10.5188 61.2758 11.0672L60.9953 11.2188L59.5891 11.4805L58.8687 11.3313C56.8828 10.9188 54.6766 10.6906 52.3117 10.6524C48.5961 10.5899 45.5984 11.468 43.1406 13.3328L41.4352 14.6258L39.4563 13.8109C35.2281 12.082 22.8094 8.60626 16.2562 13.2477C12.6187 15.8242 10.9617 20.8727 11.3305 28.2531C11.4523 30.6899 13.1078 39.9141 15.8391 48.8602C19.6133 61.2234 23.043 65.3305 24.475 65.8078C24.725 65.8922 25.3734 65.3883 26.0187 64.6133C28.7094 61.3878 31.4955 58.2432 34.3734 55.1836L36.5375 52.9063L39.1539 54.6445C40.2086 55.3453 41.3719 55.743 42.5664 55.818L48.8063 50.4961L47.9023 59.7211C47.882 59.9281 47.8719 60.2102 47.9531 60.7336L48.225 62.482L47.0453 63.8008L46.9094 63.9539L50.3375 65.5359L51.7719 63.7383Z" fill="black"/>
<path d="M90.4149 60.5C79.536 62.7445 78.7884 59.0609 78.7884 59.0609C90.2751 42.0172 95.0766 20.3812 90.9329 15.0867C79.6282 0.642965 60.0587 7.47343 59.7321 7.65078L59.6266 7.66953C57.4774 7.22343 55.072 6.95781 52.3681 6.91406C47.4454 6.83359 43.7118 8.20468 40.8782 10.3531C40.8782 10.3531 5.96883 -4.02813 7.59227 28.4398C7.93758 35.3477 17.4923 80.7047 28.8891 67.0047C33.0548 61.9953 37.079 57.7594 37.079 57.7594C39.0782 59.0867 41.4712 59.7648 43.9798 59.5211L44.1751 59.3555C44.1141 59.9773 44.1423 60.5859 44.2532 61.3062C41.3173 64.5867 42.1798 65.1625 36.3102 66.3703C30.3712 67.5937 33.8602 69.7727 36.1384 70.3422C38.8993 71.0328 45.2884 72.0109 49.6048 65.9688L49.4321 66.6578C50.5829 67.5797 51.3907 72.6516 51.2556 77.2492C51.1196 81.8469 51.029 85.0039 51.936 87.4695C52.8423 89.9352 53.7454 95.482 61.461 93.8289C67.9079 92.4477 71.2485 88.8672 71.7141 82.8953C72.0438 78.6492 72.7899 79.2773 72.8376 75.4812L73.4368 73.6844C74.1274 67.9289 73.5462 66.0727 77.5188 66.9359L78.4837 67.0203C81.4071 67.1531 85.2329 66.55 87.479 65.5062C92.3149 63.2633 95.1829 59.5164 90.4149 60.5Z" fill="#336791"/>
<path d="M59.3413 95.5523C52.9101 95.5523 50.8726 90.4594 50.039 88.3766C48.8187 85.3242 48.5554 73.4789 48.8273 63.7648C48.8313 63.601 48.8677 63.4396 48.9344 63.2899C49.0011 63.1403 49.0968 63.0052 49.2159 62.8927C49.3349 62.7801 49.4751 62.6922 49.6283 62.6341C49.7816 62.576 49.9447 62.5487 50.1085 62.5539C50.2722 62.5584 50.4333 62.595 50.5827 62.6618C50.7322 62.7286 50.867 62.8242 50.9795 62.9431C51.0919 63.062 51.1798 63.202 51.2382 63.3549C51.2965 63.5078 51.3242 63.6708 51.3195 63.8344C51.0062 75.0383 51.4507 85.1914 52.3538 87.4508C53.7632 90.9734 55.9007 94.0547 61.9437 92.7602C67.6804 91.5297 69.8288 89.3547 70.7859 83.807C71.5203 79.55 72.9726 67.4391 73.1515 65.0492C73.1635 64.8859 73.2075 64.7266 73.2812 64.5803C73.3549 64.434 73.4567 64.3038 73.5808 64.1969C73.7049 64.0901 73.8489 64.0088 74.0044 63.9577C74.16 63.9066 74.3242 63.8868 74.4874 63.8992C74.817 63.9242 75.1231 64.0789 75.3387 64.3293C75.5543 64.5798 75.6618 64.9056 75.6374 65.2352C75.4507 67.7234 74.0054 79.8109 73.2429 84.2313C72.1132 90.7836 69.1921 93.7555 62.4663 95.1977C61.3234 95.4422 60.2851 95.5516 59.3413 95.5523ZM24.4695 70.6766C23.9073 70.6746 23.3492 70.5823 22.8163 70.4031C18.639 69.0094 14.6601 62.2063 10.9898 50.1805C8.19603 41.0266 6.42572 31.4719 6.27025 28.3664C5.8101 19.1602 8.18041 12.6469 13.3171 9.00859C23.4788 1.80859 40.5734 8.66484 41.296 8.96016C41.6022 9.0852 41.8461 9.32674 41.9742 9.63163C42.1022 9.93652 42.1039 10.2798 41.9788 10.5859C41.8538 10.8921 41.6123 11.136 41.3074 11.2641C41.0025 11.3921 40.6592 11.3938 40.3531 11.2687C40.1882 11.2016 23.796 4.63437 14.7531 11.0461C10.3609 14.1602 8.34447 19.9461 8.75931 28.2422C8.88978 30.8586 10.5437 40.1836 13.3734 49.4523C16.6499 60.1883 20.3788 66.9625 23.6046 68.0383C24.1109 68.207 25.6515 68.7203 27.8538 66.0719C30.4222 62.9874 33.0868 59.9843 35.8437 57.0672C36.0744 56.8371 36.386 56.7064 36.7118 56.7032C37.0376 56.6999 37.3517 56.8243 37.587 57.0498C37.8222 57.2752 37.9598 57.5838 37.9704 57.9094C37.981 58.2351 37.8638 58.5519 37.6437 58.7922C37.6062 58.8312 33.857 62.7508 29.771 67.6664C27.8359 69.9938 25.9812 70.6766 24.4695 70.6766ZM78.7109 60.1727C78.4849 60.1724 78.2632 60.1106 78.0696 59.9941C77.8759 59.8776 77.7176 59.7106 77.6116 59.511C77.5055 59.3115 77.4556 59.0868 77.4673 58.8611C77.4791 58.6355 77.5519 58.4172 77.6781 58.2297C89.2898 40.9992 93.3656 20.1797 89.8749 15.7187C85.4812 10.1047 79.2773 7.17266 71.4343 7.00312C65.6273 6.87812 61.0117 8.36094 60.257 8.61953L60.0671 8.69687C59.3085 8.93516 58.7265 8.51953 58.507 8.03359C58.3818 7.75518 58.3628 7.44059 58.4536 7.14915C58.5445 6.85772 58.7388 6.60959 58.9999 6.45156C59.0359 6.43047 59.1499 6.38203 59.3351 6.31406C60.6171 5.84453 65.3031 4.43828 71.107 4.50469C79.7851 4.59687 86.9538 7.94297 91.8367 14.1828C94.1468 17.1352 94.1523 23.9367 91.8515 32.8445C89.5062 41.9266 85.0929 51.6867 79.7445 59.6234C79.5054 59.9805 79.1117 60.1727 78.7109 60.1727ZM79.3046 68.1492C77.3218 68.1492 75.5445 67.8695 74.4804 67.232C73.3867 66.5766 73.1781 65.6859 73.1507 65.2133C72.8523 59.9711 75.7445 59.0586 77.2195 58.6422C77.014 58.3312 76.7218 57.9656 76.4195 57.5883C75.5593 56.5133 74.3812 55.0414 73.4734 52.8398C73.3312 52.4961 72.8859 51.6969 72.3703 50.7711C69.5742 45.757 63.7562 35.3234 67.4937 29.9805C69.2234 27.5078 72.6679 26.5344 77.7429 27.0773C76.2499 22.5289 69.1406 8.30078 52.271 8.02422C47.1976 7.93984 43.0367 9.5 39.9101 12.657C32.9101 19.7266 33.1632 32.518 33.1671 32.6461C33.1714 32.8097 33.1435 32.9726 33.0848 33.1254C33.0262 33.2783 32.938 33.4181 32.8254 33.5368C32.7127 33.6556 32.5777 33.751 32.4282 33.8176C32.2787 33.8842 32.1175 33.9207 31.9538 33.925C31.7902 33.9293 31.6273 33.9013 31.4745 33.8427C31.3217 33.7841 31.1819 33.6959 31.0631 33.5832C30.9444 33.4706 30.849 33.3356 30.7824 33.1861C30.7157 33.0365 30.6792 32.8754 30.6749 32.7117C30.6593 32.1437 30.3984 18.7203 38.139 10.9023C41.7617 7.24375 46.5304 5.4375 52.3124 5.53203C63.1046 5.70937 70.0515 11.1961 73.9781 15.7672C78.2585 20.7492 80.357 26.2445 80.5296 28.0789C80.6585 29.443 79.6796 29.7156 79.482 29.7562L79.032 29.7664C74.0515 28.9687 70.8562 29.5227 69.5351 31.4102C66.6921 35.4734 72.196 45.343 74.546 49.5578C75.146 50.6328 75.5788 51.4102 75.7773 51.8898C76.5492 53.7617 77.5562 55.0195 78.3648 56.0305C79.0765 56.9195 79.6929 57.6906 79.9132 58.5953C80.0156 58.775 81.4679 60.9234 90.0859 59.1445C92.246 58.6992 93.5413 59.0797 93.9374 60.2773C94.7163 62.6328 90.346 65.3805 87.9265 66.5039C85.7585 67.5117 82.2984 68.1492 79.3046 68.1492ZM75.6359 65.0078C75.9093 65.2836 77.2773 65.7594 80.1101 65.6375C82.6288 65.5297 85.2851 64.982 86.8788 64.2422C88.9171 63.2953 90.2781 62.2367 90.9828 61.5141L90.5921 61.5859C85.082 62.7234 81.1843 62.5719 79.0078 61.1352C78.8615 61.0385 78.7207 60.9339 78.5859 60.8219C78.3499 60.9148 78.132 60.9758 77.9765 61.0195C76.7421 61.3656 75.4656 61.7242 75.6359 65.0078ZM40.0406 71.9727C38.6718 71.9727 37.2312 71.7859 35.7601 71.418C34.2359 71.0367 31.6663 69.8891 31.7054 68.0039C31.7499 65.8891 34.8257 65.2547 35.9835 65.0164C40.1663 64.1547 40.439 63.8094 41.746 62.1492C42.1273 61.6656 42.6015 61.0633 43.2484 60.3414C44.2085 59.2664 45.2578 58.7219 46.3671 58.7219C47.1398 58.7219 47.7734 58.9836 48.1921 59.1578C49.5265 59.7109 50.6398 61.0484 51.0976 62.6477C51.5109 64.0906 51.3132 65.4797 50.5429 66.5586C48.014 70.1 44.382 71.9727 40.0406 71.9727ZM34.3984 68.1109C34.7742 68.4016 35.5273 68.7898 36.3656 68.9992C37.6398 69.318 38.8757 69.4797 40.0413 69.4797C43.5929 69.4797 46.4445 68.0094 48.5156 65.1094C48.9476 64.5047 48.8179 63.7367 48.7023 63.3328C48.4601 62.4867 47.8585 61.7172 47.239 61.4602C46.9031 61.3211 46.6242 61.2148 46.3679 61.2148C46.2304 61.2148 45.8117 61.2148 45.107 62.0031C44.6207 62.55 44.1532 63.1134 43.7054 63.6922C42.0773 65.7594 41.3312 66.4609 36.4874 67.4586C35.3054 67.7008 34.6992 67.9477 34.3984 68.1109ZM43.9835 62.3609C43.6859 62.3605 43.3983 62.2536 43.1727 62.0596C42.947 61.8656 42.7982 61.5973 42.7531 61.3031C42.7221 61.0962 42.7012 60.8879 42.6906 60.6789C39.5156 60.6195 36.4523 59.257 34.1265 56.8305C31.1859 53.7625 29.8476 49.5117 30.4554 45.1687C31.1156 40.4523 30.8687 36.2891 30.7359 34.0523C30.6992 33.4305 30.6726 32.9812 30.6742 32.6703C30.6765 32.2758 30.6843 31.2297 34.1812 29.457C35.4249 28.8266 37.9187 27.7266 40.6429 27.4445C45.1562 26.9781 48.1312 28.9883 49.0218 33.1055C51.4257 44.2211 49.2124 49.1375 47.596 52.7281C47.2953 53.3969 47.0109 54.0281 46.7835 54.6398L46.5828 55.1789C45.7288 57.4687 44.9906 59.4469 45.2171 60.9242C45.242 61.086 45.2348 61.2511 45.1958 61.4101C45.1568 61.5691 45.0869 61.7189 44.9901 61.8509C44.8932 61.9828 44.7713 62.0944 44.6313 62.1793C44.4913 62.2641 44.336 62.3205 44.1742 62.3453L43.9835 62.3609ZM33.1749 33.0156L33.2234 33.9055C33.3609 36.2289 33.6171 40.5523 32.9234 45.5148C32.4226 49.0969 33.5163 52.593 35.9257 55.1055C37.8296 57.0914 40.3351 58.1875 42.9101 58.1875H42.9632C43.2515 56.9727 43.7304 55.6898 44.246 54.3078L44.4453 53.7719C44.7023 53.0813 45.0031 52.4125 45.3218 51.7047C46.8773 48.2484 48.814 43.9461 46.5835 33.6328C46.1421 31.5898 45.071 30.4078 43.3109 30.018C39.6953 29.2195 34.307 31.9391 33.1749 33.0156ZM40.6984 32.4867C40.6359 32.9273 41.5054 34.1039 42.6398 34.2609C43.7718 34.4195 44.7406 33.4992 44.8023 33.0586C44.864 32.618 43.9953 32.132 42.8609 31.9742C41.7273 31.8164 40.7585 32.0461 40.6984 32.4867ZM42.8999 34.6945L42.582 34.6727C41.8788 34.575 41.1679 34.132 40.6812 33.4867C40.5101 33.2602 40.2312 32.8211 40.2867 32.4289C40.3656 31.8539 41.0671 31.5094 42.1617 31.5094C42.4062 31.5094 42.6609 31.5273 42.9171 31.5633C43.5156 31.6461 44.071 31.8187 44.4812 32.0477C45.1921 32.4445 45.2445 32.8875 45.2124 33.1164C45.1249 33.7516 44.1148 34.6945 42.8999 34.6945ZM41.1117 32.5602C41.1468 32.832 41.8203 33.7289 42.6968 33.85L42.9007 33.8641C43.7101 33.8641 44.3148 33.2273 44.3859 33.0187C44.3109 32.8766 43.7906 32.5234 42.8038 32.3859C42.5914 32.3555 42.3771 32.3401 42.1624 32.3398C41.5281 32.3398 41.1913 32.4828 41.1117 32.5602ZM75.1781 31.5875C75.2398 32.0281 74.371 33.2047 73.2374 33.3625C72.1046 33.5203 71.1351 32.6008 71.0726 32.1602C71.0132 31.7195 71.882 31.2328 73.0148 31.0758C74.1476 30.9172 75.1156 31.1477 75.1781 31.5875ZM72.9757 33.5875C71.8851 33.5875 70.9437 32.7391 70.8663 32.1883C70.7765 31.5273 71.8648 31.025 72.9851 30.8695C73.232 30.8352 73.4765 30.818 73.7117 30.818C74.6788 30.818 75.3195 31.1016 75.3835 31.5594C75.4249 31.8555 75.1976 32.3125 74.8062 32.725C74.5476 32.9961 74.0046 33.4656 73.2648 33.568L72.9757 33.5875ZM73.7124 31.2336C73.4968 31.2336 73.2718 31.25 73.0437 31.2812C71.9179 31.4383 71.246 31.8898 71.2788 32.132C71.3163 32.3984 72.0351 33.1727 72.9765 33.1727L73.2085 33.1562C73.8234 33.0711 74.2851 32.6695 74.5054 32.4383C74.8515 32.075 74.989 31.7328 74.9726 31.6164C74.9507 31.4617 74.5351 31.2336 73.7124 31.2336ZM76.8101 56.8922C76.5843 56.8923 76.3626 56.831 76.1689 56.7149C75.9752 56.5987 75.8168 56.4321 75.7105 56.2328C75.6043 56.0335 75.5542 55.8091 75.5657 55.5835C75.5772 55.358 75.6498 55.1398 75.7757 54.9523C78.4304 50.9875 77.9445 46.9445 77.4749 43.0344C77.2742 41.3687 77.0679 39.6461 77.121 37.993C77.1757 36.2922 77.3921 34.8891 77.6007 33.532C77.8484 31.9242 78.0828 30.4055 77.9859 28.6023C77.9771 28.4389 78.0005 28.2753 78.0549 28.121C78.1093 27.9666 78.1936 27.8245 78.3029 27.7026C78.4122 27.5808 78.5445 27.4818 78.6921 27.4111C78.8397 27.3404 78.9998 27.2994 79.1632 27.2906C79.3267 27.2818 79.4902 27.3053 79.6446 27.3596C79.799 27.414 79.9411 27.4983 80.0629 27.6076C80.1847 27.717 80.2838 27.8492 80.3545 27.9968C80.4252 28.1444 80.4661 28.3045 80.4749 28.468C80.5859 30.5289 80.321 32.2477 80.0648 33.9109C79.8671 35.1945 79.6624 36.5219 79.6132 38.0727C79.5656 39.5367 79.7523 41.0914 79.9499 42.7367C80.4499 46.8945 81.0163 51.607 77.8476 56.3391C77.7335 56.5095 77.5791 56.6491 77.3981 56.7456C77.2172 56.8421 77.0152 56.8924 76.8101 56.8922Z" fill="white"/>
</svg>
