<svg width="100" height="100" viewBox="0 0 100 100" fill="none" xmlns="http://www.w3.org/2000/svg">
<path d="M30.4945 58.8234C35.5016 58.8234 39.5605 54.7645 39.5605 49.757C39.5605 44.7504 35.5016 40.6914 30.4941 40.6914C25.4875 40.6914 21.4285 44.75 21.4285 49.7574C21.4285 54.7645 25.4875 58.8234 30.4945 58.8234ZM9.06602 76.9551C14.073 76.9551 18.132 72.8965 18.132 67.8891C18.132 62.8824 14.073 58.8234 9.06563 58.8234C4.05938 58.8234 0 62.882 0 67.8891C0 72.8961 4.05859 76.9551 9.06602 76.9551ZM90.934 76.9551C95.941 76.9551 100 72.8965 100 67.8891C100 62.8824 95.9414 58.8234 90.934 58.8234C85.927 58.8234 81.868 62.882 81.868 67.8891C81.868 72.8961 85.927 76.9555 90.9344 76.9555L90.934 76.9551Z" fill="white"/>
<path d="M61.1582 50.1395C60.8684 47.1105 60.7207 44.5895 58.4004 42.8176C55.4621 40.5738 52.1332 42.0297 48.0332 40.5496C44.0039 39.575 41.0156 35.998 41.0156 31.7344C41.0156 26.7207 45.1477 22.6562 50.2445 22.6562C54.0199 22.6562 57.2656 24.8855 58.6953 28.0793C60.8832 32.2355 59.4609 36.4648 62.2102 38.5953C65.4652 41.118 69.8539 39.2707 74.7508 41.6609C76.3138 42.3782 77.6451 43.5181 78.5945 44.952C79.5639 46.4162 80.0799 48.1338 80.0781 49.8898C80.0781 54.1535 77.0898 57.7309 73.0609 58.7055C68.9605 60.1855 65.6316 58.7297 62.6934 60.9734C59.3887 63.4969 61.1578 67.7184 58.4645 72.1773C56.9359 75.1141 53.8289 77.1238 50.2445 77.1238C45.1477 77.1238 41.0156 73.0594 41.0156 68.0457C41.0156 64.4039 43.1961 61.2629 46.343 59.8168C51.2398 57.4262 55.6281 59.2738 58.8836 56.7512C60.7613 55.2957 61.1582 53.0508 61.1582 50.1395Z" fill="#D0021B"/>
</svg>
