<svg width="100" height="100" viewBox="0 0 100 100" fill="none" xmlns="http://www.w3.org/2000/svg">
<path d="M82.2199 34.3062C81.1557 33.9411 80.0824 33.6028 79.0012 33.2917C79.1828 32.5495 79.35 31.8163 79.4984 31.096C81.9352 19.2675 80.3422 9.73821 74.9012 6.60071C69.6844 3.5929 61.1527 6.72923 52.5363 14.2281C51.6871 14.9684 50.8568 15.7301 50.0461 16.5124C49.5034 15.9922 48.9511 15.4821 48.3895 14.9824C39.359 6.96439 30.3074 3.58509 24.8723 6.73157C19.6602 9.74876 18.1168 18.707 20.3105 29.9171C20.5288 31.0274 20.7752 32.1319 21.0496 33.2296C19.7684 33.5937 18.532 33.9812 17.3488 34.3937C6.76133 38.0851 0 43.8699 0 49.8702C0 56.0675 7.25859 62.2835 18.2859 66.0527C19.1799 66.357 20.0814 66.639 20.9895 66.8984C20.6945 68.0807 20.4327 69.271 20.2043 70.4679C18.1129 81.4835 19.7461 90.23 24.9441 93.2281C30.3129 96.3242 39.3238 93.1421 48.0977 85.4722C48.8091 84.8486 49.5049 84.2074 50.1844 83.5492C51.0623 84.3962 51.9637 85.2187 52.8875 86.0156C61.3867 93.3288 69.7805 96.282 74.9734 93.2757C80.3371 90.1706 82.0805 80.7745 79.8172 69.3429C79.6389 68.4473 79.439 67.5562 79.2176 66.6702C79.8504 66.4827 80.4715 66.2898 81.077 66.089C92.541 62.291 100 56.1503 100 49.8702C100 43.848 93.0203 38.0241 82.2199 34.3062ZM79.7336 62.0343C79.1867 62.2152 78.6258 62.3898 78.0539 62.5597C76.7883 58.5531 75.0805 54.2929 72.9902 49.8909C74.9848 45.5941 76.627 41.3882 77.857 37.4077C78.8801 37.7038 79.8727 38.0159 80.8297 38.3452C90.0836 41.5312 95.7281 46.2409 95.7281 49.8702C95.7281 53.7359 89.632 58.7542 79.7336 62.0343ZM75.6266 70.1726C76.6273 75.2273 76.7699 79.7976 76.107 83.3706C75.5117 86.5812 74.3141 88.7214 72.8328 89.5788C69.6816 91.4031 62.9422 89.032 55.6738 82.7773C54.8146 82.0364 53.9761 81.2718 53.1594 80.4843C55.9773 77.4027 58.7934 73.8202 61.5418 69.8413C66.3762 69.4124 70.9434 68.7109 75.0852 67.7535C75.2847 68.5555 75.4652 69.3621 75.6266 70.1726ZM34.0922 89.2636C31.0133 90.3507 28.5609 90.382 27.0785 89.5273C23.9242 87.7081 22.6129 80.6851 24.4016 71.2648C24.6142 70.1516 24.8576 69.0445 25.1316 67.9449C29.2277 68.8511 33.7617 69.5027 38.6074 69.8956C41.3746 73.789 44.2719 77.3675 47.1918 80.5011C46.5713 81.1015 45.936 81.6866 45.2867 82.2558C41.4066 85.6472 37.5188 88.0534 34.0922 89.2636ZM19.668 62.0105C14.7918 60.3437 10.7648 58.1777 8.00469 55.814C5.52422 53.6902 4.27227 51.5812 4.27227 49.8702C4.27227 46.2288 9.70078 41.5843 18.7551 38.4277C19.8539 38.0449 21.0039 37.6835 22.1973 37.3445C23.4488 41.4148 25.0902 45.6706 27.0711 49.9741C25.0645 54.3413 23.3996 58.6652 22.1359 62.7835C21.3071 62.5461 20.4842 62.2883 19.668 62.0105ZM24.5031 29.0964C22.6238 19.4921 23.8719 12.2472 27.0129 10.4288C30.3582 8.49212 37.7559 11.2534 45.5531 18.1769C46.0616 18.6294 46.5618 19.091 47.0535 19.5616C44.148 22.6816 41.2773 26.2335 38.5348 30.1038C33.8316 30.5398 29.3297 31.2398 25.1906 32.1777C24.9356 31.1567 24.7064 30.129 24.5031 29.0964ZM67.6387 39.748C66.661 38.0593 65.6471 36.3918 64.5977 34.7468C67.7883 35.1503 70.8453 35.6859 73.716 36.3406C72.8543 39.1031 71.7801 41.9909 70.5156 44.9519C69.5914 43.1983 68.6322 41.4633 67.6387 39.748ZM50.048 22.6148C52.0184 24.7495 53.9918 27.1327 55.9328 29.7187C51.9953 29.5327 48.0512 29.5319 44.1137 29.7163C46.0566 27.1542 48.0469 24.7742 50.048 22.6148ZM32.3445 39.7773C31.3634 41.4788 30.4221 43.2029 29.5215 44.9484C28.2777 41.998 27.2133 39.0968 26.3441 36.2952C29.1973 35.657 32.2398 35.1351 35.4102 34.739C34.349 36.3941 33.3268 38.0742 32.3445 39.7773ZM35.5012 65.3054C32.2258 64.9398 29.1375 64.4449 26.2852 63.8238C27.168 60.9722 28.2559 58.0093 29.5266 54.9956C30.4308 56.7424 31.376 58.4676 32.3613 60.1699C33.3746 61.9199 34.4238 63.6339 35.5012 65.3054ZM50.166 77.4265C48.141 75.2421 46.1215 72.8253 44.1492 70.2261C46.0641 70.3011 48.016 70.3394 50 70.3394C52.0383 70.3394 54.0531 70.2937 56.0363 70.2054C54.0891 72.8515 52.123 75.2718 50.166 77.4265ZM70.5559 54.8417C71.8926 57.8886 73.0191 60.8359 73.9137 63.6386C71.0145 64.3003 67.884 64.8331 64.5855 65.2288C65.6425 63.5533 66.666 61.8568 67.6555 60.1406C68.6615 58.396 69.6285 56.6293 70.5559 54.8417ZM63.9551 58.0062C62.4403 60.6376 60.8404 63.219 59.1578 65.7464C56.11 65.9623 53.0555 66.0695 50 66.0679C46.8879 66.0679 43.8609 65.971 40.9461 65.782C39.2196 63.2604 37.5892 60.6744 36.0582 58.0296C34.5345 55.3988 33.1116 52.711 31.7918 49.9722C33.1082 47.2327 34.5272 44.5437 36.0457 41.9109L36.0453 41.9113C37.5633 39.2778 39.1807 36.7028 40.8941 34.1921C43.868 33.9671 46.9176 33.8499 49.9996 33.8499C53.0957 33.8499 56.1496 33.9683 59.1227 34.1949C60.8188 36.7018 62.4259 39.2679 63.941 41.8882C65.4646 44.5152 66.9024 47.1911 68.252 49.9117C66.9162 52.66 65.483 55.3599 63.9551 58.0062ZM72.7676 10.3015C76.116 12.2327 77.4184 20.0206 75.3145 30.2335C75.1801 30.8851 75.0293 31.5488 74.8652 32.2218C70.716 31.264 66.2109 30.5519 61.4941 30.1093C58.7465 26.1964 55.8992 22.639 53.041 19.5593C53.7901 18.8372 54.557 18.1339 55.341 17.4499C62.7238 11.0253 69.6238 8.4886 72.7676 10.3015ZM50 40.9406C54.9316 40.9406 58.9297 44.9386 58.9297 49.8702C58.9297 54.8019 54.9316 58.7999 50 58.7999C45.0684 58.7999 41.0703 54.8019 41.0703 49.8702C41.0703 44.9386 45.0684 40.9406 50 40.9406Z" fill="#00D8FF"/>
</svg>
