<svg width="100" height="100" viewBox="0 0 100 100" fill="none" xmlns="http://www.w3.org/2000/svg">
<g clip-path="url(#clip0_57_54)">
<path d="M69.2894 68.6457C72.9797 68.2637 75.7793 65.0824 75.6519 61.2645C75.525 57.4469 72.3434 54.3926 68.5258 54.3926H68.2715C64.3262 54.5199 61.2723 57.8285 61.3996 61.7734C61.5269 63.6824 62.2902 65.3367 63.4355 66.482C59.109 75.0086 52.4918 81.2441 42.566 86.4617C35.8215 90.025 28.8227 91.2977 21.8238 90.407C16.0973 89.6434 11.6434 87.0984 8.84335 82.8984C4.77148 76.6629 4.38984 69.918 7.82578 63.1734C10.2437 58.3375 14.0609 54.7742 16.4789 52.9926C15.9699 51.3383 15.2062 48.5387 14.8246 46.5027C-3.62735 59.8648 -1.71836 77.9355 3.88085 86.4617C8.08007 92.825 16.6062 96.7699 26.023 96.7699C28.568 96.7699 31.1129 96.5152 33.6582 95.8793C49.9469 92.6977 62.2906 83.0258 69.2894 68.6457ZM91.6863 52.8656C82.0148 41.5395 67.7625 35.3039 51.4738 35.3039H49.4379C48.2926 33.0133 45.8746 31.4859 43.2023 31.4859H42.9476C39.0031 31.6133 35.9492 34.9219 36.0762 38.8672C36.2035 42.6848 39.3848 45.7391 43.2023 45.7391H43.4566C46.2562 45.6117 48.6742 43.8301 49.6922 41.4121H51.9828C61.6543 41.4121 70.8164 44.2117 79.0883 49.684C85.4508 53.8836 90.032 59.3559 92.5769 65.973C94.7402 71.318 94.6129 76.5355 92.3223 80.9898C88.7594 87.7344 82.7785 91.425 74.8887 91.425C69.7984 91.425 64.9629 89.8977 62.4176 88.7523C61.018 90.025 58.4726 92.0609 56.691 93.334C62.1633 95.8789 67.7625 97.2789 73.107 97.2789C85.3234 97.2789 94.3586 90.534 97.7945 83.7895C101.485 76.4082 101.23 63.6824 91.6863 52.8656ZM27.041 70.8086C27.1684 74.6266 30.3496 77.6805 34.1672 77.6805H34.4219C38.3668 77.5535 41.4207 74.2445 41.2934 70.2996C41.1664 66.4816 37.9848 63.4277 34.1672 63.4277H33.9129C33.6582 63.4277 33.2762 63.4277 33.0223 63.5547C27.8047 54.9012 25.6414 45.4844 26.4051 35.3035C26.9137 27.668 29.459 21.0504 33.9129 15.5781C37.6031 10.8695 44.7293 8.57891 49.5652 8.45195C63.0539 8.19727 68.7801 24.9953 69.1621 31.7402C70.8164 32.1219 73.616 33.0129 75.525 33.6492C73.9976 13.0336 61.2723 2.34375 49.0562 2.34375C37.6031 2.34375 27.041 10.6156 22.8414 22.8324C16.9879 39.1215 20.8055 54.7742 27.9316 67.1184C27.2957 68.009 26.9137 69.4086 27.041 70.8086Z" fill="#764ABC"/>
</g>
<defs>
<clipPath id="clip0_57_54">
<rect width="100" height="100" fill="white"/>
</clipPath>
</defs>
</svg>
