<svg width="100" height="100" viewBox="0 0 100 100" fill="none" xmlns="http://www.w3.org/2000/svg">
<g clip-path="url(#clip0_55_37)">
<path d="M98.7207 44.6083L79.0124 10.5042C77.3041 7.54584 73.1082 5.1125 69.6791 5.1125H30.3041C26.8874 5.1125 22.6749 7.54584 20.9707 10.5042L1.2749 44.6083C-0.433431 47.5667 -0.433431 52.4125 1.2749 55.375L20.9624 89.4958C22.6707 92.4542 26.8666 94.8875 30.2957 94.8875H69.6916C73.1082 94.8875 77.2999 92.4542 79.0249 89.4958L98.7166 55.3708C100.425 52.4125 100.425 47.5667 98.7166 44.6083H98.7207ZM45.7332 23.9792C45.7332 21.7417 47.5582 19.9167 49.7916 19.9167C52.0249 19.9167 53.8541 21.7417 53.8541 23.9792V48.2333C53.7879 49.2647 53.3316 50.2322 52.5778 50.9393C51.824 51.6463 50.8292 52.0398 49.7957 52.0398C48.7622 52.0398 47.7675 51.6463 47.0137 50.9393C46.2599 50.2322 45.8035 49.2647 45.7374 48.2333L45.7332 23.9792ZM49.7916 75.7708C42.492 75.7609 35.4943 72.8562 30.3335 67.6938C25.1727 62.5314 22.2701 55.5329 22.2624 48.2333C22.2723 43.9399 23.2815 39.7076 25.2103 35.8718C27.1391 32.0359 29.9344 28.7018 33.3749 26.1333C33.7559 25.8495 34.1892 25.6437 34.65 25.5277C35.1108 25.4118 35.5899 25.3879 36.0599 25.4576C36.5298 25.5273 36.9814 25.6891 37.3887 25.9338C37.796 26.1784 38.151 26.5011 38.4332 26.8833C38.7169 27.2637 38.9227 27.6963 39.039 28.1563C39.1552 28.6163 39.1796 29.0948 39.1107 29.5643C39.0418 30.0337 38.881 30.485 38.6375 30.8922C38.394 31.2994 38.0725 31.6547 37.6916 31.9375C33.5175 35.2031 30.7846 39.9706 30.0761 45.2228C29.3676 50.475 30.7394 55.7961 33.899 60.0511C37.0585 64.3061 41.7557 67.158 46.9884 67.9985C52.2211 68.839 57.5751 67.6015 61.9082 64.55C64.453 62.6586 66.5197 60.1978 67.9429 57.3645C69.3661 54.5312 70.1062 51.404 70.1041 48.2333C70.0957 45.0509 69.343 41.9145 67.9062 39.0748C66.4694 36.2352 64.3882 33.771 61.8291 31.8792C61.0589 31.3082 60.5463 30.4554 60.4034 29.5074C60.2605 28.5594 60.4989 27.5934 61.0666 26.8208C61.6375 26.0507 62.4903 25.5381 63.4383 25.3952C64.3863 25.2523 65.3523 25.4907 66.1249 26.0583C69.5926 28.624 72.4113 31.966 74.3555 35.8166C76.2996 39.6673 77.3151 43.9197 77.3207 48.2333C77.3152 55.5339 74.4126 62.5339 69.2503 67.6962C64.088 72.8586 57.088 75.7612 49.7874 75.7667L49.7916 75.7708Z" fill="#6DB33F"/>
</g>
<defs>
<clipPath id="clip0_55_37">
<rect width="100" height="100" fill="white"/>
</clipPath>
</defs>
</svg>
