<svg width="100" height="100" viewBox="0 0 100 100" fill="none" xmlns="http://www.w3.org/2000/svg">
<path d="M58.2172 98.3375C55.6648 101.554 50.4797 99.7922 50.4227 95.6836L49.5195 35.6008H89.9219C97.2383 35.6008 101.318 44.0516 96.768 49.7797L58.2172 98.3375Z" fill="url(#paint0_linear_55_46)"/>
<path d="M58.2172 98.3375C55.6648 101.554 50.4797 99.7922 50.4227 95.6836L49.5195 35.6008H89.9219C97.2383 35.6008 101.318 44.0516 96.768 49.7797L58.2172 98.3375Z" fill="url(#paint1_linear_55_46)" fill-opacity="0.2"/>
<path d="M41.7844 1.6625C44.3367 -1.55391 49.5227 0.207812 49.5789 4.31562L49.9758 64.3992H10.0797C2.76328 64.3992 -1.3164 55.9484 3.23281 50.2203L41.7844 1.6625Z" fill="#3ECF8E"/>
<defs>
<linearGradient id="paint0_linear_55_46" x1="49.5232" y1="48.9268" x2="85.4295" y2="63.9856" gradientUnits="userSpaceOnUse">
<stop stop-color="#249361"/>
<stop offset="1" stop-color="#3ECF8E"/>
</linearGradient>
<linearGradient id="paint1_linear_55_46" x1="33.6039" y1="27.1305" x2="49.9788" y2="57.9567" gradientUnits="userSpaceOnUse">
<stop/>
<stop offset="1" stop-opacity="0"/>
</linearGradient>
</defs>
</svg>
