<svg width="100" height="100" viewBox="0 0 100 100" fill="none" xmlns="http://www.w3.org/2000/svg">
<path d="M50 19.9219C36.6668 19.9219 28.3332 26.5887 25 39.9219C30 33.2551 35.8332 30.7551 42.5 32.4219C46.3035 33.3727 49.0223 36.1324 52.0316 39.1867C56.934 44.1629 62.6074 49.9219 75 49.9219C88.3332 49.9219 96.6668 43.2551 100 29.9219C95 36.5887 89.1668 39.0887 82.5 37.4219C78.6965 36.4711 75.9777 33.7113 72.9684 30.657C68.066 25.6809 62.3926 19.9219 50 19.9219ZM25 49.9219C11.6668 49.9219 3.3332 56.5887 0 69.9219C5 63.2551 10.8332 60.7551 17.5 62.4219C21.3035 63.3727 24.0223 66.1324 27.0316 69.1867C31.934 74.1629 37.6074 79.9219 50 79.9219C63.3332 79.9219 71.6668 73.2551 75 59.9219C70 66.5887 64.1668 69.0887 57.5 67.4219C53.6965 66.4711 50.9777 63.7113 47.9684 60.657C43.066 55.6809 37.3926 49.9219 25 49.9219Z" fill="url(#paint0_linear_57_77)"/>
<defs>
<linearGradient id="paint0_linear_57_77" x1="-277.8" y1="1939.92" x2="8358.83" y2="6919.65" gradientUnits="userSpaceOnUse">
<stop stop-color="#2298BD"/>
<stop offset="1" stop-color="#0ED7B5"/>
</linearGradient>
</defs>
</svg>
