<svg width="159" height="138" viewBox="0 0 159 138" fill="none" xmlns="http://www.w3.org/2000/svg">
<path d="M79.6049 25.2489C83.2577 19.1088 86.8571 12.9157 90.6168 6.82869C96.1759 -2.1169 103.852 -2.22263 109.254 6.77562C125.189 33.3483 141.001 59.9728 156.689 86.6492C161.772 95.2772 157.219 102.688 147.107 102.793C139.959 102.899 132.759 102.899 125.612 102.952H103.058C87.705 102.846 72.352 102.688 57.052 102.581L68.4873 82.891C75.846 82.7852 83.1536 82.7322 90.5111 82.6264C97.8698 82.6795 105.229 82.6795 112.641 82.7322L127.145 83.0497C130.374 83.1028 131.486 82.097 129.633 78.9739C120.422 63.4651 111.245 47.9209 102.104 32.3413C100.622 29.8533 99.4567 30.1709 98.1335 32.3944C95.8039 36.3641 93.4217 40.3338 91.0925 44.3035C87.2286 37.9523 83.417 31.6004 79.6049 25.2489Z" fill="#88898D"/>
<path d="M79.6048 25.2489C83.4164 31.6008 87.1754 37.9523 90.987 44.3043C91.993 46.3701 92.9459 48.4858 94.0576 50.4974C100.094 61.3484 107.293 71.4582 112.532 82.7326C105.174 82.6795 97.8145 82.6795 90.4028 82.6268C86.75 76.4868 83.0967 70.3467 79.497 64.2066C75.7381 57.802 72.5617 51.0795 67.7972 45.31C65.6795 39.7521 62.2912 34.9884 58.6384 29.3778C48.4206 46.6338 38.5208 63.307 28.6207 79.9274C27.1913 82.3623 27.7735 83.3151 30.5795 83.3681C35.2387 83.4212 39.8444 83.6326 44.5032 83.7914C40.7974 90.1433 37.0915 96.5479 33.3325 102.9L11.7856 102.741C1.51509 102.635 -2.98488 95.4903 2.09729 86.8088C17.9277 59.7603 33.9165 32.765 50.0635 5.82288C54.7753 -2.06386 62.7166 -1.852 67.64 5.92861C71.7696 12.3867 75.687 18.8439 79.6048 25.2489Z" fill="#03AEEE"/>
<path d="M33.3875 102.952C37.0934 96.6002 40.7993 90.1956 44.5582 83.8437C52.3391 70.9814 60.1228 58.1719 67.9053 45.3096C72.6698 51.0791 75.8461 57.8543 79.6055 64.2062C75.8992 70.452 72.1913 76.646 68.4875 82.8909L57.0522 102.581C53.465 107.331 50.4446 112.482 48.0522 117.932C68.0641 117.932 87.2818 117.879 106.552 117.985C110.893 118.038 111.264 116.714 109.093 113.38C106.923 109.992 105.07 106.446 103.057 103.005H125.61C129.21 109.198 132.916 115.338 136.41 121.531C141.069 129.842 136.992 137.146 127.622 137.146C95.6978 137.252 63.7742 137.252 31.8508 137.146C22.5324 137.146 18.2978 129.841 22.7978 121.584C26.1342 115.285 29.8401 109.145 33.3875 102.952Z" fill="#F0394A"/>
</svg>
